G04 Generated by Ultiboard 14.2 *
%FSLAX24Y24*%
%MOIN*%

%ADD10C,0.0001*%
%ADD11C,0.0100*%
%ADD12C,0.0197*%
%ADD13C,0.0050*%
%ADD14C,0.1183*%
%ADD15C,0.0500*%
%ADD16C,0.0394*%
%ADD17C,0.0783*%
%ADD18C,0.1567*%
%ADD19C,0.0633*%
%ADD20C,0.0490*%
%ADD21C,0.0925*%


G04 ColorRGB 0000FF for the following layer *
%LNCopper Bottom*%
%LPD*%
G54D10*
G36*
X-62841Y151D02*
X-62841Y151D01*
X-17751Y151D01*
X-17751Y29649D01*
X-62841Y29649D01*
X-62841Y151D01*
D02*
G37*
%LPC*%
G36*
X-60840Y28196D02*
G75*
D01*
G02X-60840Y28196I-760J4*
G01*
D02*
G37*
G36*
X-18056Y28196D02*
G75*
D01*
G02X-18056Y28196I-644J404*
G01*
D02*
G37*
G36*
X-45796Y26003D02*
G75*
D01*
G02X-45796Y26003I821J-445*
G01*
D02*
G37*
G36*
X-47053Y10801D02*
X-47053Y10801D01*
X-46801Y10801D01*
X-46801Y20600D01*
G74*
D01*
G02X-46742Y20742I201J0*
G01*
X-46742Y20742D01*
X-46542Y20942D01*
G75*
D01*
G02X-46400Y21001I142J-142*
G01*
X-46400Y21001D01*
X-33483Y21001D01*
G75*
D01*
G02X-33024Y20501I283J-201*
G01*
X-33024Y20501D01*
X-28483Y20501D01*
G75*
D01*
G02X-28483Y20099I283J-201*
G01*
X-28483Y20099D01*
X-40617Y20099D01*
X-40899Y19817D01*
X-40899Y15376D01*
G75*
D01*
G02X-40317Y15401I299J-176*
G01*
X-40317Y15401D01*
X-37283Y15401D01*
G75*
D01*
G02X-37283Y14999I283J-201*
G01*
X-37283Y14999D01*
X-40317Y14999D01*
G75*
D01*
G02X-40899Y15024I-283J201*
G01*
X-40899Y15024D01*
X-40899Y14983D01*
X-39058Y13142D01*
G75*
D01*
G02X-38801Y13084I58J-342*
G01*
X-38801Y13084D01*
X-38801Y14199D01*
X-38917Y14199D01*
G75*
D01*
G02X-38917Y14601I-283J201*
G01*
X-38917Y14601D01*
X-37500Y14601D01*
G75*
D01*
G02X-37358Y14542I0J-201*
G01*
X-37358Y14542D01*
X-34458Y11642D01*
G75*
D01*
G02X-34742Y11358I58J-342*
G01*
X-34742Y11358D01*
X-36347Y12963D01*
X-36347Y12963D01*
X-37583Y14199D01*
X-38399Y14199D01*
X-38399Y12500D01*
G75*
D01*
G02X-38458Y12358I-201J0*
G01*
X-38458Y12358D01*
X-38558Y12258D01*
G75*
D01*
G02X-38700Y12199I-142J142*
G01*
X-38700Y12199D01*
X-41300Y12199D01*
G75*
D01*
G02X-41442Y12258I0J201*
G01*
X-41442Y12258D01*
X-41542Y12358D01*
G75*
D01*
G02X-41601Y12500I142J142*
G01*
X-41601Y12500D01*
X-41601Y12517D01*
G75*
D01*
G02X-41116Y12601I201J283*
G01*
X-41116Y12601D01*
X-39284Y12601D01*
G75*
D01*
G02X-39342Y12858I284J199*
G01*
X-39342Y12858D01*
X-41242Y14758D01*
G75*
D01*
G02X-41301Y14900I142J142*
G01*
X-41301Y14900D01*
X-41301Y16799D01*
X-44517Y16799D01*
G75*
D01*
G02X-44517Y17201I-283J201*
G01*
X-44517Y17201D01*
X-41301Y17201D01*
X-41301Y19900D01*
G74*
D01*
G02X-41242Y20042I201J0*
G01*
X-41242Y20042D01*
X-40842Y20442D01*
G75*
D01*
G02X-40700Y20501I142J-142*
G01*
X-40700Y20501D01*
X-33376Y20501D01*
G74*
D01*
G02X-33483Y20599I176J299*
G01*
X-33483Y20599D01*
X-46317Y20599D01*
X-46399Y20517D01*
X-46399Y6022D01*
G75*
D01*
G02X-46666Y5582I199J-422*
G01*
X-46666Y5582D01*
X-46736Y5652D01*
G75*
D01*
G02X-46801Y5842I-464J-52*
G01*
X-46801Y5842D01*
X-46801Y10399D01*
X-47200Y10399D01*
G75*
D01*
G02X-47266Y10410I0J201*
G01*
G74*
D01*
G02X-47342Y10458I66J190*
G01*
G75*
D01*
G02X-47683Y10599I-58J342*
G01*
X-47683Y10599D01*
X-51317Y10599D01*
G75*
D01*
G02X-51658Y10458I-283J201*
G01*
G75*
D01*
G02X-51942Y10458I-142J142*
G01*
X-51942Y10458D01*
X-52083Y10599D01*
X-55317Y10599D01*
G75*
D01*
G02X-55317Y11001I-283J201*
G01*
X-55317Y11001D01*
X-52000Y11001D01*
G74*
D01*
G02X-51971Y10999I0J201*
G01*
G74*
D01*
G02X-51900Y10974I29J199*
G01*
G75*
D01*
G02X-51317Y11001I300J-174*
G01*
X-51317Y11001D01*
X-47683Y11001D01*
G75*
D01*
G02X-47053Y10801I283J-201*
G01*
D02*
G37*
G36*
X-36347Y25704D02*
G75*
D01*
G02X-36347Y25704I922J-146*
G01*
D02*
G37*
G36*
X-36347Y23243D02*
G75*
D01*
G02X-36347Y23243I147J-443*
G01*
D02*
G37*
G36*
X-55245Y3772D02*
G75*
D01*
G02X-55245Y3772I70J-930*
G01*
D02*
G37*
G36*
X-57842Y18747D02*
G75*
D01*
G02X-57842Y18747I-558J253*
G01*
D02*
G37*
G36*
X-26898Y4524D02*
G75*
D01*
G02X-26898Y4524I698J251*
G01*
D02*
G37*
G36*
X-26898Y2949D02*
G75*
D01*
G02X-26898Y2949I698J251*
G01*
D02*
G37*
G36*
X-26898Y6099D02*
G75*
D01*
G02X-26898Y6099I698J251*
G01*
D02*
G37*
G36*
X-45796Y3698D02*
G75*
D01*
G02X-45796Y3698I371J-856*
G01*
D02*
G37*
G36*
X-35301Y6475D02*
X-35301Y6475D01*
X-35301Y8917D01*
X-35682Y9298D01*
X-35682Y9298D01*
X-36347Y9963D01*
X-36347Y9963D01*
X-37142Y10758D01*
G75*
D01*
G02X-37201Y10900I142J142*
G01*
X-37201Y10900D01*
X-37201Y12717D01*
G75*
D01*
G02X-36799Y12717I201J283*
G01*
X-36799Y12717D01*
X-36799Y10983D01*
X-36347Y10531D01*
X-35114Y9298D01*
X-35114Y9298D01*
X-34958Y9142D01*
G75*
D01*
G02X-34899Y9000I-142J-142*
G01*
X-34899Y9000D01*
X-34899Y6558D01*
X-33763Y5422D01*
G75*
D01*
G02X-34047Y5138I363J-647*
G01*
X-34047Y5138D01*
X-35242Y6333D01*
G75*
D01*
G02X-35301Y6475I142J142*
G01*
D02*
G37*
G36*
X-43399Y15117D02*
X-43399Y15117D01*
X-43399Y2683D01*
X-43317Y2601D01*
X-42437Y2601D01*
G75*
D01*
G02X-41637Y3847I437J599*
G01*
X-41637Y3847D01*
X-40567Y4917D01*
G75*
D01*
G02X-40425Y4976I142J-142*
G01*
X-40425Y4976D01*
X-38714Y4976D01*
G75*
D01*
G02X-38714Y4574I714J-201*
G01*
X-38714Y4574D01*
X-40342Y4574D01*
X-41353Y3563D01*
G75*
D01*
G02X-41563Y2601I-647J-363*
G01*
X-41563Y2601D01*
X-38883Y2601D01*
X-38801Y2683D01*
X-38801Y2800D01*
G74*
D01*
G02X-38705Y2971I201J0*
G01*
G75*
D01*
G02X-38401Y2576I705J229*
G01*
G74*
D01*
G02X-38458Y2458I199J24*
G01*
X-38458Y2458D01*
X-38658Y2258D01*
G74*
D01*
G02X-38771Y2201I142J142*
G01*
G74*
D01*
G02X-38800Y2199I29J199*
G01*
X-38800Y2199D01*
X-43400Y2199D01*
G75*
D01*
G02X-43466Y2210I0J201*
G01*
G74*
D01*
G02X-43542Y2258I66J190*
G01*
X-43542Y2258D01*
X-43742Y2458D01*
G75*
D01*
G02X-43801Y2600I142J142*
G01*
X-43801Y2600D01*
X-43801Y15117D01*
G75*
D01*
G02X-43399Y15117I201J283*
G01*
D02*
G37*
G36*
X-30826Y16179D02*
X-30826Y16179D01*
X-30697Y16050D01*
X-24041Y16050D01*
G75*
D01*
G02X-24041Y15550I241J-250*
G01*
X-24041Y15550D01*
X-30800Y15550D01*
G75*
D01*
G02X-30852Y15556I0J250*
G01*
G74*
D01*
G02X-30977Y15624I52J244*
G01*
X-30977Y15624D01*
X-31106Y15753D01*
X-32199Y15753D01*
X-32199Y15683D01*
G75*
D01*
G02X-32601Y15683I-201J-283*
G01*
X-32601Y15683D01*
X-32601Y15756D01*
G75*
D01*
G02X-32564Y16252I37J247*
G01*
X-32564Y16252D01*
X-31003Y16252D01*
G74*
D01*
G02X-30997Y16252I0J249*
G01*
G74*
D01*
G02X-30826Y16179I6J249*
G01*
D02*
G37*
G36*
X-32359Y19550D02*
X-32359Y19550D01*
X-25403Y19550D01*
X-24050Y20903D01*
X-24050Y26887D01*
G75*
D01*
G02X-23550Y26887I250J313*
G01*
X-23550Y26887D01*
X-23550Y20800D01*
G75*
D01*
G02X-23623Y20623I-250J0*
G01*
X-23623Y20623D01*
X-25123Y19123D01*
G74*
D01*
G02X-25213Y19066I177J177*
G01*
G74*
D01*
G02X-25300Y19050I87J234*
G01*
X-25300Y19050D01*
X-32359Y19050D01*
G75*
D01*
G02X-32359Y19550I-241J250*
G01*
D02*
G37*
G36*
X-37276Y18123D02*
X-37276Y18123D01*
X-37477Y18123D01*
X-37477Y18324D01*
G74*
D01*
G02X-37276Y18123I123J324*
G01*
D02*
G37*
G36*
X-37924Y17877D02*
X-37924Y17877D01*
X-37723Y17877D01*
X-37723Y17676D01*
G74*
D01*
G02X-37924Y17877I123J324*
G01*
D02*
G37*
G36*
X-37482Y18000D02*
G75*
D01*
G02X-37482Y18000I-118J0*
G01*
D02*
G37*
G36*
X-37477Y17676D02*
X-37477Y17676D01*
X-37477Y17877D01*
X-37276Y17877D01*
G74*
D01*
G02X-37477Y17676I324J123*
G01*
D02*
G37*
G36*
X-37723Y18324D02*
X-37723Y18324D01*
X-37723Y18123D01*
X-37924Y18123D01*
G74*
D01*
G02X-37723Y18324I324J123*
G01*
D02*
G37*
G36*
X-53787Y15000D02*
G75*
D01*
G02X-53787Y15000I-613J0*
G01*
D02*
G37*
G36*
X-36733Y22800D02*
G75*
D01*
G02X-36733Y22800I-467J0*
G01*
D02*
G37*
G36*
X-37733Y22800D02*
G75*
D01*
G02X-37733Y22800I-467J0*
G01*
D02*
G37*
G36*
X-41733Y22800D02*
G75*
D01*
G02X-41733Y22800I-467J0*
G01*
D02*
G37*
G36*
X-42733Y22800D02*
G75*
D01*
G02X-42733Y22800I-467J0*
G01*
D02*
G37*
G36*
X-43733Y22800D02*
G75*
D01*
G02X-43733Y22800I-467J0*
G01*
D02*
G37*
G36*
X-38042Y25558D02*
G75*
D01*
G02X-38042Y25558I-933J0*
G01*
D02*
G37*
G36*
X-40492Y25558D02*
G75*
D01*
G02X-40492Y25558I-933J0*
G01*
D02*
G37*
G36*
X-60740Y1400D02*
G75*
D01*
G02X-60740Y1400I-760J0*
G01*
D02*
G37*
G36*
X-56005Y17000D02*
G75*
D01*
G02X-56005Y17000I-395J0*
G01*
D02*
G37*
G36*
X-57031Y17140D02*
X-57031Y17140D01*
X-57260Y17140D01*
X-57260Y17369D01*
G74*
D01*
G02X-57031Y17140I140J369*
G01*
D02*
G37*
G36*
X-57225Y17000D02*
G75*
D01*
G02X-57225Y17000I-175J0*
G01*
D02*
G37*
G36*
X-57260Y16631D02*
X-57260Y16631D01*
X-57260Y16860D01*
X-57031Y16860D01*
G74*
D01*
G02X-57260Y16631I369J140*
G01*
D02*
G37*
G36*
X-57540Y17369D02*
X-57540Y17369D01*
X-57540Y17140D01*
X-57769Y17140D01*
G74*
D01*
G02X-57540Y17369I369J140*
G01*
D02*
G37*
G36*
X-57769Y16860D02*
X-57769Y16860D01*
X-57540Y16860D01*
X-57540Y16631D01*
G74*
D01*
G02X-57769Y16860I140J369*
G01*
D02*
G37*
G36*
X-17940Y1600D02*
G75*
D01*
G02X-17940Y1600I-760J0*
G01*
D02*
G37*
G36*
X-21858Y3200D02*
G75*
D01*
G02X-21858Y3200I-742J0*
G01*
D02*
G37*
G36*
X-21858Y4775D02*
G75*
D01*
G02X-21858Y4775I-742J0*
G01*
D02*
G37*
G36*
X-21858Y6350D02*
G75*
D01*
G02X-21858Y6350I-742J0*
G01*
D02*
G37*
G36*
X-47999Y6021D02*
G75*
D01*
G02X-48401Y6021I-201J-421*
G01*
X-48401Y6021D01*
X-48401Y8517D01*
G74*
D01*
G02X-48483Y8599I201J283*
G01*
X-48483Y8599D01*
X-52517Y8599D01*
G75*
D01*
G02X-52517Y9001I-283J201*
G01*
X-52517Y9001D01*
X-48483Y9001D01*
G75*
D01*
G02X-47999Y8517I283J-201*
G01*
X-47999Y8517D01*
X-47999Y6021D01*
D02*
G37*
G36*
X-48042Y2842D02*
G75*
D01*
G02X-48042Y2842I-933J0*
G01*
D02*
G37*
G36*
X-50692Y2842D02*
G75*
D01*
G02X-50692Y2842I-933J0*
G01*
D02*
G37*
G36*
X-51933Y5600D02*
G75*
D01*
G02X-51933Y5600I-467J0*
G01*
D02*
G37*
G36*
X-52933Y5600D02*
G75*
D01*
G02X-52933Y5600I-467J0*
G01*
D02*
G37*
G36*
X-53933Y5600D02*
G75*
D01*
G02X-53933Y5600I-467J0*
G01*
D02*
G37*
G36*
X-32658Y6350D02*
G75*
D01*
G02X-32658Y6350I-742J0*
G01*
D02*
G37*
G36*
X-29058Y3200D02*
G75*
D01*
G02X-29058Y3200I-742J0*
G01*
D02*
G37*
G36*
X-32658Y3200D02*
G75*
D01*
G02X-32658Y3200I-742J0*
G01*
D02*
G37*
G36*
X-29058Y4775D02*
G75*
D01*
G02X-29058Y4775I-742J0*
G01*
D02*
G37*
G36*
X-29058Y6350D02*
G75*
D01*
G02X-29058Y6350I-742J0*
G01*
D02*
G37*
G36*
X-41258Y6350D02*
G75*
D01*
G02X-41258Y6350I-742J0*
G01*
D02*
G37*
G36*
X-41258Y4775D02*
G75*
D01*
G02X-41258Y4775I-742J0*
G01*
D02*
G37*
G36*
X-37258Y6350D02*
G75*
D01*
G02X-37258Y6350I-742J0*
G01*
D02*
G37*
G36*
X-25523Y18324D02*
X-25523Y18324D01*
X-25523Y18123D01*
X-25724Y18123D01*
G74*
D01*
G02X-25523Y18324I324J123*
G01*
D02*
G37*
G36*
X-22006Y16325D02*
G75*
D01*
G02X-21948Y15300I-194J-525*
G01*
G75*
D01*
G02X-22452Y15300I-252J-500*
G01*
G75*
D01*
G02X-22394Y16325I252J500*
G01*
X-22394Y16325D01*
X-22200Y16519D01*
X-22006Y16325D01*
D02*
G37*
G36*
X-21970Y17310D02*
X-21970Y17310D01*
X-22200Y17081D01*
X-22430Y17310D01*
G75*
D01*
G02X-21970Y17310I230J-510*
G01*
D02*
G37*
G36*
X-21967Y16800D02*
G75*
D01*
G02X-21967Y16800I-233J0*
G01*
D02*
G37*
G36*
X-21690Y17030D02*
G75*
D01*
G02X-21690Y16570I-510J-230*
G01*
X-21690Y16570D01*
X-21919Y16800D01*
X-21690Y17030D01*
D02*
G37*
G36*
X-22710Y17030D02*
X-22710Y17030D01*
X-22481Y16800D01*
X-22710Y16570D01*
G75*
D01*
G02X-22710Y17030I510J230*
G01*
D02*
G37*
G36*
X-25277Y17676D02*
X-25277Y17676D01*
X-25277Y17877D01*
X-25076Y17877D01*
G74*
D01*
G02X-25277Y17676I324J123*
G01*
D02*
G37*
G36*
X-25282Y18000D02*
G75*
D01*
G02X-25282Y18000I-118J0*
G01*
D02*
G37*
G36*
X-25724Y17877D02*
X-25724Y17877D01*
X-25523Y17877D01*
X-25523Y17676D01*
G74*
D01*
G02X-25724Y17877I123J324*
G01*
D02*
G37*
G36*
X-25076Y18123D02*
X-25076Y18123D01*
X-25277Y18123D01*
X-25277Y18324D01*
G74*
D01*
G02X-25076Y18123I123J324*
G01*
D02*
G37*
G36*
X-22006Y22125D02*
G75*
D01*
G02X-22394Y22125I-194J-525*
G01*
X-22394Y22125D01*
X-22200Y22319D01*
X-22006Y22125D01*
D02*
G37*
G36*
X-21967Y22600D02*
G75*
D01*
G02X-21967Y22600I-233J0*
G01*
D02*
G37*
G36*
X-21690Y22830D02*
G75*
D01*
G02X-21690Y22370I-510J-230*
G01*
X-21690Y22370D01*
X-21919Y22600D01*
X-21690Y22830D01*
D02*
G37*
G36*
X-22710Y22830D02*
X-22710Y22830D01*
X-22481Y22600D01*
X-22710Y22370D01*
G75*
D01*
G02X-22710Y22830I510J230*
G01*
D02*
G37*
G36*
X-22006Y23075D02*
X-22006Y23075D01*
X-22200Y22881D01*
X-22394Y23075D01*
G75*
D01*
G02X-22006Y23075I194J525*
G01*
D02*
G37*
G36*
X-21400Y27200D02*
G75*
D01*
G02X-21400Y27200I-400J0*
G01*
D02*
G37*
G36*
X-22426Y27342D02*
X-22426Y27342D01*
X-22658Y27342D01*
X-22658Y27574D01*
G74*
D01*
G02X-22426Y27342I142J374*
G01*
D02*
G37*
G36*
X-22625Y27200D02*
G75*
D01*
G02X-22625Y27200I-175J0*
G01*
D02*
G37*
G36*
X-22658Y26826D02*
X-22658Y26826D01*
X-22658Y27058D01*
X-22426Y27058D01*
G74*
D01*
G02X-22658Y26826I374J142*
G01*
D02*
G37*
G36*
X-22942Y27574D02*
X-22942Y27574D01*
X-22942Y27342D01*
X-23174Y27342D01*
G74*
D01*
G02X-22942Y27574I374J142*
G01*
D02*
G37*
G36*
X-23174Y27058D02*
X-23174Y27058D01*
X-22942Y27058D01*
X-22942Y26826D01*
G74*
D01*
G02X-23174Y27058I142J374*
G01*
D02*
G37*
%LPD*%
G54D11*
X-60840Y28196D02*
G75*
D01*
G02X-60840Y28196I-760J4*
G01*
X-18056Y28196D02*
G75*
D01*
G02X-18056Y28196I-644J404*
G01*
X-45796Y26003D02*
G75*
D01*
G02X-45796Y26003I821J-445*
G01*
X-47053Y10801D02*
X-46801Y10801D01*
X-46801Y20600D01*
G74*
D01*
G02X-46742Y20742I201J0*
G01*
X-46542Y20942D01*
G75*
D01*
G02X-46400Y21001I142J-142*
G01*
X-33483Y21001D01*
G75*
D01*
G02X-33024Y20501I283J-201*
G01*
X-28483Y20501D01*
G75*
D01*
G02X-28483Y20099I283J-201*
G01*
X-40617Y20099D01*
X-40899Y19817D01*
X-40899Y15376D01*
G75*
D01*
G02X-40317Y15401I299J-176*
G01*
X-37283Y15401D01*
G75*
D01*
G02X-37283Y14999I283J-201*
G01*
X-40317Y14999D01*
G75*
D01*
G02X-40899Y15024I-283J201*
G01*
X-40899Y14983D01*
X-39058Y13142D01*
G75*
D01*
G02X-38801Y13084I58J-342*
G01*
X-38801Y14199D01*
X-38917Y14199D01*
G75*
D01*
G02X-38917Y14601I-283J201*
G01*
X-37500Y14601D01*
G75*
D01*
G02X-37358Y14542I0J-201*
G01*
X-34458Y11642D01*
G75*
D01*
G02X-34742Y11358I58J-342*
G01*
X-36347Y12963D01*
X-36347Y12963D01*
X-37583Y14199D01*
X-38399Y14199D01*
X-38399Y12500D01*
G75*
D01*
G02X-38458Y12358I-201J0*
G01*
X-38558Y12258D01*
G75*
D01*
G02X-38700Y12199I-142J142*
G01*
X-41300Y12199D01*
G75*
D01*
G02X-41442Y12258I0J201*
G01*
X-41542Y12358D01*
G75*
D01*
G02X-41601Y12500I142J142*
G01*
X-41601Y12517D01*
G75*
D01*
G02X-41116Y12601I201J283*
G01*
X-39284Y12601D01*
G75*
D01*
G02X-39342Y12858I284J199*
G01*
X-41242Y14758D01*
G75*
D01*
G02X-41301Y14900I142J142*
G01*
X-41301Y16799D01*
X-44517Y16799D01*
G75*
D01*
G02X-44517Y17201I-283J201*
G01*
X-41301Y17201D01*
X-41301Y19900D01*
G74*
D01*
G02X-41242Y20042I201J0*
G01*
X-40842Y20442D01*
G75*
D01*
G02X-40700Y20501I142J-142*
G01*
X-33376Y20501D01*
G74*
D01*
G02X-33483Y20599I176J299*
G01*
X-46317Y20599D01*
X-46399Y20517D01*
X-46399Y6022D01*
G75*
D01*
G02X-46666Y5582I199J-422*
G01*
X-46736Y5652D01*
G75*
D01*
G02X-46801Y5842I-464J-52*
G01*
X-46801Y10399D01*
X-47200Y10399D01*
G75*
D01*
G02X-47266Y10410I0J201*
G01*
G74*
D01*
G02X-47342Y10458I66J190*
G01*
G75*
D01*
G02X-47683Y10599I-58J342*
G01*
X-51317Y10599D01*
G75*
D01*
G02X-51658Y10458I-283J201*
G01*
G75*
D01*
G02X-51942Y10458I-142J142*
G01*
X-52083Y10599D01*
X-55317Y10599D01*
G75*
D01*
G02X-55317Y11001I-283J201*
G01*
X-52000Y11001D01*
G74*
D01*
G02X-51971Y10999I0J201*
G01*
G74*
D01*
G02X-51900Y10974I29J199*
G01*
G75*
D01*
G02X-51317Y11001I300J-174*
G01*
X-47683Y11001D01*
G75*
D01*
G02X-47053Y10801I283J-201*
G01*
X-36347Y25704D02*
G75*
D01*
G02X-36347Y25704I922J-146*
G01*
X-36347Y23243D02*
G75*
D01*
G02X-36347Y23243I147J-443*
G01*
X-55245Y3772D02*
G75*
D01*
G02X-55245Y3772I70J-930*
G01*
X-57842Y18747D02*
G75*
D01*
G02X-57842Y18747I-558J253*
G01*
X-26898Y4524D02*
G75*
D01*
G02X-26898Y4524I698J251*
G01*
X-26898Y2949D02*
G75*
D01*
G02X-26898Y2949I698J251*
G01*
X-26898Y6099D02*
G75*
D01*
G02X-26898Y6099I698J251*
G01*
X-45796Y3698D02*
G75*
D01*
G02X-45796Y3698I371J-856*
G01*
X-35301Y6475D02*
X-35301Y8917D01*
X-35682Y9298D01*
X-35682Y9298D01*
X-36347Y9963D01*
X-36347Y9963D01*
X-37142Y10758D01*
G75*
D01*
G02X-37201Y10900I142J142*
G01*
X-37201Y12717D01*
G75*
D01*
G02X-36799Y12717I201J283*
G01*
X-36799Y10983D01*
X-36347Y10531D01*
X-35114Y9298D01*
X-35114Y9298D01*
X-34958Y9142D01*
G75*
D01*
G02X-34899Y9000I-142J-142*
G01*
X-34899Y6558D01*
X-33763Y5422D01*
G75*
D01*
G02X-34047Y5138I363J-647*
G01*
X-35242Y6333D01*
G75*
D01*
G02X-35301Y6475I142J142*
G01*
X-43399Y15117D02*
X-43399Y2683D01*
X-43317Y2601D01*
X-42437Y2601D01*
G75*
D01*
G02X-41637Y3847I437J599*
G01*
X-40567Y4917D01*
G75*
D01*
G02X-40425Y4976I142J-142*
G01*
X-38714Y4976D01*
G75*
D01*
G02X-38714Y4574I714J-201*
G01*
X-40342Y4574D01*
X-41353Y3563D01*
G75*
D01*
G02X-41563Y2601I-647J-363*
G01*
X-38883Y2601D01*
X-38801Y2683D01*
X-38801Y2800D01*
G74*
D01*
G02X-38705Y2971I201J0*
G01*
G75*
D01*
G02X-38401Y2576I705J229*
G01*
G74*
D01*
G02X-38458Y2458I199J24*
G01*
X-38658Y2258D01*
G74*
D01*
G02X-38771Y2201I142J142*
G01*
G74*
D01*
G02X-38800Y2199I29J199*
G01*
X-43400Y2199D01*
G75*
D01*
G02X-43466Y2210I0J201*
G01*
G74*
D01*
G02X-43542Y2258I66J190*
G01*
X-43742Y2458D01*
G75*
D01*
G02X-43801Y2600I142J142*
G01*
X-43801Y15117D01*
G75*
D01*
G02X-43399Y15117I201J283*
G01*
X-30826Y16179D02*
X-30697Y16050D01*
X-24041Y16050D01*
G75*
D01*
G02X-24041Y15550I241J-250*
G01*
X-30800Y15550D01*
G75*
D01*
G02X-30852Y15556I0J250*
G01*
G74*
D01*
G02X-30977Y15624I52J244*
G01*
X-31106Y15753D01*
X-32199Y15753D01*
X-32199Y15683D01*
G75*
D01*
G02X-32601Y15683I-201J-283*
G01*
X-32601Y15756D01*
G75*
D01*
G02X-32564Y16252I37J247*
G01*
X-31003Y16252D01*
G74*
D01*
G02X-30997Y16252I0J249*
G01*
G74*
D01*
G02X-30826Y16179I6J249*
G01*
X-32359Y19550D02*
X-25403Y19550D01*
X-24050Y20903D01*
X-24050Y26887D01*
G75*
D01*
G02X-23550Y26887I250J313*
G01*
X-23550Y20800D01*
G75*
D01*
G02X-23623Y20623I-250J0*
G01*
X-25123Y19123D01*
G74*
D01*
G02X-25213Y19066I177J177*
G01*
G74*
D01*
G02X-25300Y19050I87J234*
G01*
X-32359Y19050D01*
G75*
D01*
G02X-32359Y19550I-241J250*
G01*
X-37276Y18123D02*
X-37477Y18123D01*
X-37477Y18324D01*
G74*
D01*
G02X-37276Y18123I123J324*
G01*
X-37924Y17877D02*
X-37723Y17877D01*
X-37723Y17676D01*
G74*
D01*
G02X-37924Y17877I123J324*
G01*
X-37482Y18000D02*
G75*
D01*
G02X-37482Y18000I-118J0*
G01*
X-37477Y17676D02*
X-37477Y17877D01*
X-37276Y17877D01*
G74*
D01*
G02X-37477Y17676I324J123*
G01*
X-37723Y18324D02*
X-37723Y18123D01*
X-37924Y18123D01*
G74*
D01*
G02X-37723Y18324I324J123*
G01*
X-53787Y15000D02*
G75*
D01*
G02X-53787Y15000I-613J0*
G01*
X-36733Y22800D02*
G75*
D01*
G02X-36733Y22800I-467J0*
G01*
X-37733Y22800D02*
G75*
D01*
G02X-37733Y22800I-467J0*
G01*
X-41733Y22800D02*
G75*
D01*
G02X-41733Y22800I-467J0*
G01*
X-42733Y22800D02*
G75*
D01*
G02X-42733Y22800I-467J0*
G01*
X-43733Y22800D02*
G75*
D01*
G02X-43733Y22800I-467J0*
G01*
X-38042Y25558D02*
G75*
D01*
G02X-38042Y25558I-933J0*
G01*
X-40492Y25558D02*
G75*
D01*
G02X-40492Y25558I-933J0*
G01*
X-60740Y1400D02*
G75*
D01*
G02X-60740Y1400I-760J0*
G01*
X-56005Y17000D02*
G75*
D01*
G02X-56005Y17000I-395J0*
G01*
X-57031Y17140D02*
X-57260Y17140D01*
X-57260Y17369D01*
G74*
D01*
G02X-57031Y17140I140J369*
G01*
X-57225Y17000D02*
G75*
D01*
G02X-57225Y17000I-175J0*
G01*
X-57260Y16631D02*
X-57260Y16860D01*
X-57031Y16860D01*
G74*
D01*
G02X-57260Y16631I369J140*
G01*
X-57540Y17369D02*
X-57540Y17140D01*
X-57769Y17140D01*
G74*
D01*
G02X-57540Y17369I369J140*
G01*
X-57769Y16860D02*
X-57540Y16860D01*
X-57540Y16631D01*
G74*
D01*
G02X-57769Y16860I140J369*
G01*
X-17940Y1600D02*
G75*
D01*
G02X-17940Y1600I-760J0*
G01*
X-21858Y3200D02*
G75*
D01*
G02X-21858Y3200I-742J0*
G01*
X-21858Y4775D02*
G75*
D01*
G02X-21858Y4775I-742J0*
G01*
X-21858Y6350D02*
G75*
D01*
G02X-21858Y6350I-742J0*
G01*
X-47999Y6021D02*
G75*
D01*
G02X-48401Y6021I-201J-421*
G01*
X-48401Y8517D01*
G74*
D01*
G02X-48483Y8599I201J283*
G01*
X-52517Y8599D01*
G75*
D01*
G02X-52517Y9001I-283J201*
G01*
X-48483Y9001D01*
G75*
D01*
G02X-47999Y8517I283J-201*
G01*
X-47999Y6021D01*
X-48042Y2842D02*
G75*
D01*
G02X-48042Y2842I-933J0*
G01*
X-50692Y2842D02*
G75*
D01*
G02X-50692Y2842I-933J0*
G01*
X-51933Y5600D02*
G75*
D01*
G02X-51933Y5600I-467J0*
G01*
X-52933Y5600D02*
G75*
D01*
G02X-52933Y5600I-467J0*
G01*
X-53933Y5600D02*
G75*
D01*
G02X-53933Y5600I-467J0*
G01*
X-32658Y6350D02*
G75*
D01*
G02X-32658Y6350I-742J0*
G01*
X-29058Y3200D02*
G75*
D01*
G02X-29058Y3200I-742J0*
G01*
X-32658Y3200D02*
G75*
D01*
G02X-32658Y3200I-742J0*
G01*
X-29058Y4775D02*
G75*
D01*
G02X-29058Y4775I-742J0*
G01*
X-29058Y6350D02*
G75*
D01*
G02X-29058Y6350I-742J0*
G01*
X-41258Y6350D02*
G75*
D01*
G02X-41258Y6350I-742J0*
G01*
X-41258Y4775D02*
G75*
D01*
G02X-41258Y4775I-742J0*
G01*
X-37258Y6350D02*
G75*
D01*
G02X-37258Y6350I-742J0*
G01*
X-25523Y18324D02*
X-25523Y18123D01*
X-25724Y18123D01*
G74*
D01*
G02X-25523Y18324I324J123*
G01*
X-22006Y16325D02*
G75*
D01*
G02X-21948Y15300I-194J-525*
G01*
G75*
D01*
G02X-22452Y15300I-252J-500*
G01*
G75*
D01*
G02X-22394Y16325I252J500*
G01*
X-22200Y16519D01*
X-22006Y16325D01*
X-21970Y17310D02*
X-22200Y17081D01*
X-22430Y17310D01*
G75*
D01*
G02X-21970Y17310I230J-510*
G01*
X-21967Y16800D02*
G75*
D01*
G02X-21967Y16800I-233J0*
G01*
X-21690Y17030D02*
G75*
D01*
G02X-21690Y16570I-510J-230*
G01*
X-21919Y16800D01*
X-21690Y17030D01*
X-22710Y17030D02*
X-22481Y16800D01*
X-22710Y16570D01*
G75*
D01*
G02X-22710Y17030I510J230*
G01*
X-25277Y17676D02*
X-25277Y17877D01*
X-25076Y17877D01*
G74*
D01*
G02X-25277Y17676I324J123*
G01*
X-25282Y18000D02*
G75*
D01*
G02X-25282Y18000I-118J0*
G01*
X-25724Y17877D02*
X-25523Y17877D01*
X-25523Y17676D01*
G74*
D01*
G02X-25724Y17877I123J324*
G01*
X-25076Y18123D02*
X-25277Y18123D01*
X-25277Y18324D01*
G74*
D01*
G02X-25076Y18123I123J324*
G01*
X-22006Y22125D02*
G75*
D01*
G02X-22394Y22125I-194J-525*
G01*
X-22200Y22319D01*
X-22006Y22125D01*
X-21967Y22600D02*
G75*
D01*
G02X-21967Y22600I-233J0*
G01*
X-21690Y22830D02*
G75*
D01*
G02X-21690Y22370I-510J-230*
G01*
X-21919Y22600D01*
X-21690Y22830D01*
X-22710Y22830D02*
X-22481Y22600D01*
X-22710Y22370D01*
G75*
D01*
G02X-22710Y22830I510J230*
G01*
X-22006Y23075D02*
X-22200Y22881D01*
X-22394Y23075D01*
G75*
D01*
G02X-22006Y23075I194J525*
G01*
X-21400Y27200D02*
G75*
D01*
G02X-21400Y27200I-400J0*
G01*
X-22426Y27342D02*
X-22658Y27342D01*
X-22658Y27574D01*
G74*
D01*
G02X-22426Y27342I142J374*
G01*
X-22625Y27200D02*
G75*
D01*
G02X-22625Y27200I-175J0*
G01*
X-22658Y26826D02*
X-22658Y27058D01*
X-22426Y27058D01*
G74*
D01*
G02X-22658Y26826I374J142*
G01*
X-22942Y27574D02*
X-22942Y27342D01*
X-23174Y27342D01*
G74*
D01*
G02X-22942Y27574I374J142*
G01*
X-23174Y27058D02*
X-22942Y27058D01*
X-22942Y26826D01*
G74*
D01*
G02X-23174Y27058I142J374*
G01*
X-62841Y151D02*
X-17751Y151D01*
X-17751Y29649D01*
X-62841Y29649D01*
X-62841Y151D01*
X-37000Y13000D02*
X-37000Y10900D01*
X-35100Y9000D01*
X-35100Y6475D01*
X-33400Y4775D01*
X-34400Y11300D02*
X-37500Y14400D01*
X-39200Y14400D01*
X-38000Y4775D02*
X-40425Y4775D01*
X-42000Y3200D01*
X-39000Y12800D02*
X-41100Y14900D01*
X-41100Y19900D01*
X-28200Y20300D02*
X-40700Y20300D01*
X-41100Y19900D01*
X-44800Y17000D02*
X-41100Y17000D01*
X-37000Y15200D02*
X-40600Y15200D01*
X-22200Y22800D02*
X-22200Y22600D01*
X-22400Y23000D02*
X-22200Y22800D01*
X-22900Y23000D02*
X-22400Y23000D01*
X-23000Y23100D02*
X-22900Y23000D01*
X-23000Y27000D02*
X-23000Y23100D01*
X-22800Y27200D02*
X-23000Y27000D01*
X-38400Y2800D02*
X-38000Y3200D01*
X-38600Y2800D02*
X-38400Y2800D01*
X-38600Y2600D02*
X-38600Y2800D01*
X-38800Y2400D02*
X-38600Y2600D01*
X-43400Y2400D02*
X-38800Y2400D01*
X-43600Y2600D02*
X-43400Y2400D01*
X-43600Y15400D02*
X-43600Y2600D01*
X-51600Y10800D02*
X-47400Y10800D01*
X-52800Y8800D02*
X-48200Y8800D01*
X-25400Y18000D02*
X-37600Y18000D01*
X-46600Y10600D02*
X-46600Y5800D01*
X-47200Y10600D02*
X-46600Y10600D01*
X-46400Y5600D02*
X-46200Y5600D01*
X-46600Y5800D02*
X-46400Y5600D01*
X-47400Y10800D02*
X-47200Y10600D01*
X-32400Y16003D02*
X-32400Y15400D01*
X-41400Y12500D02*
X-41400Y12800D01*
X-41300Y12400D02*
X-41400Y12500D01*
X-38700Y12400D02*
X-41300Y12400D01*
X-38600Y12500D02*
X-38700Y12400D01*
X-38600Y14400D02*
X-38600Y12500D01*
X-48200Y8800D02*
X-48200Y5600D01*
X-51800Y10600D02*
X-51600Y10800D01*
X-52000Y10800D02*
X-51800Y10600D01*
X-55600Y10800D02*
X-52000Y10800D01*
X-46600Y20600D02*
X-46600Y10600D01*
X-46400Y20800D02*
X-46600Y20600D01*
X-33200Y20800D02*
X-46400Y20800D01*
G54D12*
X-23800Y15800D02*
X-30800Y15800D01*
X-31003Y16003D01*
X-32564Y16003D01*
X-32600Y19300D02*
X-25300Y19300D01*
X-23800Y20800D01*
X-23800Y27200D01*
G54D13*
X-17500Y-100D02*
X-17500Y2900D01*
X-17500Y-100D02*
X-22059Y-100D01*
X-63092Y-100D02*
X-58533Y-100D01*
X-63092Y-100D02*
X-63092Y2900D01*
X-63092Y29900D02*
X-63092Y26900D01*
X-63092Y29900D02*
X-58533Y29900D01*
X-17500Y29900D02*
X-22059Y29900D01*
X-17500Y29900D02*
X-17500Y26900D01*
X-15531Y-100D02*
X-11594Y-100D01*
X-13563Y-2069D02*
X-13563Y1869D01*
X-12087Y-100D02*
G75*
D01*
G02X-12087Y-100I-1476J0*
G01*
X-65061Y-100D02*
X-68998Y-100D01*
X-67029Y-2069D02*
X-67029Y1869D01*
X-65553Y-100D02*
G75*
D01*
G02X-65553Y-100I-1476J0*
G01*
X-66537Y-100D02*
G75*
D01*
G02X-66537Y-100I-492J0*
G01*
X-15531Y29900D02*
X-11594Y29900D01*
X-13563Y27931D02*
X-13563Y31869D01*
X-12087Y29900D02*
G75*
D01*
G02X-12087Y29900I-1476J0*
G01*
X-12579Y29900D02*
G75*
D01*
G02X-12579Y29900I-984J0*
G01*
X-13071Y29900D02*
G75*
D01*
G02X-13071Y29900I-492J0*
G01*
G54D14*
X-42000Y6350D03*
X-42000Y3200D03*
X-42000Y4775D03*
X-38000Y6350D03*
X-38000Y3200D03*
X-38000Y4775D03*
X-33400Y6350D03*
X-33400Y3200D03*
X-33400Y4775D03*
X-22600Y6350D03*
X-22600Y3200D03*
X-22600Y4775D03*
X-26200Y6350D03*
X-26200Y3200D03*
X-26200Y4775D03*
X-29800Y6350D03*
X-29800Y3200D03*
X-29800Y4775D03*
G54D15*
X-21800Y27200D03*
X-23800Y27200D03*
X-22800Y27200D03*
G54D16*
X-23800Y15800D03*
X-32600Y19300D03*
X-37000Y13000D03*
X-34400Y11300D03*
X-39200Y14400D03*
X-28200Y20300D03*
X-44800Y17000D03*
X-39000Y12800D03*
X-43600Y15400D03*
X-32400Y15400D03*
X-40600Y15200D03*
X-37000Y15200D03*
X-41400Y12800D03*
X-51600Y10800D03*
X-55600Y10800D03*
X-47400Y10800D03*
X-33200Y20800D03*
X-37600Y18000D03*
X-25400Y18000D03*
X-48200Y8800D03*
X-52800Y8800D03*
G54D17*
X-22200Y16800D03*
X-22200Y15800D03*
X-22200Y14800D03*
X-22200Y22600D03*
X-22200Y23600D03*
X-22200Y21600D03*
G54D18*
X-35425Y25558D03*
X-38975Y25558D03*
X-41425Y25558D03*
X-44975Y25558D03*
X-55175Y2842D03*
X-51625Y2842D03*
X-48975Y2842D03*
X-45425Y2842D03*
G54D19*
X-37200Y22800D03*
X-38200Y22800D03*
X-36200Y22800D03*
X-44200Y22800D03*
X-43200Y22800D03*
X-42200Y22800D03*
X-53400Y5600D03*
X-54400Y5600D03*
X-52400Y5600D03*
X-48200Y5600D03*
X-46200Y5600D03*
X-47200Y5600D03*
G54D20*
X-57400Y17000D03*
X-56400Y17000D03*
G54D21*
X-54400Y15000D03*
X-58400Y19000D03*

M02*
