M48
INCH,TZ
VER,1
FMAT,2
DETECT,ON
ATC,ON
T1C0.0583
T2C0.0350
T3C0.0236
T4C0.0467
T5C0.1150
T6C0.0785
T7C0.1220
%
T1
X42000Y6350
Y3200
Y4775
X38000Y6350
Y3200
Y4775
X33400Y6350
Y3200
Y4775
X22600Y6350
Y3200
Y4775
X26200Y6350
Y3200
Y4775
X29800Y6350
Y3200
Y4775
T2
X21800Y27200
X23800
X22800
X37200Y22800
X38200
X36200
X44200
X43200
X42200
X57400Y17000
X56400
X53400Y5600
X54400
X52400
X48200
X46200
X47200
T3
X23800Y15800
X32600Y19300
X37000Y13000
X34400Y11300
X39200Y14400
X28200Y20300
X44800Y17000
X39000Y12800
X43600Y15400
X32400
X40600Y15200
X37000
X41400Y12800
X51600Y10800
X55600
X47400
X33200Y20800
X37600Y18000
X25400
X48200Y8800
X52800
T4
X22200Y16800
Y15800
Y14800
Y22600
Y23600
Y21600
T5
X35425Y25558
X38975
X41425
X44975
X55175Y2842
X51625
X48975
X45425
T6
X54400Y15000
X58400Y19000
T7
X18700Y28600
Y1600
X61600Y28200
X61500Y1400
M30
