G04 Generated by Ultiboard 14.2 *
%FSLAX24Y24*%
%MOIN*%

%ADD10C,0.0001*%
%ADD11C,0.0100*%
%ADD12C,0.0197*%
%ADD13C,0.0050*%
%ADD14C,0.1183*%
%ADD15R,0.0108X0.0417*%
%ADD16C,0.0167*%
%ADD17R,0.0417X0.0108*%
%ADD18C,0.0500*%
%ADD19R,0.0236X0.0610*%
%ADD20C,0.0394*%
%ADD21C,0.0783*%
%ADD22R,0.4075X0.3465*%
%ADD23R,0.1555X0.0394*%
%ADD24R,0.0177X0.0551*%
%ADD25C,0.1567*%
%ADD26C,0.0633*%
%ADD27C,0.0490*%
%ADD28C,0.0925*%
%ADD29R,0.0256X0.0413*%


G04 ColorRGB 00C000 for the following layer *
%LNCopper Top*%
%LPD*%
G54D10*
G36*
X-17751Y151D02*
X-17751Y151D01*
X-17751Y29649D01*
X-62841Y29649D01*
X-62841Y151D01*
X-17751Y151D01*
D02*
G37*
%LPC*%
G36*
X-29592Y10136D02*
X-29592Y10136D01*
X-29599Y10136D01*
X-29599Y7064D01*
G75*
D01*
G02X-30001Y7064I-201J-714*
G01*
X-30001Y7064D01*
X-30001Y10136D01*
X-30008Y10136D01*
G75*
D01*
G02X-30243Y10371I0J235*
G01*
X-30243Y10371D01*
X-30243Y10479D01*
G75*
D01*
G02X-30008Y10714I235J0*
G01*
X-30008Y10714D01*
X-29592Y10714D01*
G74*
D01*
G02X-29357Y10479I0J235*
G01*
X-29357Y10479D01*
X-29357Y10371D01*
G75*
D01*
G02X-29592Y10136I-235J0*
G01*
D02*
G37*
G36*
X-25999Y7064D02*
G75*
D01*
G02X-26401Y7064I-201J-714*
G01*
X-26401Y7064D01*
X-26401Y10136D01*
X-26408Y10136D01*
G75*
D01*
G02X-26643Y10371I0J235*
G01*
X-26643Y10371D01*
X-26643Y10479D01*
G75*
D01*
G02X-26408Y10714I235J0*
G01*
X-26408Y10714D01*
X-25992Y10714D01*
G74*
D01*
G02X-25757Y10479I0J235*
G01*
X-25757Y10479D01*
X-25757Y10371D01*
G75*
D01*
G02X-25992Y10136I-235J0*
G01*
X-25992Y10136D01*
X-25999Y10136D01*
X-25999Y7064D01*
D02*
G37*
G36*
X-25486Y4574D02*
G75*
D01*
G02X-26914Y4574I-714J201*
G01*
X-26914Y4574D01*
X-29086Y4574D01*
G75*
D01*
G02X-30514Y4574I-714J201*
G01*
X-30514Y4574D01*
X-32686Y4574D01*
G75*
D01*
G02X-32686Y4976I-714J201*
G01*
X-32686Y4976D01*
X-30514Y4976D01*
G75*
D01*
G02X-29086Y4976I714J-201*
G01*
X-29086Y4976D01*
X-26914Y4976D01*
G75*
D01*
G02X-25486Y4976I714J-201*
G01*
X-25486Y4976D01*
X-23314Y4976D01*
G75*
D01*
G02X-23314Y4574I714J-201*
G01*
X-23314Y4574D01*
X-25486Y4574D01*
D02*
G37*
G36*
X-26898Y2949D02*
G75*
D01*
G02X-26898Y2949I698J251*
G01*
D02*
G37*
G36*
X-33192Y10136D02*
X-33192Y10136D01*
X-33199Y10136D01*
X-33199Y7064D01*
G75*
D01*
G02X-33601Y7064I-201J-714*
G01*
X-33601Y7064D01*
X-33601Y10136D01*
X-33608Y10136D01*
G75*
D01*
G02X-33843Y10371I0J235*
G01*
X-33843Y10371D01*
X-33843Y10479D01*
G75*
D01*
G02X-33608Y10714I235J0*
G01*
X-33608Y10714D01*
X-33192Y10714D01*
G74*
D01*
G02X-32957Y10479I0J235*
G01*
X-32957Y10479D01*
X-32957Y10371D01*
G75*
D01*
G02X-33192Y10136I-235J0*
G01*
D02*
G37*
G36*
X-37353Y6713D02*
G75*
D01*
G02X-37637Y6997I-647J-363*
G01*
X-37637Y6997D01*
X-36347Y8287D01*
X-36347Y8287D01*
X-35336Y9298D01*
X-35336Y9298D01*
X-34301Y10333D01*
X-34301Y10968D01*
G75*
D01*
G02X-34062Y11376I-99J332*
G01*
X-34062Y11376D01*
X-33791Y11376D01*
G75*
D01*
G02X-33608Y11464I183J-147*
G01*
X-33608Y11464D01*
X-33192Y11464D01*
G74*
D01*
G02X-33009Y11376I0J235*
G01*
X-33009Y11376D01*
X-30191Y11376D01*
G75*
D01*
G02X-30008Y11464I183J-147*
G01*
X-30008Y11464D01*
X-29592Y11464D01*
G74*
D01*
G02X-29409Y11376I0J235*
G01*
X-29409Y11376D01*
X-26591Y11376D01*
G75*
D01*
G02X-26408Y11464I183J-147*
G01*
X-26408Y11464D01*
X-25992Y11464D01*
G74*
D01*
G02X-25809Y11376I0J235*
G01*
X-25809Y11376D01*
X-22991Y11376D01*
G75*
D01*
G02X-22808Y11464I183J-147*
G01*
X-22808Y11464D01*
X-22392Y11464D01*
G74*
D01*
G02X-22157Y11229I0J235*
G01*
X-22157Y11229D01*
X-22157Y11121D01*
G75*
D01*
G02X-22392Y10886I-235J0*
G01*
X-22392Y10886D01*
X-22808Y10886D01*
G75*
D01*
G02X-22991Y10974I0J235*
G01*
X-22991Y10974D01*
X-25809Y10974D01*
G74*
D01*
G02X-25992Y10886I183J147*
G01*
X-25992Y10886D01*
X-26408Y10886D01*
G75*
D01*
G02X-26591Y10974I0J235*
G01*
X-26591Y10974D01*
X-29409Y10974D01*
G74*
D01*
G02X-29592Y10886I183J147*
G01*
X-29592Y10886D01*
X-30008Y10886D01*
G75*
D01*
G02X-30191Y10974I0J235*
G01*
X-30191Y10974D01*
X-33009Y10974D01*
G74*
D01*
G02X-33192Y10886I183J147*
G01*
X-33192Y10886D01*
X-33608Y10886D01*
G75*
D01*
G02X-33791Y10974I0J235*
G01*
X-33791Y10974D01*
X-33899Y10974D01*
X-33899Y10250D01*
G75*
D01*
G02X-33958Y10108I-201J0*
G01*
X-33958Y10108D01*
X-34768Y9298D01*
X-34768Y9298D01*
X-36347Y7719D01*
X-36347Y7719D01*
X-37353Y6713D01*
D02*
G37*
G36*
X-45796Y5833D02*
G75*
D01*
G02X-45796Y5833I-404J-233*
G01*
D02*
G37*
G36*
X-54664Y13408D02*
G75*
D01*
G02X-54429Y13643I235J0*
G01*
X-54429Y13643D01*
X-54321Y13643D01*
G74*
D01*
G02X-54086Y13408I0J235*
G01*
X-54086Y13408D01*
X-54086Y13196D01*
X-54058Y13167D01*
G75*
D01*
G02X-53999Y13025I-142J-142*
G01*
X-53999Y13025D01*
X-53999Y11264D01*
X-53992Y11264D01*
G74*
D01*
G02X-53757Y11029I0J235*
G01*
X-53757Y11029D01*
X-53757Y10921D01*
G75*
D01*
G02X-53992Y10686I-235J0*
G01*
X-53992Y10686D01*
X-54408Y10686D01*
G75*
D01*
G02X-54643Y10921I0J235*
G01*
X-54643Y10921D01*
X-54643Y11029D01*
G75*
D01*
G02X-54408Y11264I235J0*
G01*
X-54408Y11264D01*
X-54401Y11264D01*
X-54401Y12757D01*
X-54429Y12757D01*
G75*
D01*
G02X-54664Y12992I0J235*
G01*
X-54664Y12992D01*
X-54664Y12999D01*
X-55336Y12999D01*
X-55336Y12992D01*
G75*
D01*
G02X-55571Y12757I-235J0*
G01*
X-55571Y12757D01*
X-55679Y12757D01*
G75*
D01*
G02X-55914Y12992I0J235*
G01*
X-55914Y12992D01*
X-55914Y13408D01*
G75*
D01*
G02X-55679Y13643I235J0*
G01*
X-55679Y13643D01*
X-55571Y13643D01*
G74*
D01*
G02X-55336Y13408I0J235*
G01*
X-55336Y13408D01*
X-55336Y13401D01*
X-54664Y13401D01*
X-54664Y13408D01*
D02*
G37*
G36*
X-45973Y15674D02*
G75*
D01*
G02X-46124Y15825I0J151*
G01*
X-46124Y15825D01*
X-46124Y16435D01*
G75*
D01*
G02X-45973Y16586I151J0*
G01*
X-45973Y16586D01*
X-45737Y16586D01*
G74*
D01*
G02X-45605Y16508I0J151*
G01*
G74*
D01*
G02X-45556Y16561I132J73*
G01*
X-45556Y16561D01*
X-45556Y17445D01*
G74*
D01*
G02X-45497Y17587I201J0*
G01*
X-45497Y17587D01*
X-44517Y18567D01*
G74*
D01*
G02X-44392Y18625I142J142*
G01*
G75*
D01*
G02X-44208Y18714I184J-146*
G01*
X-44208Y18714D01*
X-43792Y18714D01*
G74*
D01*
G02X-43557Y18479I0J235*
G01*
X-43557Y18479D01*
X-43557Y18371D01*
G75*
D01*
G02X-43792Y18136I-235J0*
G01*
X-43792Y18136D01*
X-44208Y18136D01*
G75*
D01*
G02X-44339Y18176I0J235*
G01*
X-44339Y18176D01*
X-45154Y17362D01*
X-45154Y16561D01*
G74*
D01*
G02X-45105Y16508I83J126*
G01*
G74*
D01*
G02X-45056Y16561I132J73*
G01*
X-45056Y16561D01*
X-45056Y16766D01*
G75*
D01*
G02X-44654Y16685I256J234*
G01*
X-44654Y16685D01*
X-44654Y16561D01*
G74*
D01*
G02X-44605Y16508I83J126*
G01*
G75*
D01*
G02X-44473Y16586I132J-73*
G01*
X-44473Y16586D01*
X-44451Y16586D01*
X-44451Y16225D01*
X-44586Y16225D01*
X-44586Y16034D01*
X-44451Y16034D01*
X-44451Y15674D01*
X-44473Y15674D01*
G75*
D01*
G02X-44605Y15752I0J151*
G01*
G74*
D01*
G02X-44737Y15674I132J73*
G01*
X-44737Y15674D01*
X-44973Y15674D01*
G75*
D01*
G02X-44991Y15675I0J151*
G01*
X-44991Y15675D01*
X-44958Y15643D01*
X-43848Y15643D01*
G75*
D01*
G02X-43352Y15643I248J-243*
G01*
X-43352Y15643D01*
X-43208Y15643D01*
G75*
D01*
G02X-43025Y15730I183J-147*
G01*
X-43025Y15730D01*
X-42608Y15730D01*
G74*
D01*
G02X-42374Y15496I0J234*
G01*
X-42374Y15496D01*
X-42374Y15387D01*
G75*
D01*
G02X-42608Y15153I-234J0*
G01*
X-42608Y15153D01*
X-43025Y15153D01*
G75*
D01*
G02X-43208Y15241I0J234*
G01*
X-43208Y15241D01*
X-43292Y15241D01*
G75*
D01*
G02X-43908Y15241I-308J159*
G01*
X-43908Y15241D01*
X-45042Y15241D01*
X-45046Y15241D01*
G74*
D01*
G02X-45184Y15300I4J201*
G01*
X-45184Y15300D01*
X-45497Y15613D01*
G74*
D01*
G02X-45546Y15693I142J142*
G01*
G74*
D01*
G02X-45605Y15752I73J132*
G01*
G74*
D01*
G02X-45737Y15674I132J73*
G01*
X-45737Y15674D01*
X-45973Y15674D01*
D02*
G37*
G36*
X-39486Y18392D02*
G75*
D01*
G02X-39721Y18157I-235J0*
G01*
X-39721Y18157D01*
X-39829Y18157D01*
G75*
D01*
G02X-40064Y18392I0J235*
G01*
X-40064Y18392D01*
X-40064Y18808D01*
G74*
D01*
G02X-39951Y19009I235J0*
G01*
X-39951Y19009D01*
X-39951Y19790D01*
X-40102Y19790D01*
G75*
D01*
G02X-40253Y19941I0J151*
G01*
X-40253Y19941D01*
X-40253Y20354D01*
G75*
D01*
G02X-40102Y20505I151J0*
G01*
X-40102Y20505D01*
X-39846Y20505D01*
G74*
D01*
G02X-39695Y20354I0J151*
G01*
X-39695Y20354D01*
X-39695Y20201D01*
X-39505Y20201D01*
X-39505Y20354D01*
G75*
D01*
G02X-39354Y20505I151J0*
G01*
X-39354Y20505D01*
X-39098Y20505D01*
G74*
D01*
G02X-38947Y20354I0J151*
G01*
X-38947Y20354D01*
X-38947Y19941D01*
G75*
D01*
G02X-39098Y19790I-151J0*
G01*
X-39098Y19790D01*
X-39354Y19790D01*
G75*
D01*
G02X-39406Y19799I0J151*
G01*
X-39406Y19799D01*
X-39599Y19799D01*
X-39599Y19009D01*
G74*
D01*
G02X-39486Y18808I122J201*
G01*
X-39486Y18808D01*
X-39486Y18392D01*
D02*
G37*
G36*
X-38279Y18754D02*
G75*
D01*
G02X-38128Y18905I151J0*
G01*
X-38128Y18905D01*
X-37872Y18905D01*
G74*
D01*
G02X-37721Y18754I0J151*
G01*
X-37721Y18754D01*
X-37721Y18341D01*
G75*
D01*
G02X-37723Y18318I-151J0*
G01*
X-37723Y18318D01*
X-37723Y18123D01*
X-37924Y18123D01*
G74*
D01*
G02X-37890Y18190I324J123*
G01*
X-37890Y18190D01*
X-38128Y18190D01*
G75*
D01*
G02X-38279Y18341I0J151*
G01*
X-38279Y18341D01*
X-38279Y18754D01*
D02*
G37*
G36*
X-38736Y18808D02*
X-38736Y18808D01*
X-38736Y18392D01*
G75*
D01*
G02X-38849Y18191I-235J0*
G01*
X-38849Y18191D01*
X-38849Y17950D01*
G75*
D01*
G02X-38901Y17826I-176J0*
G01*
X-38901Y17826D01*
X-39185Y17541D01*
G74*
D01*
G02X-39157Y17429I207J112*
G01*
X-39157Y17429D01*
X-39157Y17321D01*
G75*
D01*
G02X-39392Y17086I-235J0*
G01*
X-39392Y17086D01*
X-39640Y17086D01*
X-39813Y16914D01*
G75*
D01*
G02X-39808Y16914I5J-235*
G01*
X-39808Y16914D01*
X-39392Y16914D01*
G74*
D01*
G02X-39223Y16843I0J235*
G01*
X-39223Y16843D01*
X-38680Y16843D01*
X-38680Y16875D01*
G75*
D01*
G02X-38446Y17109I234J0*
G01*
X-38446Y17109D01*
X-38337Y17109D01*
G74*
D01*
G02X-38103Y16875I0J234*
G01*
X-38103Y16875D01*
X-38103Y16458D01*
X-38103Y16454D01*
X-38103Y16454D01*
X-37930Y16627D01*
X-37930Y16875D01*
G75*
D01*
G02X-37696Y17109I234J0*
G01*
X-37696Y17109D01*
X-37587Y17109D01*
G74*
D01*
G02X-37500Y17093I0J234*
G01*
X-37500Y17093D01*
X-37401Y17192D01*
X-37401Y17716D01*
G74*
D01*
G02X-37477Y17676I199J284*
G01*
X-37477Y17676D01*
X-37477Y17877D01*
X-37401Y17877D01*
X-37401Y18123D01*
X-37477Y18123D01*
X-37477Y18324D01*
G74*
D01*
G02X-37401Y18284I123J324*
G01*
X-37401Y18284D01*
X-37401Y19131D01*
G74*
D01*
G02X-37498Y19095I97J115*
G01*
X-37498Y19095D01*
X-37527Y19095D01*
X-37527Y19354D01*
X-37401Y19354D01*
X-37401Y19552D01*
X-37527Y19552D01*
X-37527Y20048D01*
X-37401Y20048D01*
X-37401Y20246D01*
X-37527Y20246D01*
X-37527Y20505D01*
X-37498Y20505D01*
G74*
D01*
G02X-37401Y20469I0J151*
G01*
X-37401Y20469D01*
X-37401Y22379D01*
G75*
D01*
G02X-37442Y23199I201J421*
G01*
X-37442Y23199D01*
X-37958Y23199D01*
G75*
D01*
G02X-38621Y22599I-242J-399*
G01*
X-38621Y22599D01*
X-40517Y22599D01*
X-41358Y21758D01*
G75*
D01*
G02X-41500Y21699I-142J142*
G01*
X-41500Y21699D01*
X-42300Y21699D01*
G75*
D01*
G02X-42442Y21758I0J201*
G01*
X-42442Y21758D01*
X-43044Y22360D01*
G75*
D01*
G02X-43442Y23199I-156J440*
G01*
X-43442Y23199D01*
X-43958Y23199D01*
G75*
D01*
G02X-43999Y22379I-242J-399*
G01*
X-43999Y22379D01*
X-43999Y19464D01*
X-43792Y19464D01*
G74*
D01*
G02X-43557Y19229I0J235*
G01*
X-43557Y19229D01*
X-43557Y19121D01*
G75*
D01*
G02X-43792Y18886I-235J0*
G01*
X-43792Y18886D01*
X-44208Y18886D01*
G75*
D01*
G02X-44443Y19121I0J235*
G01*
X-44443Y19121D01*
X-44443Y19229D01*
G74*
D01*
G02X-44401Y19363I235J0*
G01*
G75*
D01*
G02X-44401Y19375I201J12*
G01*
X-44401Y19375D01*
X-44401Y22379D01*
G74*
D01*
G02X-44599Y22558I201J421*
G01*
X-44599Y22558D01*
X-44599Y18600D01*
G75*
D01*
G02X-44658Y18458I-201J0*
G01*
X-44658Y18458D01*
X-44858Y18258D01*
G75*
D01*
G02X-45000Y18199I-142J142*
G01*
X-45000Y18199D01*
X-57717Y18199D01*
X-57799Y18117D01*
X-57799Y10283D01*
X-57717Y10201D01*
X-57200Y10201D01*
G74*
D01*
G02X-56999Y10000I0J201*
G01*
X-56999Y10000D01*
X-56999Y9989D01*
G74*
D01*
G02X-56900Y9915I33J147*
G01*
G75*
D01*
G02X-56768Y9993I132J-73*
G01*
X-56768Y9993D01*
X-56532Y9993D01*
G74*
D01*
G02X-56400Y9915I0J151*
G01*
G74*
D01*
G02X-56351Y9968I132J73*
G01*
X-56351Y9968D01*
X-56351Y10167D01*
X-56792Y10608D01*
G75*
D01*
G02X-56851Y10750I142J142*
G01*
X-56851Y10750D01*
X-56851Y11232D01*
G74*
D01*
G02X-56900Y11285I83J126*
G01*
G74*
D01*
G02X-57032Y11207I132J73*
G01*
X-57032Y11207D01*
X-57268Y11207D01*
G75*
D01*
G02X-57419Y11358I0J151*
G01*
X-57419Y11358D01*
X-57419Y11968D01*
G75*
D01*
G02X-57268Y12119I151J0*
G01*
X-57268Y12119D01*
X-57032Y12119D01*
G74*
D01*
G02X-56900Y12041I0J151*
G01*
G74*
D01*
G02X-56851Y12094I132J73*
G01*
X-56851Y12094D01*
X-56851Y12350D01*
G74*
D01*
G02X-56792Y12492I201J0*
G01*
X-56792Y12492D01*
X-56601Y12683D01*
X-56601Y12832D01*
G75*
D01*
G02X-56664Y12992I172J160*
G01*
X-56664Y12992D01*
X-56664Y13408D01*
G74*
D01*
G02X-56599Y13570I235J0*
G01*
G75*
D01*
G02X-56601Y13600I199J30*
G01*
X-56601Y13600D01*
X-56601Y16660D01*
G75*
D01*
G02X-56199Y16660I201J340*
G01*
X-56199Y16660D01*
X-56199Y13672D01*
G74*
D01*
G02X-56175Y13592I176J97*
G01*
G74*
D01*
G02X-56086Y13408I146J184*
G01*
X-56086Y13408D01*
X-56086Y12992D01*
G75*
D01*
G02X-56199Y12791I-235J0*
G01*
X-56199Y12791D01*
X-56199Y12600D01*
G75*
D01*
G02X-56258Y12458I-201J0*
G01*
X-56258Y12458D01*
X-56449Y12267D01*
X-56449Y12094D01*
G74*
D01*
G02X-56400Y12041I83J126*
G01*
G75*
D01*
G02X-56268Y12119I132J-73*
G01*
X-56268Y12119D01*
X-56032Y12119D01*
G74*
D01*
G02X-55900Y12041I0J151*
G01*
G75*
D01*
G02X-55768Y12119I132J-73*
G01*
X-55768Y12119D01*
X-55532Y12119D01*
G74*
D01*
G02X-55381Y11968I0J151*
G01*
X-55381Y11968D01*
X-55381Y11358D01*
G75*
D01*
G02X-55532Y11207I-151J0*
G01*
X-55532Y11207D01*
X-55768Y11207D01*
G75*
D01*
G02X-55900Y11285I0J151*
G01*
G74*
D01*
G02X-55999Y11211I132J73*
G01*
X-55999Y11211D01*
X-55999Y11083D01*
X-55917Y11001D01*
X-55883Y11001D01*
G75*
D01*
G02X-55883Y10599I283J-201*
G01*
X-55883Y10599D01*
X-56000Y10599D01*
G75*
D01*
G02X-56066Y10610I0J201*
G01*
G74*
D01*
G02X-56142Y10658I66J190*
G01*
X-56142Y10658D01*
X-56342Y10858D01*
G75*
D01*
G02X-56401Y11000I142J142*
G01*
X-56401Y11000D01*
X-56401Y11283D01*
G74*
D01*
G02X-56449Y11232I131J75*
G01*
X-56449Y11232D01*
X-56449Y10833D01*
X-56008Y10392D01*
G75*
D01*
G02X-55949Y10250I-142J-142*
G01*
X-55949Y10250D01*
X-55949Y9968D01*
G74*
D01*
G02X-55900Y9915I83J126*
G01*
G75*
D01*
G02X-55768Y9993I132J-73*
G01*
X-55768Y9993D01*
X-55532Y9993D01*
G74*
D01*
G02X-55381Y9842I0J151*
G01*
X-55381Y9842D01*
X-55381Y9232D01*
G75*
D01*
G02X-55532Y9081I-151J0*
G01*
X-55532Y9081D01*
X-55768Y9081D01*
G75*
D01*
G02X-55900Y9159I0J151*
G01*
G74*
D01*
G02X-56032Y9081I132J73*
G01*
X-56032Y9081D01*
X-56268Y9081D01*
G75*
D01*
G02X-56400Y9159I0J151*
G01*
G74*
D01*
G02X-56449Y9106I132J73*
G01*
X-56449Y9106D01*
X-56449Y8664D01*
X-56392Y8664D01*
G74*
D01*
G02X-56209Y8576I0J235*
G01*
X-56209Y8576D01*
X-55308Y8576D01*
X-55245Y8640D01*
X-54586Y9298D01*
X-54586Y9298D01*
X-54401Y9483D01*
X-54401Y9936D01*
X-54408Y9936D01*
G75*
D01*
G02X-54643Y10171I0J235*
G01*
X-54643Y10171D01*
X-54643Y10279D01*
G75*
D01*
G02X-54408Y10514I235J0*
G01*
X-54408Y10514D01*
X-53992Y10514D01*
G74*
D01*
G02X-53757Y10279I0J235*
G01*
X-53757Y10279D01*
X-53757Y10171D01*
G75*
D01*
G02X-53992Y9936I-235J0*
G01*
X-53992Y9936D01*
X-53999Y9936D01*
X-53999Y9400D01*
G75*
D01*
G02X-54058Y9258I-201J0*
G01*
X-54058Y9258D01*
X-55083Y8233D01*
G75*
D01*
G02X-55225Y8174I-142J142*
G01*
X-55225Y8174D01*
X-56209Y8174D01*
G74*
D01*
G02X-56392Y8086I183J147*
G01*
X-56392Y8086D01*
X-56808Y8086D01*
G75*
D01*
G02X-56999Y8184I0J235*
G01*
X-56999Y8184D01*
X-56999Y7763D01*
X-56787Y7625D01*
X-56999Y7487D01*
X-56999Y7483D01*
X-56917Y7401D01*
X-56756Y7401D01*
X-56600Y7503D01*
X-56444Y7401D01*
X-52356Y7401D01*
X-52200Y7503D01*
X-52044Y7401D01*
X-51983Y7401D01*
X-51859Y7525D01*
X-52013Y7625D01*
X-51829Y7745D01*
X-51883Y7799D01*
X-52120Y7799D01*
X-52200Y7747D01*
X-52280Y7799D01*
X-52600Y7799D01*
G75*
D01*
G02X-52742Y7858I0J201*
G01*
X-52742Y7858D01*
X-52942Y8058D01*
G75*
D01*
G02X-53001Y8200I142J142*
G01*
X-53001Y8200D01*
X-53001Y8517D01*
G75*
D01*
G02X-53001Y9083I201J283*
G01*
X-53001Y9083D01*
X-53001Y9161D01*
G75*
D01*
G02X-53019Y9232I133J71*
G01*
X-53019Y9232D01*
X-53019Y9842D01*
G75*
D01*
G02X-52868Y9993I151J0*
G01*
X-52868Y9993D01*
X-52632Y9993D01*
G74*
D01*
G02X-52500Y9915I0J151*
G01*
G75*
D01*
G02X-52368Y9993I132J-73*
G01*
X-52368Y9993D01*
X-52132Y9993D01*
G74*
D01*
G02X-52000Y9915I0J151*
G01*
G74*
D01*
G02X-51951Y9968I132J73*
G01*
X-51951Y9968D01*
X-51951Y10167D01*
X-52392Y10608D01*
G75*
D01*
G02X-52451Y10750I142J142*
G01*
X-52451Y10750D01*
X-52451Y11232D01*
G74*
D01*
G02X-52500Y11285I83J126*
G01*
G74*
D01*
G02X-52632Y11207I132J73*
G01*
X-52632Y11207D01*
X-52868Y11207D01*
G75*
D01*
G02X-53019Y11358I0J151*
G01*
X-53019Y11358D01*
X-53019Y11968D01*
G75*
D01*
G02X-52868Y12119I151J0*
G01*
X-52868Y12119D01*
X-52632Y12119D01*
G74*
D01*
G02X-52500Y12041I0J151*
G01*
G75*
D01*
G02X-52368Y12119I132J-73*
G01*
X-52368Y12119D01*
X-52365Y12119D01*
X-51624Y12861D01*
G75*
D01*
G02X-51664Y12992I195J131*
G01*
X-51664Y12992D01*
X-51664Y12999D01*
X-53336Y12999D01*
X-53336Y12992D01*
G75*
D01*
G02X-53571Y12757I-235J0*
G01*
X-53571Y12757D01*
X-53679Y12757D01*
G75*
D01*
G02X-53914Y12992I0J235*
G01*
X-53914Y12992D01*
X-53914Y13408D01*
G75*
D01*
G02X-53679Y13643I235J0*
G01*
X-53679Y13643D01*
X-53571Y13643D01*
G74*
D01*
G02X-53336Y13408I0J235*
G01*
X-53336Y13408D01*
X-53336Y13401D01*
X-51664Y13401D01*
X-51664Y13408D01*
G75*
D01*
G02X-51429Y13643I235J0*
G01*
X-51429Y13643D01*
X-51321Y13643D01*
G74*
D01*
G02X-51086Y13408I0J235*
G01*
X-51086Y13408D01*
X-51086Y12992D01*
G75*
D01*
G02X-51175Y12808I-235J0*
G01*
G74*
D01*
G02X-51233Y12683I200J17*
G01*
X-51233Y12683D01*
X-51797Y12119D01*
X-51632Y12119D01*
G74*
D01*
G02X-51500Y12041I0J151*
G01*
G75*
D01*
G02X-51368Y12119I132J-73*
G01*
X-51368Y12119D01*
X-51132Y12119D01*
G74*
D01*
G02X-50981Y11968I0J151*
G01*
X-50981Y11968D01*
X-50981Y11358D01*
G75*
D01*
G02X-51132Y11207I-151J0*
G01*
X-51132Y11207D01*
X-51368Y11207D01*
G75*
D01*
G02X-51399Y11210I0J151*
G01*
X-51399Y11210D01*
X-51399Y11083D01*
G75*
D01*
G02X-51678Y10462I-201J-283*
G01*
X-51678Y10462D01*
X-51608Y10392D01*
G75*
D01*
G02X-51549Y10250I-142J-142*
G01*
X-51549Y10250D01*
X-51549Y9968D01*
G74*
D01*
G02X-51500Y9915I83J126*
G01*
G75*
D01*
G02X-51368Y9993I132J-73*
G01*
X-51368Y9993D01*
X-51132Y9993D01*
G74*
D01*
G02X-50981Y9842I0J151*
G01*
X-50981Y9842D01*
X-50981Y9232D01*
G75*
D01*
G02X-51132Y9081I-151J0*
G01*
X-51132Y9081D01*
X-51368Y9081D01*
G75*
D01*
G02X-51500Y9159I0J151*
G01*
G74*
D01*
G02X-51632Y9081I132J73*
G01*
X-51632Y9081D01*
X-51868Y9081D01*
G75*
D01*
G02X-52000Y9159I0J151*
G01*
G74*
D01*
G02X-52049Y9106I132J73*
G01*
X-52049Y9106D01*
X-52049Y8664D01*
X-51992Y8664D01*
G74*
D01*
G02X-51809Y8576I0J235*
G01*
X-51809Y8576D01*
X-50808Y8576D01*
X-50086Y9298D01*
X-50086Y9298D01*
X-50001Y9383D01*
X-50001Y9936D01*
X-50008Y9936D01*
G75*
D01*
G02X-50243Y10171I0J235*
G01*
X-50243Y10171D01*
X-50243Y10279D01*
G75*
D01*
G02X-50008Y10514I235J0*
G01*
X-50008Y10514D01*
X-49592Y10514D01*
G74*
D01*
G02X-49357Y10279I0J235*
G01*
X-49357Y10279D01*
X-49357Y10171D01*
G75*
D01*
G02X-49592Y9936I-235J0*
G01*
X-49592Y9936D01*
X-49599Y9936D01*
X-49599Y9300D01*
G75*
D01*
G02X-49658Y9158I-201J0*
G01*
X-49658Y9158D01*
X-50583Y8233D01*
G75*
D01*
G02X-50725Y8174I-142J142*
G01*
X-50725Y8174D01*
X-51699Y8174D01*
G74*
D01*
G02X-51658Y8142I101J174*
G01*
X-51658Y8142D01*
X-51458Y7942D01*
G75*
D01*
G02X-51399Y7800I-142J-142*
G01*
X-51399Y7800D01*
X-51399Y7500D01*
G75*
D01*
G02X-51458Y7358I-201J0*
G01*
X-51458Y7358D01*
X-51715Y7101D01*
X-51713Y7101D01*
X-49515Y9298D01*
X-49515Y9298D01*
X-48051Y10763D01*
X-48051Y11232D01*
G74*
D01*
G02X-48100Y11285I83J126*
G01*
G74*
D01*
G02X-48232Y11207I132J73*
G01*
X-48232Y11207D01*
X-48468Y11207D01*
G75*
D01*
G02X-48619Y11358I0J151*
G01*
X-48619Y11358D01*
X-48619Y11968D01*
G75*
D01*
G02X-48468Y12119I151J0*
G01*
X-48468Y12119D01*
X-48232Y12119D01*
G74*
D01*
G02X-48100Y12041I0J151*
G01*
G74*
D01*
G02X-48051Y12094I132J73*
G01*
X-48051Y12094D01*
X-48051Y12542D01*
X-48283Y12774D01*
G74*
D01*
G02X-48371Y12757I88J218*
G01*
X-48371Y12757D01*
X-48479Y12757D01*
G75*
D01*
G02X-48714Y12992I0J235*
G01*
X-48714Y12992D01*
X-48714Y13408D01*
G75*
D01*
G02X-48479Y13643I235J0*
G01*
X-48479Y13643D01*
X-48371Y13643D01*
G74*
D01*
G02X-48136Y13408I0J235*
G01*
X-48136Y13408D01*
X-48136Y13196D01*
X-47708Y12767D01*
G75*
D01*
G02X-47649Y12625I-142J-142*
G01*
X-47649Y12625D01*
X-47649Y12094D01*
G74*
D01*
G02X-47600Y12041I83J126*
G01*
G75*
D01*
G02X-47468Y12119I132J-73*
G01*
X-47468Y12119D01*
X-47232Y12119D01*
G74*
D01*
G02X-47100Y12041I0J151*
G01*
G75*
D01*
G02X-46968Y12119I132J-73*
G01*
X-46968Y12119D01*
X-46732Y12119D01*
G74*
D01*
G02X-46581Y11968I0J151*
G01*
X-46581Y11968D01*
X-46581Y11358D01*
G75*
D01*
G02X-46732Y11207I-151J0*
G01*
X-46732Y11207D01*
X-46968Y11207D01*
G75*
D01*
G02X-47100Y11285I0J151*
G01*
G74*
D01*
G02X-47199Y11211I132J73*
G01*
X-47199Y11211D01*
X-47199Y11083D01*
G75*
D01*
G02X-47672Y10585I-201J-283*
G01*
G74*
D01*
G02X-47708Y10537I178J94*
G01*
X-47708Y10537D01*
X-48252Y9993D01*
X-48232Y9993D01*
G74*
D01*
G02X-48100Y9915I0J151*
G01*
G75*
D01*
G02X-47968Y9993I132J-73*
G01*
X-47968Y9993D01*
X-47945Y9993D01*
X-47945Y9632D01*
X-48081Y9632D01*
X-48081Y9442D01*
X-47945Y9442D01*
X-47945Y9081D01*
X-47968Y9081D01*
G75*
D01*
G02X-47999Y9084I0J151*
G01*
X-47999Y9084D01*
X-47999Y9083D01*
G75*
D01*
G02X-47935Y8576I-201J-283*
G01*
X-47935Y8576D01*
X-47791Y8576D01*
G75*
D01*
G02X-47608Y8664I183J-147*
G01*
X-47608Y8664D01*
X-47551Y8664D01*
X-47551Y9106D01*
G74*
D01*
G02X-47600Y9159I83J126*
G01*
G74*
D01*
G02X-47732Y9081I132J73*
G01*
X-47732Y9081D01*
X-47755Y9081D01*
X-47755Y9442D01*
X-47619Y9442D01*
X-47619Y9632D01*
X-47755Y9632D01*
X-47755Y9993D01*
X-47732Y9993D01*
G74*
D01*
G02X-47600Y9915I0J151*
G01*
G75*
D01*
G02X-47468Y9993I132J-73*
G01*
X-47468Y9993D01*
X-47232Y9993D01*
G74*
D01*
G02X-47100Y9915I0J151*
G01*
G75*
D01*
G02X-46968Y9993I132J-73*
G01*
X-46968Y9993D01*
X-46732Y9993D01*
G74*
D01*
G02X-46581Y9842I0J151*
G01*
X-46581Y9842D01*
X-46581Y9232D01*
G75*
D01*
G02X-46732Y9081I-151J0*
G01*
X-46732Y9081D01*
X-46968Y9081D01*
G75*
D01*
G02X-47100Y9159I0J151*
G01*
G74*
D01*
G02X-47149Y9106I132J73*
G01*
X-47149Y9106D01*
X-47149Y8660D01*
G74*
D01*
G02X-46957Y8429I43J231*
G01*
X-46957Y8429D01*
X-46957Y8321D01*
G75*
D01*
G02X-47192Y8086I-235J0*
G01*
X-47192Y8086D01*
X-47608Y8086D01*
G75*
D01*
G02X-47791Y8174I0J235*
G01*
X-47791Y8174D01*
X-48809Y8174D01*
G74*
D01*
G02X-48992Y8086I183J147*
G01*
X-48992Y8086D01*
X-49204Y8086D01*
X-49377Y7914D01*
X-48992Y7914D01*
G74*
D01*
G02X-48757Y7679I0J235*
G01*
X-48757Y7679D01*
X-48757Y7571D01*
G75*
D01*
G02X-48992Y7336I-235J0*
G01*
X-48992Y7336D01*
X-48999Y7336D01*
X-48999Y5683D01*
X-48292Y4976D01*
X-42714Y4976D01*
G75*
D01*
G02X-42714Y4574I714J-201*
G01*
X-42714Y4574D01*
X-48375Y4574D01*
G75*
D01*
G02X-48517Y4633I0J201*
G01*
X-48517Y4633D01*
X-49342Y5458D01*
G75*
D01*
G02X-49401Y5600I142J142*
G01*
X-49401Y5600D01*
X-49401Y7336D01*
X-49408Y7336D01*
G75*
D01*
G02X-49643Y7571I0J235*
G01*
X-49643Y7571D01*
X-49643Y7648D01*
X-50858Y6433D01*
G75*
D01*
G02X-51000Y6374I-142J142*
G01*
X-51000Y6374D01*
X-52342Y6374D01*
X-52960Y5756D01*
G75*
D01*
G02X-53244Y6040I-440J-156*
G01*
X-53244Y6040D01*
X-52585Y6699D01*
X-53017Y6699D01*
X-53960Y5756D01*
G75*
D01*
G02X-54244Y6040I-440J-156*
G01*
X-54244Y6040D01*
X-53285Y6999D01*
X-57000Y6999D01*
G75*
D01*
G02X-57066Y7010I0J201*
G01*
G74*
D01*
G02X-57142Y7058I66J190*
G01*
X-57142Y7058D01*
X-57342Y7258D01*
G75*
D01*
G02X-57401Y7400I142J142*
G01*
X-57401Y7400D01*
X-57401Y9161D01*
G75*
D01*
G02X-57419Y9232I133J71*
G01*
X-57419Y9232D01*
X-57419Y9799D01*
X-57800Y9799D01*
G75*
D01*
G02X-57866Y9810I0J201*
G01*
G74*
D01*
G02X-57942Y9858I66J190*
G01*
X-57942Y9858D01*
X-58142Y10058D01*
G75*
D01*
G02X-58201Y10200I142J142*
G01*
X-58201Y10200D01*
X-58201Y18200D01*
G74*
D01*
G02X-58142Y18342I201J0*
G01*
X-58142Y18342D01*
X-57942Y18542D01*
G75*
D01*
G02X-57800Y18601I142J-142*
G01*
X-57800Y18601D01*
X-45083Y18601D01*
X-45001Y18683D01*
X-45001Y23200D01*
G74*
D01*
G02X-44942Y23342I201J0*
G01*
X-44942Y23342D01*
X-44742Y23542D01*
G75*
D01*
G02X-44600Y23601I142J-142*
G01*
X-44600Y23601D01*
X-33800Y23601D01*
G75*
D01*
G02X-33658Y23542I0J-201*
G01*
X-33658Y23542D01*
X-33458Y23342D01*
G75*
D01*
G02X-33399Y23200I-142J-142*
G01*
X-33399Y23200D01*
X-33399Y21228D01*
G74*
D01*
G02X-33371Y21306I199J28*
G01*
X-33371Y21306D01*
X-33371Y24735D01*
G75*
D01*
G02X-33220Y24886I151J0*
G01*
X-33220Y24886D01*
X-29653Y24886D01*
X-28762Y25776D01*
G75*
D01*
G02X-28585Y25850I177J-176*
G01*
X-28585Y25850D01*
X-22403Y25850D01*
X-22050Y26203D01*
X-22050Y26887D01*
G75*
D01*
G02X-21550Y26887I250J313*
G01*
X-21550Y26887D01*
X-21550Y26100D01*
G75*
D01*
G02X-21623Y25923I-250J0*
G01*
X-21623Y25923D01*
X-22123Y25423D01*
G75*
D01*
G02X-22300Y25350I-177J177*
G01*
X-22300Y25350D01*
X-28482Y25350D01*
X-29017Y24815D01*
G74*
D01*
G02X-28995Y24735I128J80*
G01*
X-28995Y24735D01*
X-28995Y21270D01*
G75*
D01*
G02X-29145Y21120I-150J0*
G01*
X-29145Y21120D01*
X-32781Y21120D01*
X-32843Y21058D01*
G74*
D01*
G02X-32923Y21009I142J142*
G01*
G75*
D01*
G02X-33399Y20516I-277J-209*
G01*
X-33399Y20516D01*
X-33399Y19683D01*
X-33317Y19601D01*
X-32800Y19601D01*
G75*
D01*
G02X-32775Y19599I0J-201*
G01*
G75*
D01*
G02X-32350Y19059I175J-299*
G01*
X-32350Y19059D01*
X-32350Y18350D01*
X-31786Y18350D01*
G74*
D01*
G02X-31635Y18200I0J150*
G01*
X-31635Y18200D01*
X-31635Y17806D01*
G75*
D01*
G02X-31786Y17655I-151J0*
G01*
X-31786Y17655D01*
X-33341Y17655D01*
G75*
D01*
G02X-33492Y17806I0J151*
G01*
X-33492Y17806D01*
X-33492Y18200D01*
G75*
D01*
G02X-33341Y18350I151J0*
G01*
X-33341Y18350D01*
X-32850Y18350D01*
X-32850Y19059D01*
G74*
D01*
G02X-32932Y19199I250J241*
G01*
X-32932Y19199D01*
X-33400Y19199D01*
G75*
D01*
G02X-33542Y19258I0J201*
G01*
X-33542Y19258D01*
X-33742Y19458D01*
G75*
D01*
G02X-33801Y19600I142J142*
G01*
X-33801Y19600D01*
X-33801Y23117D01*
X-33883Y23199D01*
X-35958Y23199D01*
G75*
D01*
G02X-36442Y23199I-242J-399*
G01*
X-36442Y23199D01*
X-36958Y23199D01*
G75*
D01*
G02X-36999Y22379I-242J-399*
G01*
X-36999Y22379D01*
X-36999Y17109D01*
G75*
D01*
G02X-37058Y16966I-201J-1*
G01*
X-37058Y16966D01*
X-37353Y16671D01*
X-37353Y16458D01*
G75*
D01*
G02X-37587Y16224I-234J0*
G01*
X-37587Y16224D01*
X-37696Y16224D01*
G75*
D01*
G02X-37808Y16252I0J234*
G01*
X-37808Y16252D01*
X-37908Y16151D01*
X-37908Y15312D01*
G74*
D01*
G02X-37845Y15189I88J123*
G01*
X-37845Y15189D01*
X-37845Y14638D01*
G75*
D01*
G02X-37845Y14629I-151J0*
G01*
X-37845Y14629D01*
X-37802Y14587D01*
G75*
D01*
G02X-37812Y14638I141J51*
G01*
X-37812Y14638D01*
X-37812Y15189D01*
G74*
D01*
G02X-37743Y15316I151J0*
G01*
X-37743Y15316D01*
X-37743Y15340D01*
X-37740Y15340D01*
G74*
D01*
G02X-37700Y15335I0J151*
G01*
G75*
D01*
G02X-37661Y15340I39J-146*
G01*
X-37661Y15340D01*
X-37484Y15340D01*
G74*
D01*
G02X-37344Y15246I0J151*
G01*
G75*
D01*
G02X-36664Y15115I344J-46*
G01*
X-36664Y15115D01*
X-34414Y15115D01*
G74*
D01*
G02X-34331Y15097I0J201*
G01*
G74*
D01*
G02X-34272Y15056I83J183*
G01*
X-34272Y15056D01*
X-32217Y13001D01*
X-31358Y13001D01*
X-30999Y13360D01*
X-31076Y13360D01*
G75*
D01*
G02X-31307Y13553I0J234*
G01*
X-31307Y13553D01*
X-32103Y13553D01*
G75*
D01*
G02X-32280Y13627I0J250*
G01*
X-32280Y13627D01*
X-32740Y14087D01*
G75*
D01*
G02X-32813Y14264I176J177*
G01*
X-32813Y14264D01*
X-32813Y15655D01*
X-33341Y15655D01*
G75*
D01*
G02X-33492Y15806I0J151*
G01*
X-33492Y15806D01*
X-33492Y16200D01*
G75*
D01*
G02X-33341Y16350I151J0*
G01*
X-33341Y16350D01*
X-31786Y16350D01*
G74*
D01*
G02X-31635Y16200I0J150*
G01*
X-31635Y16200D01*
X-31635Y15806D01*
G75*
D01*
G02X-31786Y15655I-151J0*
G01*
X-31786Y15655D01*
X-32165Y15655D01*
G75*
D01*
G02X-32314Y15064I-235J-255*
G01*
X-32314Y15064D01*
X-32314Y14367D01*
X-31999Y14052D01*
X-31307Y14052D01*
G75*
D01*
G02X-31076Y14246I231J-41*
G01*
X-31076Y14246D01*
X-30968Y14246D01*
G74*
D01*
G02X-30734Y14011I0J235*
G01*
X-30734Y14011D01*
X-30734Y13626D01*
X-30561Y13798D01*
X-30561Y14011D01*
G75*
D01*
G02X-30326Y14246I235J0*
G01*
X-30326Y14246D01*
X-30218Y14246D01*
G74*
D01*
G02X-29987Y14052I0J235*
G01*
X-29987Y14052D01*
X-28707Y14052D01*
G74*
D01*
G02X-28672Y14141I231J41*
G01*
X-28672Y14141D01*
X-28672Y15120D01*
X-30566Y15120D01*
G75*
D01*
G02X-30716Y15270I0J150*
G01*
X-30716Y15270D01*
X-30716Y18735D01*
G75*
D01*
G02X-30566Y18886I150J0*
G01*
X-30566Y18886D01*
X-26491Y18886D01*
G74*
D01*
G02X-26340Y18735I0J151*
G01*
X-26340Y18735D01*
X-26340Y15270D01*
G75*
D01*
G02X-26491Y15120I-151J0*
G01*
X-26491Y15120D01*
X-28173Y15120D01*
X-28173Y14141D01*
G74*
D01*
G02X-28134Y14011I195J130*
G01*
X-28134Y14011D01*
X-28134Y13594D01*
G75*
D01*
G02X-28368Y13360I-234J0*
G01*
X-28368Y13360D01*
X-28476Y13360D01*
G75*
D01*
G02X-28707Y13553I0J234*
G01*
X-28707Y13553D01*
X-29987Y13553D01*
G74*
D01*
G02X-30218Y13360I231J41*
G01*
X-30218Y13360D01*
X-30326Y13360D01*
G75*
D01*
G02X-30414Y13377I0J234*
G01*
X-30414Y13377D01*
X-31133Y12658D01*
G75*
D01*
G02X-31275Y12599I-142J142*
G01*
X-31275Y12599D01*
X-32300Y12599D01*
G75*
D01*
G02X-32385Y12618I0J201*
G01*
G74*
D01*
G02X-32442Y12658I85J182*
G01*
X-32442Y12658D01*
X-34497Y14713D01*
X-35388Y14713D01*
X-35617Y14564D01*
X-35845Y14713D01*
X-37333Y14713D01*
X-37333Y14638D01*
G75*
D01*
G02X-37484Y14488I-151J0*
G01*
X-37484Y14488D01*
X-37661Y14488D01*
G75*
D01*
G02X-37700Y14493I0J150*
G01*
X-37707Y14491D01*
X-37707Y14491D01*
X-36858Y13642D01*
G75*
D01*
G02X-36799Y13499I-142J-142*
G01*
X-36799Y13499D01*
X-36799Y13283D01*
G75*
D01*
G02X-37333Y12903I-201J-283*
G01*
G74*
D01*
G02X-37484Y12755I151J3*
G01*
X-37484Y12755D01*
X-37652Y12755D01*
X-37652Y12501D01*
X-37569Y12418D01*
X-36331Y12418D01*
X-35793Y12956D01*
X-35793Y13403D01*
X-35825Y13403D01*
G75*
D01*
G02X-36059Y13637I0J234*
G01*
X-36059Y13637D01*
X-36059Y13746D01*
G75*
D01*
G02X-35825Y13980I234J0*
G01*
X-35825Y13980D01*
X-35408Y13980D01*
G74*
D01*
G02X-35174Y13746I0J234*
G01*
X-35174Y13746D01*
X-35174Y13637D01*
G75*
D01*
G02X-35408Y13403I-234J0*
G01*
X-35408Y13403D01*
X-35441Y13403D01*
X-35441Y12884D01*
G75*
D01*
G02X-35492Y12759I-176J-1*
G01*
X-35492Y12759D01*
X-36134Y12117D01*
G75*
D01*
G02X-36259Y12066I-124J125*
G01*
X-36259Y12066D01*
X-37466Y12066D01*
X-37466Y11675D01*
G74*
D01*
G02X-37353Y11475I121J200*
G01*
X-37353Y11475D01*
X-37353Y11058D01*
G75*
D01*
G02X-37587Y10824I-234J0*
G01*
X-37587Y10824D01*
X-37696Y10824D01*
G75*
D01*
G02X-37930Y11058I0J234*
G01*
X-37930Y11058D01*
X-37930Y11475D01*
G74*
D01*
G02X-37818Y11675I234J0*
G01*
X-37818Y11675D01*
X-37818Y12169D01*
X-37950Y12302D01*
G74*
D01*
G02X-37960Y12292I134J114*
G01*
X-37960Y12292D01*
X-38224Y12027D01*
X-38224Y11680D01*
G74*
D01*
G02X-38103Y11475I113J205*
G01*
X-38103Y11475D01*
X-38103Y11058D01*
G75*
D01*
G02X-38191Y10875I-234J0*
G01*
X-38191Y10875D01*
X-38191Y9959D01*
G75*
D01*
G02X-38250Y9816I-201J-1*
G01*
X-38250Y9816D01*
X-38768Y9298D01*
X-38768Y9298D01*
X-41353Y6713D01*
G75*
D01*
G02X-41637Y6997I-647J-363*
G01*
X-41637Y6997D01*
X-39336Y9298D01*
X-39336Y9298D01*
X-38593Y10042D01*
X-38593Y10875D01*
G75*
D01*
G02X-38680Y11058I147J183*
G01*
X-38680Y11058D01*
X-38680Y11475D01*
G74*
D01*
G02X-38576Y11670I234J0*
G01*
X-38576Y11670D01*
X-38576Y12100D01*
G74*
D01*
G02X-38524Y12225I176J0*
G01*
X-38524Y12225D01*
X-38260Y12489D01*
X-38260Y12755D01*
X-38429Y12755D01*
G75*
D01*
G02X-38579Y12906I0J151*
G01*
X-38579Y12906D01*
X-38579Y12936D01*
X-38658Y12858D01*
G75*
D01*
G02X-38942Y13142I-342J-58*
G01*
X-38942Y13142D01*
X-38761Y13323D01*
G75*
D01*
G02X-38618Y13383I143J-141*
G01*
X-38618Y13383D01*
X-38579Y13383D01*
X-38579Y13457D01*
G75*
D01*
G02X-38429Y13608I150J0*
G01*
X-38429Y13608D01*
X-38251Y13608D01*
G74*
D01*
G02X-38212Y13603I0J151*
G01*
G75*
D01*
G02X-38173Y13608I39J-146*
G01*
X-38173Y13608D01*
X-37996Y13608D01*
G74*
D01*
G02X-37956Y13603I0J151*
G01*
G75*
D01*
G02X-37917Y13608I39J-146*
G01*
X-37917Y13608D01*
X-37757Y13608D01*
X-37873Y13724D01*
X-39500Y13724D01*
G75*
D01*
G02X-39625Y13776I0J176*
G01*
X-39625Y13776D01*
X-40324Y14475D01*
G75*
D01*
G02X-40376Y14600I124J125*
G01*
X-40376Y14600D01*
X-40376Y14935D01*
G74*
D01*
G02X-40399Y14917I224J265*
G01*
X-40399Y14917D01*
X-40399Y12600D01*
G75*
D01*
G02X-40458Y12458I-201J0*
G01*
X-40458Y12458D01*
X-40658Y12258D01*
G75*
D01*
G02X-40800Y12199I-142J142*
G01*
X-40800Y12199D01*
X-45600Y12199D01*
G75*
D01*
G02X-45742Y12258I0J201*
G01*
X-45742Y12258D01*
X-45796Y12312D01*
X-45942Y12458D01*
G75*
D01*
G02X-46001Y12600I142J142*
G01*
X-46001Y12600D01*
X-46001Y13550D01*
G75*
D01*
G02X-46124Y13699I28J149*
G01*
X-46124Y13699D01*
X-46124Y14309D01*
G75*
D01*
G02X-45973Y14460I151J0*
G01*
X-45973Y14460D01*
X-45737Y14460D01*
G74*
D01*
G02X-45605Y14382I0J151*
G01*
G75*
D01*
G02X-45473Y14460I132J-73*
G01*
X-45473Y14460D01*
X-45237Y14460D01*
G74*
D01*
G02X-45105Y14382I0J151*
G01*
G75*
D01*
G02X-44973Y14460I132J-73*
G01*
X-44973Y14460D01*
X-44951Y14460D01*
X-44951Y14099D01*
X-45086Y14099D01*
X-45086Y13908D01*
X-44951Y13908D01*
X-44951Y13548D01*
X-44973Y13548D01*
G75*
D01*
G02X-45105Y13626I0J151*
G01*
G74*
D01*
G02X-45154Y13573I132J73*
G01*
X-45154Y13573D01*
X-45154Y13538D01*
X-44683Y13068D01*
X-43080Y13068D01*
X-43080Y13075D01*
G74*
D01*
G02X-42993Y13258I234J0*
G01*
X-42993Y13258D01*
X-42993Y14403D01*
X-43025Y14403D01*
G75*
D01*
G02X-43259Y14637I0J234*
G01*
X-43259Y14637D01*
X-43259Y14746D01*
G75*
D01*
G02X-43025Y14980I234J0*
G01*
X-43025Y14980D01*
X-42608Y14980D01*
G74*
D01*
G02X-42374Y14746I0J234*
G01*
X-42374Y14746D01*
X-42374Y14637D01*
G75*
D01*
G02X-42591Y14404I-234J0*
G01*
X-42591Y14404D01*
X-42591Y13258D01*
G74*
D01*
G02X-42503Y13075I146J183*
G01*
X-42503Y13075D01*
X-42503Y12658D01*
G75*
D01*
G02X-42510Y12601I-234J0*
G01*
X-42510Y12601D01*
X-42323Y12601D01*
G75*
D01*
G02X-42330Y12658I227J57*
G01*
X-42330Y12658D01*
X-42330Y13075D01*
G75*
D01*
G02X-42096Y13309I234J0*
G01*
X-42096Y13309D01*
X-41987Y13309D01*
G74*
D01*
G02X-41753Y13075I0J234*
G01*
X-41753Y13075D01*
X-41753Y13001D01*
X-41683Y13001D01*
G75*
D01*
G02X-41116Y12601I283J-201*
G01*
X-41116Y12601D01*
X-40883Y12601D01*
X-40801Y12683D01*
X-40801Y14917D01*
G75*
D01*
G02X-40376Y15465I201J283*
G01*
X-40376Y15465D01*
X-40376Y16775D01*
G74*
D01*
G02X-40324Y16900I176J0*
G01*
X-40324Y16900D01*
X-40015Y17209D01*
G75*
D01*
G02X-40043Y17321I207J112*
G01*
X-40043Y17321D01*
X-40043Y17429D01*
G75*
D01*
G02X-39808Y17664I235J0*
G01*
X-39808Y17664D01*
X-39560Y17664D01*
X-39201Y18023D01*
X-39201Y18191D01*
G75*
D01*
G02X-39314Y18392I122J201*
G01*
X-39314Y18392D01*
X-39314Y18808D01*
G75*
D01*
G02X-39079Y19043I235J0*
G01*
X-39079Y19043D01*
X-39033Y19043D01*
X-38653Y19423D01*
X-38653Y19659D01*
G74*
D01*
G02X-38556Y19800I151J0*
G01*
G75*
D01*
G02X-38653Y19941I54J141*
G01*
X-38653Y19941D01*
X-38653Y20354D01*
G75*
D01*
G02X-38502Y20505I151J0*
G01*
X-38502Y20505D01*
X-38246Y20505D01*
G74*
D01*
G02X-38095Y20354I0J151*
G01*
X-38095Y20354D01*
X-38095Y19941D01*
G75*
D01*
G02X-38192Y19800I-151J0*
G01*
G74*
D01*
G02X-38095Y19659I54J141*
G01*
X-38095Y19659D01*
X-38095Y19246D01*
G75*
D01*
G02X-38246Y19095I-151J0*
G01*
X-38246Y19095D01*
X-38483Y19095D01*
X-38738Y18840D01*
G74*
D01*
G02X-38736Y18808I233J32*
G01*
D02*
G37*
G36*
X-22808Y10136D02*
G75*
D01*
G02X-23043Y10371I0J235*
G01*
X-23043Y10371D01*
X-23043Y10479D01*
G75*
D01*
G02X-22808Y10714I235J0*
G01*
X-22808Y10714D01*
X-22392Y10714D01*
G74*
D01*
G02X-22157Y10479I0J235*
G01*
X-22157Y10479D01*
X-22157Y10371D01*
G75*
D01*
G02X-22392Y10136I-235J0*
G01*
X-22392Y10136D01*
X-22399Y10136D01*
X-22399Y7064D01*
G75*
D01*
G02X-22801Y7064I-201J-714*
G01*
X-22801Y7064D01*
X-22801Y10136D01*
X-22808Y10136D01*
D02*
G37*
G36*
X-26370Y24350D02*
G74*
D01*
G02X-26219Y24200I0J150*
G01*
X-26219Y24200D01*
X-26219Y23806D01*
G75*
D01*
G02X-26370Y23655I-151J0*
G01*
X-26370Y23655D01*
X-26447Y23655D01*
X-26419Y23627D01*
X-25385Y23627D01*
G75*
D01*
G02X-25256Y23666I129J-195*
G01*
X-25256Y23666D01*
X-25112Y23666D01*
X-25002Y23776D01*
G75*
D01*
G02X-24825Y23850I177J-176*
G01*
X-24825Y23850D01*
X-22701Y23850D01*
G75*
D01*
G02X-22006Y23075I501J-250*
G01*
X-22006Y23075D01*
X-22200Y22881D01*
X-22394Y23075D01*
G74*
D01*
G02X-22701Y23350I194J525*
G01*
X-22701Y23350D01*
X-24604Y23350D01*
X-24604Y23324D01*
G75*
D01*
G02X-24839Y23089I-235J0*
G01*
X-24839Y23089D01*
X-25256Y23089D01*
G75*
D01*
G02X-25385Y23128I0J235*
G01*
X-25385Y23128D01*
X-26522Y23128D01*
G75*
D01*
G02X-26699Y23202I0J250*
G01*
X-26699Y23202D01*
X-26898Y23401D01*
X-27153Y23655D01*
X-27925Y23655D01*
G75*
D01*
G02X-28076Y23806I0J151*
G01*
X-28076Y23806D01*
X-28076Y24200D01*
G75*
D01*
G02X-27925Y24350I151J0*
G01*
X-27925Y24350D01*
X-26370Y24350D01*
D02*
G37*
G36*
X-26370Y22350D02*
G74*
D01*
G02X-26228Y22252I0J150*
G01*
X-26228Y22252D01*
X-25776Y22252D01*
X-25488Y22540D01*
G75*
D01*
G02X-25490Y22574I232J34*
G01*
X-25490Y22574D01*
X-25490Y22682D01*
G75*
D01*
G02X-25256Y22916I234J0*
G01*
X-25256Y22916D01*
X-24839Y22916D01*
G74*
D01*
G02X-24604Y22682I0J234*
G01*
X-24604Y22682D01*
X-24604Y22574D01*
G75*
D01*
G02X-24839Y22339I-235J0*
G01*
X-24839Y22339D01*
X-24983Y22339D01*
X-25496Y21826D01*
G74*
D01*
G02X-25670Y21753I176J177*
G01*
X-25672Y21753D01*
X-25672Y21753D01*
X-26228Y21753D01*
G74*
D01*
G02X-26370Y21655I142J53*
G01*
X-26370Y21655D01*
X-27043Y21655D01*
X-27043Y20583D01*
G74*
D01*
G02X-27004Y20454I195J129*
G01*
X-27004Y20454D01*
X-27004Y20037D01*
G75*
D01*
G02X-27238Y19803I-234J0*
G01*
X-27238Y19803D01*
X-27347Y19803D01*
G75*
D01*
G02X-27581Y20037I0J234*
G01*
X-27581Y20037D01*
X-27581Y20099D01*
X-27917Y20099D01*
G75*
D01*
G02X-27917Y20501I-283J201*
G01*
X-27917Y20501D01*
X-27577Y20501D01*
G74*
D01*
G02X-27542Y20583I230J47*
G01*
X-27542Y20583D01*
X-27542Y21655D01*
X-27925Y21655D01*
G75*
D01*
G02X-28076Y21806I0J151*
G01*
X-28076Y21806D01*
X-28076Y22200D01*
G75*
D01*
G02X-27925Y22350I151J0*
G01*
X-27925Y22350D01*
X-26370Y22350D01*
D02*
G37*
G36*
X-45796Y1985D02*
G75*
D01*
G02X-45796Y1985I371J857*
G01*
D02*
G37*
G36*
X-55245Y1911D02*
G75*
D01*
G02X-55245Y1911I70J931*
G01*
D02*
G37*
G36*
X-19344Y28196D02*
G75*
D01*
G02X-19344Y28196I644J404*
G01*
D02*
G37*
G36*
X-60840Y28196D02*
G75*
D01*
G02X-60840Y28196I-760J4*
G01*
D02*
G37*
G36*
X-36347Y25413D02*
G75*
D01*
G02X-36347Y25413I922J145*
G01*
D02*
G37*
G36*
X-57842Y18747D02*
G75*
D01*
G02X-57842Y18747I-558J253*
G01*
D02*
G37*
G36*
X-45796Y25114D02*
G75*
D01*
G02X-45796Y25114I821J444*
G01*
D02*
G37*
G36*
X-56179Y7777D02*
G74*
D01*
G02X-56157Y7679I213J98*
G01*
X-56157Y7679D01*
X-56157Y7571D01*
G75*
D01*
G02X-56179Y7473I-235J0*
G01*
X-56179Y7473D01*
X-56413Y7625D01*
X-56179Y7777D01*
D02*
G37*
G36*
X-56850Y7910D02*
G75*
D01*
G02X-56808Y7914I42J-231*
G01*
X-56808Y7914D01*
X-56392Y7914D01*
G74*
D01*
G02X-56350Y7910I0J235*
G01*
X-56350Y7910D01*
X-56600Y7747D01*
X-56850Y7910D01*
D02*
G37*
G36*
X-37482Y18000D02*
G75*
D01*
G02X-37482Y18000I-118J0*
G01*
D02*
G37*
G36*
X-37924Y17877D02*
X-37924Y17877D01*
X-37723Y17877D01*
X-37723Y17676D01*
G74*
D01*
G02X-37924Y17877I123J324*
G01*
D02*
G37*
G36*
X-38250Y17525D02*
G75*
D01*
G02X-38250Y17277I-124J-124*
G01*
X-38250Y17277D01*
X-38276Y17251D01*
G75*
D01*
G02X-38524Y17251I-124J124*
G01*
G75*
D01*
G02X-38524Y17499I124J124*
G01*
X-38524Y17499D01*
X-38498Y17525D01*
G75*
D01*
G02X-38250Y17525I124J-124*
G01*
D02*
G37*
G36*
X-52621Y7777D02*
X-52621Y7777D01*
X-52387Y7625D01*
X-52621Y7473D01*
G75*
D01*
G02X-52643Y7571I213J98*
G01*
X-52643Y7571D01*
X-52643Y7679D01*
G74*
D01*
G02X-52621Y7777I235J0*
G01*
D02*
G37*
G36*
X-47733Y5600D02*
G75*
D01*
G02X-47733Y5600I-467J0*
G01*
D02*
G37*
G36*
X-47058Y6642D02*
G75*
D01*
G02X-46999Y6500I-142J-142*
G01*
X-46999Y6500D01*
X-46999Y6021D01*
G75*
D01*
G02X-47401Y6021I-201J-421*
G01*
X-47401Y6021D01*
X-47401Y6417D01*
X-47542Y6558D01*
G75*
D01*
G02X-47601Y6700I142J142*
G01*
X-47601Y6700D01*
X-47601Y7336D01*
X-47608Y7336D01*
G75*
D01*
G02X-47843Y7571I0J235*
G01*
X-47843Y7571D01*
X-47843Y7679D01*
G75*
D01*
G02X-47608Y7914I235J0*
G01*
X-47608Y7914D01*
X-47192Y7914D01*
G74*
D01*
G02X-46957Y7679I0J235*
G01*
X-46957Y7679D01*
X-46957Y7571D01*
G75*
D01*
G02X-47192Y7336I-235J0*
G01*
X-47192Y7336D01*
X-47199Y7336D01*
X-47199Y6783D01*
X-47058Y6642D01*
D02*
G37*
G36*
X-57031Y17140D02*
X-57031Y17140D01*
X-57260Y17140D01*
X-57260Y17369D01*
G74*
D01*
G02X-57031Y17140I140J369*
G01*
D02*
G37*
G36*
X-57225Y17000D02*
G75*
D01*
G02X-57225Y17000I-175J0*
G01*
D02*
G37*
G36*
X-57260Y16631D02*
X-57260Y16631D01*
X-57260Y16860D01*
X-57031Y16860D01*
G74*
D01*
G02X-57260Y16631I369J140*
G01*
D02*
G37*
G36*
X-57540Y17369D02*
X-57540Y17369D01*
X-57540Y17140D01*
X-57769Y17140D01*
G74*
D01*
G02X-57540Y17369I369J140*
G01*
D02*
G37*
G36*
X-57769Y16860D02*
X-57769Y16860D01*
X-57540Y16860D01*
X-57540Y16631D01*
G74*
D01*
G02X-57769Y16860I140J369*
G01*
D02*
G37*
G36*
X-39728Y20695D02*
G75*
D01*
G02X-39879Y20846I0J151*
G01*
X-39879Y20846D01*
X-39879Y20954D01*
X-39699Y20954D01*
X-39699Y20695D01*
X-39728Y20695D01*
D02*
G37*
G36*
X-39728Y21410D02*
X-39728Y21410D01*
X-39699Y21410D01*
X-39699Y21152D01*
X-39879Y21152D01*
X-39879Y21259D01*
G75*
D01*
G02X-39728Y21410I151J0*
G01*
D02*
G37*
G36*
X-39472Y21410D02*
G74*
D01*
G02X-39321Y21259I0J151*
G01*
X-39321Y21259D01*
X-39321Y21152D01*
X-39501Y21152D01*
X-39501Y21410D01*
X-39472Y21410D01*
D02*
G37*
G36*
X-39321Y20846D02*
G75*
D01*
G02X-39472Y20695I-151J0*
G01*
X-39472Y20695D01*
X-39501Y20695D01*
X-39501Y20954D01*
X-39321Y20954D01*
X-39321Y20846D01*
D02*
G37*
G36*
X-38128Y21410D02*
X-38128Y21410D01*
X-37872Y21410D01*
G74*
D01*
G02X-37721Y21259I0J151*
G01*
X-37721Y21259D01*
X-37721Y20846D01*
G75*
D01*
G02X-37872Y20695I-151J0*
G01*
X-37872Y20695D01*
X-38128Y20695D01*
G75*
D01*
G02X-38279Y20846I0J151*
G01*
X-38279Y20846D01*
X-38279Y21259D01*
G75*
D01*
G02X-38128Y21410I151J0*
G01*
D02*
G37*
G36*
X-37905Y19659D02*
G74*
D01*
G02X-37808Y19800I151J0*
G01*
G75*
D01*
G02X-37905Y19941I54J141*
G01*
X-37905Y19941D01*
X-37905Y20048D01*
X-37725Y20048D01*
X-37725Y19552D01*
X-37905Y19552D01*
X-37905Y19659D01*
D02*
G37*
G36*
X-37905Y20354D02*
G75*
D01*
G02X-37754Y20505I151J0*
G01*
X-37754Y20505D01*
X-37725Y20505D01*
X-37725Y20246D01*
X-37905Y20246D01*
X-37905Y20354D01*
D02*
G37*
G36*
X-37754Y19095D02*
G75*
D01*
G02X-37905Y19246I0J151*
G01*
X-37905Y19246D01*
X-37905Y19354D01*
X-37725Y19354D01*
X-37725Y19095D01*
X-37754Y19095D01*
D02*
G37*
G36*
X-44737Y13548D02*
X-44737Y13548D01*
X-44760Y13548D01*
X-44760Y13908D01*
X-44624Y13908D01*
X-44624Y14099D01*
X-44760Y14099D01*
X-44760Y14460D01*
X-44737Y14460D01*
G74*
D01*
G02X-44605Y14382I0J151*
G01*
G75*
D01*
G02X-44473Y14460I132J-73*
G01*
X-44473Y14460D01*
X-44237Y14460D01*
G74*
D01*
G02X-44086Y14309I0J151*
G01*
X-44086Y14309D01*
X-44086Y13699D01*
G75*
D01*
G02X-44237Y13548I-151J0*
G01*
X-44237Y13548D01*
X-44473Y13548D01*
G75*
D01*
G02X-44605Y13626I0J151*
G01*
G74*
D01*
G02X-44737Y13548I132J73*
G01*
D02*
G37*
G36*
X-44237Y16586D02*
G74*
D01*
G02X-44086Y16435I0J151*
G01*
X-44086Y16435D01*
X-44086Y16225D01*
X-44260Y16225D01*
X-44260Y16586D01*
X-44237Y16586D01*
D02*
G37*
G36*
X-44086Y15825D02*
G75*
D01*
G02X-44237Y15674I-151J0*
G01*
X-44237Y15674D01*
X-44260Y15674D01*
X-44260Y16034D01*
X-44086Y16034D01*
X-44086Y15825D01*
D02*
G37*
G36*
X-27520Y13382D02*
G74*
D01*
G02X-27618Y13360I98J212*
G01*
X-27618Y13360D01*
X-27726Y13360D01*
G75*
D01*
G02X-27825Y13382I0J234*
G01*
X-27825Y13382D01*
X-27672Y13615D01*
X-27520Y13382D01*
D02*
G37*
G36*
X-36038Y14594D02*
X-36038Y14594D01*
X-35804Y14442D01*
X-36038Y14289D01*
G75*
D01*
G02X-36059Y14387I213J98*
G01*
X-36059Y14387D01*
X-36059Y14496D01*
G74*
D01*
G02X-36038Y14594I234J0*
G01*
D02*
G37*
G36*
X-35195Y14594D02*
G74*
D01*
G02X-35174Y14496I213J98*
G01*
X-35174Y14496D01*
X-35174Y14387D01*
G75*
D01*
G02X-35195Y14289I-234J0*
G01*
X-35195Y14289D01*
X-35429Y14442D01*
X-35195Y14594D01*
D02*
G37*
G36*
X-27520Y14224D02*
X-27520Y14224D01*
X-27672Y13990D01*
X-27825Y14224D01*
G75*
D01*
G02X-27726Y14246I99J-213*
G01*
X-27726Y14246D01*
X-27618Y14246D01*
G74*
D01*
G02X-27520Y14224I0J235*
G01*
D02*
G37*
G36*
X-27387Y14053D02*
G74*
D01*
G02X-27384Y14011I231J42*
G01*
X-27384Y14011D01*
X-27384Y13594D01*
G75*
D01*
G02X-27387Y13553I-234J0*
G01*
X-27387Y13553D01*
X-27550Y13803D01*
X-27387Y14053D01*
D02*
G37*
G36*
X-27957Y13553D02*
G75*
D01*
G02X-27961Y13594I231J41*
G01*
X-27961Y13594D01*
X-27961Y14011D01*
G74*
D01*
G02X-27957Y14053I235J0*
G01*
X-27957Y14053D01*
X-27794Y13803D01*
X-27957Y13553D01*
D02*
G37*
G36*
X-35367Y14157D02*
G74*
D01*
G02X-35408Y14153I41J230*
G01*
X-35408Y14153D01*
X-35825Y14153D01*
G75*
D01*
G02X-35866Y14157I0J234*
G01*
X-35866Y14157D01*
X-35617Y14319D01*
X-35367Y14157D01*
D02*
G37*
G36*
X-60740Y1400D02*
G75*
D01*
G02X-60740Y1400I-760J0*
G01*
D02*
G37*
G36*
X-51933Y5600D02*
G75*
D01*
G02X-51933Y5600I-467J0*
G01*
D02*
G37*
G36*
X-50692Y2842D02*
G75*
D01*
G02X-50692Y2842I-933J0*
G01*
D02*
G37*
G36*
X-48042Y2842D02*
G75*
D01*
G02X-48042Y2842I-933J0*
G01*
D02*
G37*
G36*
X-17940Y1600D02*
G75*
D01*
G02X-17940Y1600I-760J0*
G01*
D02*
G37*
G36*
X-21858Y3200D02*
G75*
D01*
G02X-21858Y3200I-742J0*
G01*
D02*
G37*
G36*
X-53787Y15000D02*
G75*
D01*
G02X-53787Y15000I-613J0*
G01*
D02*
G37*
G36*
X-49464Y12992D02*
X-49464Y12992D01*
X-49464Y12999D01*
X-50336Y12999D01*
X-50336Y12992D01*
G75*
D01*
G02X-50571Y12757I-235J0*
G01*
X-50571Y12757D01*
X-50679Y12757D01*
G75*
D01*
G02X-50914Y12992I0J235*
G01*
X-50914Y12992D01*
X-50914Y13408D01*
G75*
D01*
G02X-50679Y13643I235J0*
G01*
X-50679Y13643D01*
X-50571Y13643D01*
G74*
D01*
G02X-50336Y13408I0J235*
G01*
X-50336Y13408D01*
X-50336Y13401D01*
X-49464Y13401D01*
X-49464Y13408D01*
G75*
D01*
G02X-49229Y13643I235J0*
G01*
X-49229Y13643D01*
X-49121Y13643D01*
G74*
D01*
G02X-48886Y13408I0J235*
G01*
X-48886Y13408D01*
X-48886Y12992D01*
G75*
D01*
G02X-48974Y12809I-235J0*
G01*
X-48974Y12809D01*
X-48974Y12226D01*
G75*
D01*
G02X-49033Y12083I-201J-1*
G01*
X-49033Y12083D01*
X-49599Y11517D01*
X-49599Y11264D01*
X-49592Y11264D01*
G74*
D01*
G02X-49357Y11029I0J235*
G01*
X-49357Y11029D01*
X-49357Y10921D01*
G75*
D01*
G02X-49592Y10686I-235J0*
G01*
X-49592Y10686D01*
X-50008Y10686D01*
G75*
D01*
G02X-50243Y10921I0J235*
G01*
X-50243Y10921D01*
X-50243Y11029D01*
G75*
D01*
G02X-50008Y11264I235J0*
G01*
X-50008Y11264D01*
X-50001Y11264D01*
X-50001Y11600D01*
G74*
D01*
G02X-49942Y11742I201J0*
G01*
X-49942Y11742D01*
X-49376Y12308D01*
X-49376Y12809D01*
G75*
D01*
G02X-49464Y12992I147J183*
G01*
D02*
G37*
G36*
X-29058Y3200D02*
G75*
D01*
G02X-29058Y3200I-742J0*
G01*
D02*
G37*
G36*
X-32658Y3200D02*
G75*
D01*
G02X-32658Y3200I-742J0*
G01*
D02*
G37*
G36*
X-37258Y3200D02*
G75*
D01*
G02X-37258Y3200I-742J0*
G01*
D02*
G37*
G36*
X-41258Y3200D02*
G75*
D01*
G02X-41258Y3200I-742J0*
G01*
D02*
G37*
G36*
X-37258Y4775D02*
G75*
D01*
G02X-37258Y4775I-742J0*
G01*
D02*
G37*
G36*
X-25523Y18324D02*
X-25523Y18324D01*
X-25523Y18123D01*
X-25724Y18123D01*
G74*
D01*
G02X-25523Y18324I324J123*
G01*
D02*
G37*
G36*
X-22006Y16325D02*
G75*
D01*
G02X-21948Y15300I-194J-525*
G01*
G75*
D01*
G02X-22452Y15300I-252J-500*
G01*
G74*
D01*
G02X-22701Y15550I252J500*
G01*
X-22701Y15550D01*
X-23559Y15550D01*
G75*
D01*
G02X-23559Y16050I-241J250*
G01*
X-23559Y16050D01*
X-22701Y16050D01*
G74*
D01*
G02X-22394Y16325I501J250*
G01*
X-22394Y16325D01*
X-22200Y16519D01*
X-22006Y16325D01*
D02*
G37*
G36*
X-21970Y17310D02*
X-21970Y17310D01*
X-22200Y17081D01*
X-22430Y17310D01*
G75*
D01*
G02X-21970Y17310I230J-510*
G01*
D02*
G37*
G36*
X-21967Y16800D02*
G75*
D01*
G02X-21967Y16800I-233J0*
G01*
D02*
G37*
G36*
X-21690Y17030D02*
G75*
D01*
G02X-21690Y16570I-510J-230*
G01*
X-21690Y16570D01*
X-21919Y16800D01*
X-21690Y17030D01*
D02*
G37*
G36*
X-22710Y17030D02*
X-22710Y17030D01*
X-22481Y16800D01*
X-22710Y16570D01*
G75*
D01*
G02X-22710Y17030I510J230*
G01*
D02*
G37*
G36*
X-25277Y17676D02*
X-25277Y17676D01*
X-25277Y17877D01*
X-25076Y17877D01*
G74*
D01*
G02X-25277Y17676I324J123*
G01*
D02*
G37*
G36*
X-25282Y18000D02*
G75*
D01*
G02X-25282Y18000I-118J0*
G01*
D02*
G37*
G36*
X-25724Y17877D02*
X-25724Y17877D01*
X-25523Y17877D01*
X-25523Y17676D01*
G74*
D01*
G02X-25724Y17877I123J324*
G01*
D02*
G37*
G36*
X-25076Y18123D02*
X-25076Y18123D01*
X-25277Y18123D01*
X-25277Y18324D01*
G74*
D01*
G02X-25076Y18123I123J324*
G01*
D02*
G37*
G36*
X-26828Y19996D02*
G75*
D01*
G02X-26831Y20037I231J41*
G01*
X-26831Y20037D01*
X-26831Y20454D01*
G74*
D01*
G02X-26828Y20495I234J0*
G01*
X-26828Y20495D01*
X-26665Y20245D01*
X-26828Y19996D01*
D02*
G37*
G36*
X-26258Y20495D02*
G74*
D01*
G02X-26254Y20454I230J41*
G01*
X-26254Y20454D01*
X-26254Y20037D01*
G75*
D01*
G02X-26258Y19996I-234J0*
G01*
X-26258Y19996D01*
X-26421Y20245D01*
X-26258Y20495D01*
D02*
G37*
G36*
X-26390Y20667D02*
X-26390Y20667D01*
X-26543Y20433D01*
X-26695Y20667D01*
G75*
D01*
G02X-26597Y20688I98J-213*
G01*
X-26597Y20688D01*
X-26488Y20688D01*
G74*
D01*
G02X-26390Y20667I0J234*
G01*
D02*
G37*
G36*
X-26390Y19824D02*
G74*
D01*
G02X-26488Y19803I98J213*
G01*
X-26488Y19803D01*
X-26597Y19803D01*
G75*
D01*
G02X-26695Y19824I0J234*
G01*
X-26695Y19824D01*
X-26543Y20058D01*
X-26390Y19824D01*
D02*
G37*
G36*
X-22006Y22125D02*
G75*
D01*
G02X-22394Y22125I-194J-525*
G01*
X-22394Y22125D01*
X-22200Y22319D01*
X-22006Y22125D01*
D02*
G37*
G36*
X-21967Y22600D02*
G75*
D01*
G02X-21967Y22600I-233J0*
G01*
D02*
G37*
G36*
X-21690Y22830D02*
G75*
D01*
G02X-21690Y22370I-510J-230*
G01*
X-21690Y22370D01*
X-21919Y22600D01*
X-21690Y22830D01*
D02*
G37*
G36*
X-22710Y22830D02*
X-22710Y22830D01*
X-22481Y22600D01*
X-22710Y22370D01*
G75*
D01*
G02X-22710Y22830I510J230*
G01*
D02*
G37*
G36*
X-22426Y27342D02*
X-22426Y27342D01*
X-22658Y27342D01*
X-22658Y27574D01*
G74*
D01*
G02X-22426Y27342I142J374*
G01*
D02*
G37*
G36*
X-22625Y27200D02*
G75*
D01*
G02X-22625Y27200I-175J0*
G01*
D02*
G37*
G36*
X-22658Y26826D02*
X-22658Y26826D01*
X-22658Y27058D01*
X-22426Y27058D01*
G74*
D01*
G02X-22658Y26826I374J142*
G01*
D02*
G37*
G36*
X-22942Y27574D02*
X-22942Y27574D01*
X-22942Y27342D01*
X-23174Y27342D01*
G74*
D01*
G02X-22942Y27574I374J142*
G01*
D02*
G37*
G36*
X-23400Y27200D02*
G75*
D01*
G02X-23400Y27200I-400J0*
G01*
D02*
G37*
G36*
X-23174Y27058D02*
X-23174Y27058D01*
X-22942Y27058D01*
X-22942Y26826D01*
G74*
D01*
G02X-23174Y27058I142J374*
G01*
D02*
G37*
G36*
X-40492Y25558D02*
G75*
D01*
G02X-40492Y25558I-933J0*
G01*
D02*
G37*
G36*
X-38042Y25558D02*
G75*
D01*
G02X-38042Y25558I-933J0*
G01*
D02*
G37*
%LPD*%
G36*
X-49626Y8233D02*
X-49626Y8233D01*
X-51083Y6776D01*
X-51469Y6776D01*
X-48947Y9298D01*
X-48947Y9298D01*
X-48619Y9626D01*
X-48619Y9232D01*
G75*
D01*
G03X-48468Y9081I151J0*
G01*
X-48468Y9081D01*
X-48403Y9081D01*
G75*
D01*
G03X-48465Y8576I203J-281*
G01*
X-48465Y8576D01*
X-48809Y8576D01*
G74*
D01*
G03X-48992Y8664I183J147*
G01*
X-48992Y8664D01*
X-49408Y8664D01*
G75*
D01*
G03X-49643Y8429I0J-235*
G01*
X-49643Y8429D01*
X-49643Y8321D01*
G75*
D01*
G03X-49626Y8233I235J0*
G01*
D02*
G37*
G36*
X-40742Y22942D02*
G75*
D01*
G02X-40600Y23001I142J-142*
G01*
X-40600Y23001D01*
X-38621Y23001D01*
G74*
D01*
G02X-38442Y23199I421J201*
G01*
X-38442Y23199D01*
X-41958Y23199D01*
G75*
D01*
G02X-42442Y23199I-242J-399*
G01*
X-42442Y23199D01*
X-42958Y23199D01*
G75*
D01*
G02X-42760Y22644I-242J-399*
G01*
X-42760Y22644D01*
X-42217Y22101D01*
X-41583Y22101D01*
X-40742Y22942D01*
D02*
G37*
G36*
X-39401Y14683D02*
X-39401Y14683D01*
X-39401Y15000D01*
G75*
D01*
G02X-39200Y15201I201J0*
G01*
X-39200Y15201D01*
X-38579Y15201D01*
G74*
D01*
G02X-38516Y15312I150J12*
G01*
X-38516Y15312D01*
X-38516Y16235D01*
G75*
D01*
G02X-38680Y16458I70J223*
G01*
X-38680Y16458D01*
X-38680Y16491D01*
X-39171Y16491D01*
G74*
D01*
G02X-39392Y16336I221J80*
G01*
X-39392Y16336D01*
X-39808Y16336D01*
G75*
D01*
G02X-40024Y16479I0J235*
G01*
X-40024Y16479D01*
X-40024Y14673D01*
X-39427Y14076D01*
X-39323Y14076D01*
G75*
D01*
G02X-39401Y14683I123J324*
G01*
D02*
G37*
G36*
X-45497Y13313D02*
G75*
D01*
G02X-45556Y13455I142J142*
G01*
X-45556Y13455D01*
X-45556Y13573D01*
G74*
D01*
G02X-45599Y13615I83J126*
G01*
X-45599Y13615D01*
X-45599Y12683D01*
X-45517Y12601D01*
X-43073Y12601D01*
G75*
D01*
G02X-43080Y12658I227J57*
G01*
X-43080Y12658D01*
X-43080Y12666D01*
X-44766Y12666D01*
G75*
D01*
G02X-44807Y12670I-1J201*
G01*
G74*
D01*
G02X-44909Y12725I40J197*
G01*
X-44909Y12725D01*
X-45497Y13313D01*
D02*
G37*
G36*
X-38999Y14683D02*
G75*
D01*
G02X-39077Y14076I-201J-283*
G01*
X-39077Y14076D01*
X-37860Y14076D01*
X-38226Y14442D01*
G74*
D01*
G02X-38260Y14488I142J142*
G01*
X-38260Y14488D01*
X-38429Y14488D01*
G75*
D01*
G02X-38579Y14638I0J150*
G01*
X-38579Y14638D01*
X-38579Y14799D01*
X-38999Y14799D01*
X-38999Y14683D01*
D02*
G37*
G36*
X-51938Y10722D02*
G75*
D01*
G02X-51801Y11083I338J78*
G01*
X-51801Y11083D01*
X-51801Y11206D01*
X-51807Y11207D01*
X-51807Y11207D01*
X-51868Y11207D01*
G75*
D01*
G02X-52000Y11285I0J151*
G01*
G74*
D01*
G02X-52049Y11232I132J73*
G01*
X-52049Y11232D01*
X-52049Y10833D01*
X-51938Y10722D01*
D02*
G37*
G36*
X-37396Y13580D02*
G74*
D01*
G02X-37333Y13457I88J123*
G01*
X-37333Y13457D01*
X-37333Y13097D01*
G74*
D01*
G02X-37201Y13283I333J97*
G01*
X-37201Y13283D01*
X-37201Y13417D01*
X-37396Y13612D01*
X-37396Y13580D01*
D02*
G37*
G36*
X-56851Y9106D02*
X-56851Y9106D01*
X-56851Y8660D01*
G74*
D01*
G03X-56999Y8566I43J231*
G01*
X-56999Y8566D01*
X-56999Y9085D01*
G74*
D01*
G03X-56900Y9159I33J147*
G01*
G74*
D01*
G03X-56851Y9106I132J73*
G01*
D02*
G37*
G36*
X-52451Y9106D02*
X-52451Y9106D01*
X-52451Y8660D01*
G74*
D01*
G03X-52487Y8650I43J231*
G01*
G75*
D01*
G03X-52599Y9083I-313J150*
G01*
X-52599Y9083D01*
X-52599Y9085D01*
G74*
D01*
G03X-52500Y9159I33J147*
G01*
G74*
D01*
G03X-52451Y9106I132J73*
G01*
D02*
G37*
G36*
X-44599Y23042D02*
G74*
D01*
G02X-44442Y23199I399J242*
G01*
X-44442Y23199D01*
X-44517Y23199D01*
X-44599Y23117D01*
X-44599Y23042D01*
D02*
G37*
G36*
X-47601Y11083D02*
G74*
D01*
G03X-47649Y11041I201J283*
G01*
X-47649Y11041D01*
X-47649Y11232D01*
G74*
D01*
G03X-47601Y11283I83J126*
G01*
X-47601Y11283D01*
X-47601Y11083D01*
D02*
G37*
G36*
X-37444Y19800D02*
G74*
D01*
G02X-37401Y19775I54J141*
G01*
X-37401Y19775D01*
X-37401Y19825D01*
G74*
D01*
G02X-37444Y19800I97J116*
G01*
D02*
G37*
G54D11*
X-29592Y10136D02*
X-29599Y10136D01*
X-29599Y7064D01*
G75*
D01*
G02X-30001Y7064I-201J-714*
G01*
X-30001Y10136D01*
X-30008Y10136D01*
G75*
D01*
G02X-30243Y10371I0J235*
G01*
X-30243Y10479D01*
G75*
D01*
G02X-30008Y10714I235J0*
G01*
X-29592Y10714D01*
G74*
D01*
G02X-29357Y10479I0J235*
G01*
X-29357Y10371D01*
G75*
D01*
G02X-29592Y10136I-235J0*
G01*
X-25999Y7064D02*
G75*
D01*
G02X-26401Y7064I-201J-714*
G01*
X-26401Y10136D01*
X-26408Y10136D01*
G75*
D01*
G02X-26643Y10371I0J235*
G01*
X-26643Y10479D01*
G75*
D01*
G02X-26408Y10714I235J0*
G01*
X-25992Y10714D01*
G74*
D01*
G02X-25757Y10479I0J235*
G01*
X-25757Y10371D01*
G75*
D01*
G02X-25992Y10136I-235J0*
G01*
X-25999Y10136D01*
X-25999Y7064D01*
X-25486Y4574D02*
G75*
D01*
G02X-26914Y4574I-714J201*
G01*
X-29086Y4574D01*
G75*
D01*
G02X-30514Y4574I-714J201*
G01*
X-32686Y4574D01*
G75*
D01*
G02X-32686Y4976I-714J201*
G01*
X-30514Y4976D01*
G75*
D01*
G02X-29086Y4976I714J-201*
G01*
X-26914Y4976D01*
G75*
D01*
G02X-25486Y4976I714J-201*
G01*
X-23314Y4976D01*
G75*
D01*
G02X-23314Y4574I714J-201*
G01*
X-25486Y4574D01*
X-26898Y2949D02*
G75*
D01*
G02X-26898Y2949I698J251*
G01*
X-33192Y10136D02*
X-33199Y10136D01*
X-33199Y7064D01*
G75*
D01*
G02X-33601Y7064I-201J-714*
G01*
X-33601Y10136D01*
X-33608Y10136D01*
G75*
D01*
G02X-33843Y10371I0J235*
G01*
X-33843Y10479D01*
G75*
D01*
G02X-33608Y10714I235J0*
G01*
X-33192Y10714D01*
G74*
D01*
G02X-32957Y10479I0J235*
G01*
X-32957Y10371D01*
G75*
D01*
G02X-33192Y10136I-235J0*
G01*
X-37353Y6713D02*
G75*
D01*
G02X-37637Y6997I-647J-363*
G01*
X-36347Y8287D01*
X-36347Y8287D01*
X-35336Y9298D01*
X-35336Y9298D01*
X-34301Y10333D01*
X-34301Y10968D01*
G75*
D01*
G02X-34062Y11376I-99J332*
G01*
X-33791Y11376D01*
G75*
D01*
G02X-33608Y11464I183J-147*
G01*
X-33192Y11464D01*
G74*
D01*
G02X-33009Y11376I0J235*
G01*
X-30191Y11376D01*
G75*
D01*
G02X-30008Y11464I183J-147*
G01*
X-29592Y11464D01*
G74*
D01*
G02X-29409Y11376I0J235*
G01*
X-26591Y11376D01*
G75*
D01*
G02X-26408Y11464I183J-147*
G01*
X-25992Y11464D01*
G74*
D01*
G02X-25809Y11376I0J235*
G01*
X-22991Y11376D01*
G75*
D01*
G02X-22808Y11464I183J-147*
G01*
X-22392Y11464D01*
G74*
D01*
G02X-22157Y11229I0J235*
G01*
X-22157Y11121D01*
G75*
D01*
G02X-22392Y10886I-235J0*
G01*
X-22808Y10886D01*
G75*
D01*
G02X-22991Y10974I0J235*
G01*
X-25809Y10974D01*
G74*
D01*
G02X-25992Y10886I183J147*
G01*
X-26408Y10886D01*
G75*
D01*
G02X-26591Y10974I0J235*
G01*
X-29409Y10974D01*
G74*
D01*
G02X-29592Y10886I183J147*
G01*
X-30008Y10886D01*
G75*
D01*
G02X-30191Y10974I0J235*
G01*
X-33009Y10974D01*
G74*
D01*
G02X-33192Y10886I183J147*
G01*
X-33608Y10886D01*
G75*
D01*
G02X-33791Y10974I0J235*
G01*
X-33899Y10974D01*
X-33899Y10250D01*
G75*
D01*
G02X-33958Y10108I-201J0*
G01*
X-34768Y9298D01*
X-34768Y9298D01*
X-36347Y7719D01*
X-36347Y7719D01*
X-37353Y6713D01*
X-45796Y5833D02*
G75*
D01*
G02X-45796Y5833I-404J-233*
G01*
X-54664Y13408D02*
G75*
D01*
G02X-54429Y13643I235J0*
G01*
X-54321Y13643D01*
G74*
D01*
G02X-54086Y13408I0J235*
G01*
X-54086Y13196D01*
X-54058Y13167D01*
G75*
D01*
G02X-53999Y13025I-142J-142*
G01*
X-53999Y11264D01*
X-53992Y11264D01*
G74*
D01*
G02X-53757Y11029I0J235*
G01*
X-53757Y10921D01*
G75*
D01*
G02X-53992Y10686I-235J0*
G01*
X-54408Y10686D01*
G75*
D01*
G02X-54643Y10921I0J235*
G01*
X-54643Y11029D01*
G75*
D01*
G02X-54408Y11264I235J0*
G01*
X-54401Y11264D01*
X-54401Y12757D01*
X-54429Y12757D01*
G75*
D01*
G02X-54664Y12992I0J235*
G01*
X-54664Y12999D01*
X-55336Y12999D01*
X-55336Y12992D01*
G75*
D01*
G02X-55571Y12757I-235J0*
G01*
X-55679Y12757D01*
G75*
D01*
G02X-55914Y12992I0J235*
G01*
X-55914Y13408D01*
G75*
D01*
G02X-55679Y13643I235J0*
G01*
X-55571Y13643D01*
G74*
D01*
G02X-55336Y13408I0J235*
G01*
X-55336Y13401D01*
X-54664Y13401D01*
X-54664Y13408D01*
X-45973Y15674D02*
G75*
D01*
G02X-46124Y15825I0J151*
G01*
X-46124Y16435D01*
G75*
D01*
G02X-45973Y16586I151J0*
G01*
X-45737Y16586D01*
G74*
D01*
G02X-45605Y16508I0J151*
G01*
G74*
D01*
G02X-45556Y16561I132J73*
G01*
X-45556Y17445D01*
G74*
D01*
G02X-45497Y17587I201J0*
G01*
X-44517Y18567D01*
G74*
D01*
G02X-44392Y18625I142J142*
G01*
G75*
D01*
G02X-44208Y18714I184J-146*
G01*
X-43792Y18714D01*
G74*
D01*
G02X-43557Y18479I0J235*
G01*
X-43557Y18371D01*
G75*
D01*
G02X-43792Y18136I-235J0*
G01*
X-44208Y18136D01*
G75*
D01*
G02X-44339Y18176I0J235*
G01*
X-45154Y17362D01*
X-45154Y16561D01*
G74*
D01*
G02X-45105Y16508I83J126*
G01*
G74*
D01*
G02X-45056Y16561I132J73*
G01*
X-45056Y16766D01*
G75*
D01*
G02X-44654Y16685I256J234*
G01*
X-44654Y16561D01*
G74*
D01*
G02X-44605Y16508I83J126*
G01*
G75*
D01*
G02X-44473Y16586I132J-73*
G01*
X-44451Y16586D01*
X-44451Y16225D01*
X-44586Y16225D01*
X-44586Y16034D01*
X-44451Y16034D01*
X-44451Y15674D01*
X-44473Y15674D01*
G75*
D01*
G02X-44605Y15752I0J151*
G01*
G74*
D01*
G02X-44737Y15674I132J73*
G01*
X-44973Y15674D01*
G75*
D01*
G02X-44991Y15675I0J151*
G01*
X-44958Y15643D01*
X-43848Y15643D01*
G75*
D01*
G02X-43352Y15643I248J-243*
G01*
X-43208Y15643D01*
G75*
D01*
G02X-43025Y15730I183J-147*
G01*
X-42608Y15730D01*
G74*
D01*
G02X-42374Y15496I0J234*
G01*
X-42374Y15387D01*
G75*
D01*
G02X-42608Y15153I-234J0*
G01*
X-43025Y15153D01*
G75*
D01*
G02X-43208Y15241I0J234*
G01*
X-43292Y15241D01*
G75*
D01*
G02X-43908Y15241I-308J159*
G01*
X-45042Y15241D01*
X-45046Y15241D01*
G74*
D01*
G02X-45184Y15300I4J201*
G01*
X-45497Y15613D01*
G74*
D01*
G02X-45546Y15693I142J142*
G01*
G74*
D01*
G02X-45605Y15752I73J132*
G01*
G74*
D01*
G02X-45737Y15674I132J73*
G01*
X-45973Y15674D01*
X-39486Y18392D02*
G75*
D01*
G02X-39721Y18157I-235J0*
G01*
X-39829Y18157D01*
G75*
D01*
G02X-40064Y18392I0J235*
G01*
X-40064Y18808D01*
G74*
D01*
G02X-39951Y19009I235J0*
G01*
X-39951Y19790D01*
X-40102Y19790D01*
G75*
D01*
G02X-40253Y19941I0J151*
G01*
X-40253Y20354D01*
G75*
D01*
G02X-40102Y20505I151J0*
G01*
X-39846Y20505D01*
G74*
D01*
G02X-39695Y20354I0J151*
G01*
X-39695Y20201D01*
X-39505Y20201D01*
X-39505Y20354D01*
G75*
D01*
G02X-39354Y20505I151J0*
G01*
X-39098Y20505D01*
G74*
D01*
G02X-38947Y20354I0J151*
G01*
X-38947Y19941D01*
G75*
D01*
G02X-39098Y19790I-151J0*
G01*
X-39354Y19790D01*
G75*
D01*
G02X-39406Y19799I0J151*
G01*
X-39599Y19799D01*
X-39599Y19009D01*
G74*
D01*
G02X-39486Y18808I122J201*
G01*
X-39486Y18392D01*
X-38279Y18754D02*
G75*
D01*
G02X-38128Y18905I151J0*
G01*
X-37872Y18905D01*
G74*
D01*
G02X-37721Y18754I0J151*
G01*
X-37721Y18341D01*
G75*
D01*
G02X-37723Y18318I-151J0*
G01*
X-37723Y18123D01*
X-37924Y18123D01*
G74*
D01*
G02X-37890Y18190I324J123*
G01*
X-38128Y18190D01*
G75*
D01*
G02X-38279Y18341I0J151*
G01*
X-38279Y18754D01*
X-38736Y18808D02*
X-38736Y18392D01*
G75*
D01*
G02X-38849Y18191I-235J0*
G01*
X-38849Y17950D01*
G75*
D01*
G02X-38901Y17826I-176J0*
G01*
X-39185Y17541D01*
G74*
D01*
G02X-39157Y17429I207J112*
G01*
X-39157Y17321D01*
G75*
D01*
G02X-39392Y17086I-235J0*
G01*
X-39640Y17086D01*
X-39813Y16914D01*
G75*
D01*
G02X-39808Y16914I5J-235*
G01*
X-39392Y16914D01*
G74*
D01*
G02X-39223Y16843I0J235*
G01*
X-38680Y16843D01*
X-38680Y16875D01*
G75*
D01*
G02X-38446Y17109I234J0*
G01*
X-38337Y17109D01*
G74*
D01*
G02X-38103Y16875I0J234*
G01*
X-38103Y16458D01*
X-38103Y16454D01*
X-37930Y16627D01*
X-37930Y16875D01*
G75*
D01*
G02X-37696Y17109I234J0*
G01*
X-37587Y17109D01*
G74*
D01*
G02X-37500Y17093I0J234*
G01*
X-37401Y17192D01*
X-37401Y17716D01*
G74*
D01*
G02X-37477Y17676I199J284*
G01*
X-37477Y17877D01*
X-37401Y17877D01*
X-37401Y18123D01*
X-37477Y18123D01*
X-37477Y18324D01*
G74*
D01*
G02X-37401Y18284I123J324*
G01*
X-37401Y19131D01*
G74*
D01*
G02X-37498Y19095I97J115*
G01*
X-37527Y19095D01*
X-37527Y19354D01*
X-37401Y19354D01*
X-37401Y19552D01*
X-37527Y19552D01*
X-37527Y20048D01*
X-37401Y20048D01*
X-37401Y20246D01*
X-37527Y20246D01*
X-37527Y20505D01*
X-37498Y20505D01*
G74*
D01*
G02X-37401Y20469I0J151*
G01*
X-37401Y22379D01*
G75*
D01*
G02X-37442Y23199I201J421*
G01*
X-37958Y23199D01*
G75*
D01*
G02X-38621Y22599I-242J-399*
G01*
X-40517Y22599D01*
X-41358Y21758D01*
G75*
D01*
G02X-41500Y21699I-142J142*
G01*
X-42300Y21699D01*
G75*
D01*
G02X-42442Y21758I0J201*
G01*
X-43044Y22360D01*
G75*
D01*
G02X-43442Y23199I-156J440*
G01*
X-43958Y23199D01*
G75*
D01*
G02X-43999Y22379I-242J-399*
G01*
X-43999Y19464D01*
X-43792Y19464D01*
G74*
D01*
G02X-43557Y19229I0J235*
G01*
X-43557Y19121D01*
G75*
D01*
G02X-43792Y18886I-235J0*
G01*
X-44208Y18886D01*
G75*
D01*
G02X-44443Y19121I0J235*
G01*
X-44443Y19229D01*
G74*
D01*
G02X-44401Y19363I235J0*
G01*
G75*
D01*
G02X-44401Y19375I201J12*
G01*
X-44401Y22379D01*
G74*
D01*
G02X-44599Y22558I201J421*
G01*
X-44599Y18600D01*
G75*
D01*
G02X-44658Y18458I-201J0*
G01*
X-44858Y18258D01*
G75*
D01*
G02X-45000Y18199I-142J142*
G01*
X-57717Y18199D01*
X-57799Y18117D01*
X-57799Y10283D01*
X-57717Y10201D01*
X-57200Y10201D01*
G74*
D01*
G02X-56999Y10000I0J201*
G01*
X-56999Y9989D01*
G74*
D01*
G02X-56900Y9915I33J147*
G01*
G75*
D01*
G02X-56768Y9993I132J-73*
G01*
X-56532Y9993D01*
G74*
D01*
G02X-56400Y9915I0J151*
G01*
G74*
D01*
G02X-56351Y9968I132J73*
G01*
X-56351Y10167D01*
X-56792Y10608D01*
G75*
D01*
G02X-56851Y10750I142J142*
G01*
X-56851Y11232D01*
G74*
D01*
G02X-56900Y11285I83J126*
G01*
G74*
D01*
G02X-57032Y11207I132J73*
G01*
X-57268Y11207D01*
G75*
D01*
G02X-57419Y11358I0J151*
G01*
X-57419Y11968D01*
G75*
D01*
G02X-57268Y12119I151J0*
G01*
X-57032Y12119D01*
G74*
D01*
G02X-56900Y12041I0J151*
G01*
G74*
D01*
G02X-56851Y12094I132J73*
G01*
X-56851Y12350D01*
G74*
D01*
G02X-56792Y12492I201J0*
G01*
X-56601Y12683D01*
X-56601Y12832D01*
G75*
D01*
G02X-56664Y12992I172J160*
G01*
X-56664Y13408D01*
G74*
D01*
G02X-56599Y13570I235J0*
G01*
G75*
D01*
G02X-56601Y13600I199J30*
G01*
X-56601Y16660D01*
G75*
D01*
G02X-56199Y16660I201J340*
G01*
X-56199Y13672D01*
G74*
D01*
G02X-56175Y13592I176J97*
G01*
G74*
D01*
G02X-56086Y13408I146J184*
G01*
X-56086Y12992D01*
G75*
D01*
G02X-56199Y12791I-235J0*
G01*
X-56199Y12600D01*
G75*
D01*
G02X-56258Y12458I-201J0*
G01*
X-56449Y12267D01*
X-56449Y12094D01*
G74*
D01*
G02X-56400Y12041I83J126*
G01*
G75*
D01*
G02X-56268Y12119I132J-73*
G01*
X-56032Y12119D01*
G74*
D01*
G02X-55900Y12041I0J151*
G01*
G75*
D01*
G02X-55768Y12119I132J-73*
G01*
X-55532Y12119D01*
G74*
D01*
G02X-55381Y11968I0J151*
G01*
X-55381Y11358D01*
G75*
D01*
G02X-55532Y11207I-151J0*
G01*
X-55768Y11207D01*
G75*
D01*
G02X-55900Y11285I0J151*
G01*
G74*
D01*
G02X-55999Y11211I132J73*
G01*
X-55999Y11083D01*
X-55917Y11001D01*
X-55883Y11001D01*
G75*
D01*
G02X-55883Y10599I283J-201*
G01*
X-56000Y10599D01*
G75*
D01*
G02X-56066Y10610I0J201*
G01*
G74*
D01*
G02X-56142Y10658I66J190*
G01*
X-56342Y10858D01*
G75*
D01*
G02X-56401Y11000I142J142*
G01*
X-56401Y11283D01*
G74*
D01*
G02X-56449Y11232I131J75*
G01*
X-56449Y10833D01*
X-56008Y10392D01*
G75*
D01*
G02X-55949Y10250I-142J-142*
G01*
X-55949Y9968D01*
G74*
D01*
G02X-55900Y9915I83J126*
G01*
G75*
D01*
G02X-55768Y9993I132J-73*
G01*
X-55532Y9993D01*
G74*
D01*
G02X-55381Y9842I0J151*
G01*
X-55381Y9232D01*
G75*
D01*
G02X-55532Y9081I-151J0*
G01*
X-55768Y9081D01*
G75*
D01*
G02X-55900Y9159I0J151*
G01*
G74*
D01*
G02X-56032Y9081I132J73*
G01*
X-56268Y9081D01*
G75*
D01*
G02X-56400Y9159I0J151*
G01*
G74*
D01*
G02X-56449Y9106I132J73*
G01*
X-56449Y8664D01*
X-56392Y8664D01*
G74*
D01*
G02X-56209Y8576I0J235*
G01*
X-55308Y8576D01*
X-55245Y8640D01*
X-54586Y9298D01*
X-54586Y9298D01*
X-54401Y9483D01*
X-54401Y9936D01*
X-54408Y9936D01*
G75*
D01*
G02X-54643Y10171I0J235*
G01*
X-54643Y10279D01*
G75*
D01*
G02X-54408Y10514I235J0*
G01*
X-53992Y10514D01*
G74*
D01*
G02X-53757Y10279I0J235*
G01*
X-53757Y10171D01*
G75*
D01*
G02X-53992Y9936I-235J0*
G01*
X-53999Y9936D01*
X-53999Y9400D01*
G75*
D01*
G02X-54058Y9258I-201J0*
G01*
X-55083Y8233D01*
G75*
D01*
G02X-55225Y8174I-142J142*
G01*
X-56209Y8174D01*
G74*
D01*
G02X-56392Y8086I183J147*
G01*
X-56808Y8086D01*
G75*
D01*
G02X-56999Y8184I0J235*
G01*
X-56999Y7763D01*
X-56787Y7625D01*
X-56999Y7487D01*
X-56999Y7483D01*
X-56917Y7401D01*
X-56756Y7401D01*
X-56600Y7503D01*
X-56444Y7401D01*
X-52356Y7401D01*
X-52200Y7503D01*
X-52044Y7401D01*
X-51983Y7401D01*
X-51859Y7525D01*
X-52013Y7625D01*
X-51829Y7745D01*
X-51883Y7799D01*
X-52120Y7799D01*
X-52200Y7747D01*
X-52280Y7799D01*
X-52600Y7799D01*
G75*
D01*
G02X-52742Y7858I0J201*
G01*
X-52942Y8058D01*
G75*
D01*
G02X-53001Y8200I142J142*
G01*
X-53001Y8517D01*
G75*
D01*
G02X-53001Y9083I201J283*
G01*
X-53001Y9161D01*
G75*
D01*
G02X-53019Y9232I133J71*
G01*
X-53019Y9842D01*
G75*
D01*
G02X-52868Y9993I151J0*
G01*
X-52632Y9993D01*
G74*
D01*
G02X-52500Y9915I0J151*
G01*
G75*
D01*
G02X-52368Y9993I132J-73*
G01*
X-52132Y9993D01*
G74*
D01*
G02X-52000Y9915I0J151*
G01*
G74*
D01*
G02X-51951Y9968I132J73*
G01*
X-51951Y10167D01*
X-52392Y10608D01*
G75*
D01*
G02X-52451Y10750I142J142*
G01*
X-52451Y11232D01*
G74*
D01*
G02X-52500Y11285I83J126*
G01*
G74*
D01*
G02X-52632Y11207I132J73*
G01*
X-52868Y11207D01*
G75*
D01*
G02X-53019Y11358I0J151*
G01*
X-53019Y11968D01*
G75*
D01*
G02X-52868Y12119I151J0*
G01*
X-52632Y12119D01*
G74*
D01*
G02X-52500Y12041I0J151*
G01*
G75*
D01*
G02X-52368Y12119I132J-73*
G01*
X-52365Y12119D01*
X-51624Y12861D01*
G75*
D01*
G02X-51664Y12992I195J131*
G01*
X-51664Y12999D01*
X-53336Y12999D01*
X-53336Y12992D01*
G75*
D01*
G02X-53571Y12757I-235J0*
G01*
X-53679Y12757D01*
G75*
D01*
G02X-53914Y12992I0J235*
G01*
X-53914Y13408D01*
G75*
D01*
G02X-53679Y13643I235J0*
G01*
X-53571Y13643D01*
G74*
D01*
G02X-53336Y13408I0J235*
G01*
X-53336Y13401D01*
X-51664Y13401D01*
X-51664Y13408D01*
G75*
D01*
G02X-51429Y13643I235J0*
G01*
X-51321Y13643D01*
G74*
D01*
G02X-51086Y13408I0J235*
G01*
X-51086Y12992D01*
G75*
D01*
G02X-51175Y12808I-235J0*
G01*
G74*
D01*
G02X-51233Y12683I200J17*
G01*
X-51797Y12119D01*
X-51632Y12119D01*
G74*
D01*
G02X-51500Y12041I0J151*
G01*
G75*
D01*
G02X-51368Y12119I132J-73*
G01*
X-51132Y12119D01*
G74*
D01*
G02X-50981Y11968I0J151*
G01*
X-50981Y11358D01*
G75*
D01*
G02X-51132Y11207I-151J0*
G01*
X-51368Y11207D01*
G75*
D01*
G02X-51399Y11210I0J151*
G01*
X-51399Y11083D01*
G75*
D01*
G02X-51678Y10462I-201J-283*
G01*
X-51608Y10392D01*
G75*
D01*
G02X-51549Y10250I-142J-142*
G01*
X-51549Y9968D01*
G74*
D01*
G02X-51500Y9915I83J126*
G01*
G75*
D01*
G02X-51368Y9993I132J-73*
G01*
X-51132Y9993D01*
G74*
D01*
G02X-50981Y9842I0J151*
G01*
X-50981Y9232D01*
G75*
D01*
G02X-51132Y9081I-151J0*
G01*
X-51368Y9081D01*
G75*
D01*
G02X-51500Y9159I0J151*
G01*
G74*
D01*
G02X-51632Y9081I132J73*
G01*
X-51868Y9081D01*
G75*
D01*
G02X-52000Y9159I0J151*
G01*
G74*
D01*
G02X-52049Y9106I132J73*
G01*
X-52049Y8664D01*
X-51992Y8664D01*
G74*
D01*
G02X-51809Y8576I0J235*
G01*
X-50808Y8576D01*
X-50086Y9298D01*
X-50086Y9298D01*
X-50001Y9383D01*
X-50001Y9936D01*
X-50008Y9936D01*
G75*
D01*
G02X-50243Y10171I0J235*
G01*
X-50243Y10279D01*
G75*
D01*
G02X-50008Y10514I235J0*
G01*
X-49592Y10514D01*
G74*
D01*
G02X-49357Y10279I0J235*
G01*
X-49357Y10171D01*
G75*
D01*
G02X-49592Y9936I-235J0*
G01*
X-49599Y9936D01*
X-49599Y9300D01*
G75*
D01*
G02X-49658Y9158I-201J0*
G01*
X-50583Y8233D01*
G75*
D01*
G02X-50725Y8174I-142J142*
G01*
X-51699Y8174D01*
G74*
D01*
G02X-51658Y8142I101J174*
G01*
X-51458Y7942D01*
G75*
D01*
G02X-51399Y7800I-142J-142*
G01*
X-51399Y7500D01*
G75*
D01*
G02X-51458Y7358I-201J0*
G01*
X-51715Y7101D01*
X-51713Y7101D01*
X-49515Y9298D01*
X-49515Y9298D01*
X-48051Y10763D01*
X-48051Y11232D01*
G74*
D01*
G02X-48100Y11285I83J126*
G01*
G74*
D01*
G02X-48232Y11207I132J73*
G01*
X-48468Y11207D01*
G75*
D01*
G02X-48619Y11358I0J151*
G01*
X-48619Y11968D01*
G75*
D01*
G02X-48468Y12119I151J0*
G01*
X-48232Y12119D01*
G74*
D01*
G02X-48100Y12041I0J151*
G01*
G74*
D01*
G02X-48051Y12094I132J73*
G01*
X-48051Y12542D01*
X-48283Y12774D01*
G74*
D01*
G02X-48371Y12757I88J218*
G01*
X-48479Y12757D01*
G75*
D01*
G02X-48714Y12992I0J235*
G01*
X-48714Y13408D01*
G75*
D01*
G02X-48479Y13643I235J0*
G01*
X-48371Y13643D01*
G74*
D01*
G02X-48136Y13408I0J235*
G01*
X-48136Y13196D01*
X-47708Y12767D01*
G75*
D01*
G02X-47649Y12625I-142J-142*
G01*
X-47649Y12094D01*
G74*
D01*
G02X-47600Y12041I83J126*
G01*
G75*
D01*
G02X-47468Y12119I132J-73*
G01*
X-47232Y12119D01*
G74*
D01*
G02X-47100Y12041I0J151*
G01*
G75*
D01*
G02X-46968Y12119I132J-73*
G01*
X-46732Y12119D01*
G74*
D01*
G02X-46581Y11968I0J151*
G01*
X-46581Y11358D01*
G75*
D01*
G02X-46732Y11207I-151J0*
G01*
X-46968Y11207D01*
G75*
D01*
G02X-47100Y11285I0J151*
G01*
G74*
D01*
G02X-47199Y11211I132J73*
G01*
X-47199Y11083D01*
G75*
D01*
G02X-47672Y10585I-201J-283*
G01*
G74*
D01*
G02X-47708Y10537I178J94*
G01*
X-48252Y9993D01*
X-48232Y9993D01*
G74*
D01*
G02X-48100Y9915I0J151*
G01*
G75*
D01*
G02X-47968Y9993I132J-73*
G01*
X-47945Y9993D01*
X-47945Y9632D01*
X-48081Y9632D01*
X-48081Y9442D01*
X-47945Y9442D01*
X-47945Y9081D01*
X-47968Y9081D01*
G75*
D01*
G02X-47999Y9084I0J151*
G01*
X-47999Y9083D01*
G75*
D01*
G02X-47935Y8576I-201J-283*
G01*
X-47791Y8576D01*
G75*
D01*
G02X-47608Y8664I183J-147*
G01*
X-47551Y8664D01*
X-47551Y9106D01*
G74*
D01*
G02X-47600Y9159I83J126*
G01*
G74*
D01*
G02X-47732Y9081I132J73*
G01*
X-47755Y9081D01*
X-47755Y9442D01*
X-47619Y9442D01*
X-47619Y9632D01*
X-47755Y9632D01*
X-47755Y9993D01*
X-47732Y9993D01*
G74*
D01*
G02X-47600Y9915I0J151*
G01*
G75*
D01*
G02X-47468Y9993I132J-73*
G01*
X-47232Y9993D01*
G74*
D01*
G02X-47100Y9915I0J151*
G01*
G75*
D01*
G02X-46968Y9993I132J-73*
G01*
X-46732Y9993D01*
G74*
D01*
G02X-46581Y9842I0J151*
G01*
X-46581Y9232D01*
G75*
D01*
G02X-46732Y9081I-151J0*
G01*
X-46968Y9081D01*
G75*
D01*
G02X-47100Y9159I0J151*
G01*
G74*
D01*
G02X-47149Y9106I132J73*
G01*
X-47149Y8660D01*
G74*
D01*
G02X-46957Y8429I43J231*
G01*
X-46957Y8321D01*
G75*
D01*
G02X-47192Y8086I-235J0*
G01*
X-47608Y8086D01*
G75*
D01*
G02X-47791Y8174I0J235*
G01*
X-48809Y8174D01*
G74*
D01*
G02X-48992Y8086I183J147*
G01*
X-49204Y8086D01*
X-49377Y7914D01*
X-48992Y7914D01*
G74*
D01*
G02X-48757Y7679I0J235*
G01*
X-48757Y7571D01*
G75*
D01*
G02X-48992Y7336I-235J0*
G01*
X-48999Y7336D01*
X-48999Y5683D01*
X-48292Y4976D01*
X-42714Y4976D01*
G75*
D01*
G02X-42714Y4574I714J-201*
G01*
X-48375Y4574D01*
G75*
D01*
G02X-48517Y4633I0J201*
G01*
X-49342Y5458D01*
G75*
D01*
G02X-49401Y5600I142J142*
G01*
X-49401Y7336D01*
X-49408Y7336D01*
G75*
D01*
G02X-49643Y7571I0J235*
G01*
X-49643Y7648D01*
X-50858Y6433D01*
G75*
D01*
G02X-51000Y6374I-142J142*
G01*
X-52342Y6374D01*
X-52960Y5756D01*
G75*
D01*
G02X-53244Y6040I-440J-156*
G01*
X-52585Y6699D01*
X-53017Y6699D01*
X-53960Y5756D01*
G75*
D01*
G02X-54244Y6040I-440J-156*
G01*
X-53285Y6999D01*
X-57000Y6999D01*
G75*
D01*
G02X-57066Y7010I0J201*
G01*
G74*
D01*
G02X-57142Y7058I66J190*
G01*
X-57342Y7258D01*
G75*
D01*
G02X-57401Y7400I142J142*
G01*
X-57401Y9161D01*
G75*
D01*
G02X-57419Y9232I133J71*
G01*
X-57419Y9799D01*
X-57800Y9799D01*
G75*
D01*
G02X-57866Y9810I0J201*
G01*
G74*
D01*
G02X-57942Y9858I66J190*
G01*
X-58142Y10058D01*
G75*
D01*
G02X-58201Y10200I142J142*
G01*
X-58201Y18200D01*
G74*
D01*
G02X-58142Y18342I201J0*
G01*
X-57942Y18542D01*
G75*
D01*
G02X-57800Y18601I142J-142*
G01*
X-45083Y18601D01*
X-45001Y18683D01*
X-45001Y23200D01*
G74*
D01*
G02X-44942Y23342I201J0*
G01*
X-44742Y23542D01*
G75*
D01*
G02X-44600Y23601I142J-142*
G01*
X-33800Y23601D01*
G75*
D01*
G02X-33658Y23542I0J-201*
G01*
X-33458Y23342D01*
G75*
D01*
G02X-33399Y23200I-142J-142*
G01*
X-33399Y21228D01*
G74*
D01*
G02X-33371Y21306I199J28*
G01*
X-33371Y24735D01*
G75*
D01*
G02X-33220Y24886I151J0*
G01*
X-29653Y24886D01*
X-28762Y25776D01*
G75*
D01*
G02X-28585Y25850I177J-176*
G01*
X-22403Y25850D01*
X-22050Y26203D01*
X-22050Y26887D01*
G75*
D01*
G02X-21550Y26887I250J313*
G01*
X-21550Y26100D01*
G75*
D01*
G02X-21623Y25923I-250J0*
G01*
X-22123Y25423D01*
G75*
D01*
G02X-22300Y25350I-177J177*
G01*
X-28482Y25350D01*
X-29017Y24815D01*
G74*
D01*
G02X-28995Y24735I128J80*
G01*
X-28995Y21270D01*
G75*
D01*
G02X-29145Y21120I-150J0*
G01*
X-32781Y21120D01*
X-32843Y21058D01*
G74*
D01*
G02X-32923Y21009I142J142*
G01*
G75*
D01*
G02X-33399Y20516I-277J-209*
G01*
X-33399Y19683D01*
X-33317Y19601D01*
X-32800Y19601D01*
G75*
D01*
G02X-32775Y19599I0J-201*
G01*
G75*
D01*
G02X-32350Y19059I175J-299*
G01*
X-32350Y18350D01*
X-31786Y18350D01*
G74*
D01*
G02X-31635Y18200I0J150*
G01*
X-31635Y17806D01*
G75*
D01*
G02X-31786Y17655I-151J0*
G01*
X-33341Y17655D01*
G75*
D01*
G02X-33492Y17806I0J151*
G01*
X-33492Y18200D01*
G75*
D01*
G02X-33341Y18350I151J0*
G01*
X-32850Y18350D01*
X-32850Y19059D01*
G74*
D01*
G02X-32932Y19199I250J241*
G01*
X-33400Y19199D01*
G75*
D01*
G02X-33542Y19258I0J201*
G01*
X-33742Y19458D01*
G75*
D01*
G02X-33801Y19600I142J142*
G01*
X-33801Y23117D01*
X-33883Y23199D01*
X-35958Y23199D01*
G75*
D01*
G02X-36442Y23199I-242J-399*
G01*
X-36958Y23199D01*
G75*
D01*
G02X-36999Y22379I-242J-399*
G01*
X-36999Y17109D01*
G75*
D01*
G02X-37058Y16966I-201J-1*
G01*
X-37353Y16671D01*
X-37353Y16458D01*
G75*
D01*
G02X-37587Y16224I-234J0*
G01*
X-37696Y16224D01*
G75*
D01*
G02X-37808Y16252I0J234*
G01*
X-37908Y16151D01*
X-37908Y15312D01*
G74*
D01*
G02X-37845Y15189I88J123*
G01*
X-37845Y14638D01*
G75*
D01*
G02X-37845Y14629I-151J0*
G01*
X-37802Y14587D01*
G75*
D01*
G02X-37812Y14638I141J51*
G01*
X-37812Y15189D01*
G74*
D01*
G02X-37743Y15316I151J0*
G01*
X-37743Y15340D01*
X-37740Y15340D01*
G74*
D01*
G02X-37700Y15335I0J151*
G01*
G75*
D01*
G02X-37661Y15340I39J-146*
G01*
X-37484Y15340D01*
G74*
D01*
G02X-37344Y15246I0J151*
G01*
G75*
D01*
G02X-36664Y15115I344J-46*
G01*
X-34414Y15115D01*
G74*
D01*
G02X-34331Y15097I0J201*
G01*
G74*
D01*
G02X-34272Y15056I83J183*
G01*
X-32217Y13001D01*
X-31358Y13001D01*
X-30999Y13360D01*
X-31076Y13360D01*
G75*
D01*
G02X-31307Y13553I0J234*
G01*
X-32103Y13553D01*
G75*
D01*
G02X-32280Y13627I0J250*
G01*
X-32740Y14087D01*
G75*
D01*
G02X-32813Y14264I176J177*
G01*
X-32813Y15655D01*
X-33341Y15655D01*
G75*
D01*
G02X-33492Y15806I0J151*
G01*
X-33492Y16200D01*
G75*
D01*
G02X-33341Y16350I151J0*
G01*
X-31786Y16350D01*
G74*
D01*
G02X-31635Y16200I0J150*
G01*
X-31635Y15806D01*
G75*
D01*
G02X-31786Y15655I-151J0*
G01*
X-32165Y15655D01*
G75*
D01*
G02X-32314Y15064I-235J-255*
G01*
X-32314Y14367D01*
X-31999Y14052D01*
X-31307Y14052D01*
G75*
D01*
G02X-31076Y14246I231J-41*
G01*
X-30968Y14246D01*
G74*
D01*
G02X-30734Y14011I0J235*
G01*
X-30734Y13626D01*
X-30561Y13798D01*
X-30561Y14011D01*
G75*
D01*
G02X-30326Y14246I235J0*
G01*
X-30218Y14246D01*
G74*
D01*
G02X-29987Y14052I0J235*
G01*
X-28707Y14052D01*
G74*
D01*
G02X-28672Y14141I231J41*
G01*
X-28672Y15120D01*
X-30566Y15120D01*
G75*
D01*
G02X-30716Y15270I0J150*
G01*
X-30716Y18735D01*
G75*
D01*
G02X-30566Y18886I150J0*
G01*
X-26491Y18886D01*
G74*
D01*
G02X-26340Y18735I0J151*
G01*
X-26340Y15270D01*
G75*
D01*
G02X-26491Y15120I-151J0*
G01*
X-28173Y15120D01*
X-28173Y14141D01*
G74*
D01*
G02X-28134Y14011I195J130*
G01*
X-28134Y13594D01*
G75*
D01*
G02X-28368Y13360I-234J0*
G01*
X-28476Y13360D01*
G75*
D01*
G02X-28707Y13553I0J234*
G01*
X-29987Y13553D01*
G74*
D01*
G02X-30218Y13360I231J41*
G01*
X-30326Y13360D01*
G75*
D01*
G02X-30414Y13377I0J234*
G01*
X-31133Y12658D01*
G75*
D01*
G02X-31275Y12599I-142J142*
G01*
X-32300Y12599D01*
G75*
D01*
G02X-32385Y12618I0J201*
G01*
G74*
D01*
G02X-32442Y12658I85J182*
G01*
X-34497Y14713D01*
X-35388Y14713D01*
X-35617Y14564D01*
X-35845Y14713D01*
X-37333Y14713D01*
X-37333Y14638D01*
G75*
D01*
G02X-37484Y14488I-151J0*
G01*
X-37661Y14488D01*
G75*
D01*
G02X-37700Y14493I0J150*
G01*
X-37707Y14491D01*
X-36858Y13642D01*
G75*
D01*
G02X-36799Y13499I-142J-142*
G01*
X-36799Y13283D01*
G75*
D01*
G02X-37333Y12903I-201J-283*
G01*
G74*
D01*
G02X-37484Y12755I151J3*
G01*
X-37652Y12755D01*
X-37652Y12501D01*
X-37569Y12418D01*
X-36331Y12418D01*
X-35793Y12956D01*
X-35793Y13403D01*
X-35825Y13403D01*
G75*
D01*
G02X-36059Y13637I0J234*
G01*
X-36059Y13746D01*
G75*
D01*
G02X-35825Y13980I234J0*
G01*
X-35408Y13980D01*
G74*
D01*
G02X-35174Y13746I0J234*
G01*
X-35174Y13637D01*
G75*
D01*
G02X-35408Y13403I-234J0*
G01*
X-35441Y13403D01*
X-35441Y12884D01*
G75*
D01*
G02X-35492Y12759I-176J-1*
G01*
X-36134Y12117D01*
G75*
D01*
G02X-36259Y12066I-124J125*
G01*
X-37466Y12066D01*
X-37466Y11675D01*
G74*
D01*
G02X-37353Y11475I121J200*
G01*
X-37353Y11058D01*
G75*
D01*
G02X-37587Y10824I-234J0*
G01*
X-37696Y10824D01*
G75*
D01*
G02X-37930Y11058I0J234*
G01*
X-37930Y11475D01*
G74*
D01*
G02X-37818Y11675I234J0*
G01*
X-37818Y12169D01*
X-37950Y12302D01*
G74*
D01*
G02X-37960Y12292I134J114*
G01*
X-38224Y12027D01*
X-38224Y11680D01*
G74*
D01*
G02X-38103Y11475I113J205*
G01*
X-38103Y11058D01*
G75*
D01*
G02X-38191Y10875I-234J0*
G01*
X-38191Y9959D01*
G75*
D01*
G02X-38250Y9816I-201J-1*
G01*
X-38768Y9298D01*
X-38768Y9298D01*
X-41353Y6713D01*
G75*
D01*
G02X-41637Y6997I-647J-363*
G01*
X-39336Y9298D01*
X-39336Y9298D01*
X-38593Y10042D01*
X-38593Y10875D01*
G75*
D01*
G02X-38680Y11058I147J183*
G01*
X-38680Y11475D01*
G74*
D01*
G02X-38576Y11670I234J0*
G01*
X-38576Y12100D01*
G74*
D01*
G02X-38524Y12225I176J0*
G01*
X-38260Y12489D01*
X-38260Y12755D01*
X-38429Y12755D01*
G75*
D01*
G02X-38579Y12906I0J151*
G01*
X-38579Y12936D01*
X-38658Y12858D01*
G75*
D01*
G02X-38942Y13142I-342J-58*
G01*
X-38761Y13323D01*
G75*
D01*
G02X-38618Y13383I143J-141*
G01*
X-38579Y13383D01*
X-38579Y13457D01*
G75*
D01*
G02X-38429Y13608I150J0*
G01*
X-38251Y13608D01*
G74*
D01*
G02X-38212Y13603I0J151*
G01*
G75*
D01*
G02X-38173Y13608I39J-146*
G01*
X-37996Y13608D01*
G74*
D01*
G02X-37956Y13603I0J151*
G01*
G75*
D01*
G02X-37917Y13608I39J-146*
G01*
X-37757Y13608D01*
X-37873Y13724D01*
X-39500Y13724D01*
G75*
D01*
G02X-39625Y13776I0J176*
G01*
X-40324Y14475D01*
G75*
D01*
G02X-40376Y14600I124J125*
G01*
X-40376Y14935D01*
G74*
D01*
G02X-40399Y14917I224J265*
G01*
X-40399Y12600D01*
G75*
D01*
G02X-40458Y12458I-201J0*
G01*
X-40658Y12258D01*
G75*
D01*
G02X-40800Y12199I-142J142*
G01*
X-45600Y12199D01*
G75*
D01*
G02X-45742Y12258I0J201*
G01*
X-45796Y12312D01*
X-45942Y12458D01*
G75*
D01*
G02X-46001Y12600I142J142*
G01*
X-46001Y13550D01*
G75*
D01*
G02X-46124Y13699I28J149*
G01*
X-46124Y14309D01*
G75*
D01*
G02X-45973Y14460I151J0*
G01*
X-45737Y14460D01*
G74*
D01*
G02X-45605Y14382I0J151*
G01*
G75*
D01*
G02X-45473Y14460I132J-73*
G01*
X-45237Y14460D01*
G74*
D01*
G02X-45105Y14382I0J151*
G01*
G75*
D01*
G02X-44973Y14460I132J-73*
G01*
X-44951Y14460D01*
X-44951Y14099D01*
X-45086Y14099D01*
X-45086Y13908D01*
X-44951Y13908D01*
X-44951Y13548D01*
X-44973Y13548D01*
G75*
D01*
G02X-45105Y13626I0J151*
G01*
G74*
D01*
G02X-45154Y13573I132J73*
G01*
X-45154Y13538D01*
X-44683Y13068D01*
X-43080Y13068D01*
X-43080Y13075D01*
G74*
D01*
G02X-42993Y13258I234J0*
G01*
X-42993Y14403D01*
X-43025Y14403D01*
G75*
D01*
G02X-43259Y14637I0J234*
G01*
X-43259Y14746D01*
G75*
D01*
G02X-43025Y14980I234J0*
G01*
X-42608Y14980D01*
G74*
D01*
G02X-42374Y14746I0J234*
G01*
X-42374Y14637D01*
G75*
D01*
G02X-42591Y14404I-234J0*
G01*
X-42591Y13258D01*
G74*
D01*
G02X-42503Y13075I146J183*
G01*
X-42503Y12658D01*
G75*
D01*
G02X-42510Y12601I-234J0*
G01*
X-42323Y12601D01*
G75*
D01*
G02X-42330Y12658I227J57*
G01*
X-42330Y13075D01*
G75*
D01*
G02X-42096Y13309I234J0*
G01*
X-41987Y13309D01*
G74*
D01*
G02X-41753Y13075I0J234*
G01*
X-41753Y13001D01*
X-41683Y13001D01*
G75*
D01*
G02X-41116Y12601I283J-201*
G01*
X-40883Y12601D01*
X-40801Y12683D01*
X-40801Y14917D01*
G75*
D01*
G02X-40376Y15465I201J283*
G01*
X-40376Y16775D01*
G74*
D01*
G02X-40324Y16900I176J0*
G01*
X-40015Y17209D01*
G75*
D01*
G02X-40043Y17321I207J112*
G01*
X-40043Y17429D01*
G75*
D01*
G02X-39808Y17664I235J0*
G01*
X-39560Y17664D01*
X-39201Y18023D01*
X-39201Y18191D01*
G75*
D01*
G02X-39314Y18392I122J201*
G01*
X-39314Y18808D01*
G75*
D01*
G02X-39079Y19043I235J0*
G01*
X-39033Y19043D01*
X-38653Y19423D01*
X-38653Y19659D01*
G74*
D01*
G02X-38556Y19800I151J0*
G01*
G75*
D01*
G02X-38653Y19941I54J141*
G01*
X-38653Y20354D01*
G75*
D01*
G02X-38502Y20505I151J0*
G01*
X-38246Y20505D01*
G74*
D01*
G02X-38095Y20354I0J151*
G01*
X-38095Y19941D01*
G75*
D01*
G02X-38192Y19800I-151J0*
G01*
G74*
D01*
G02X-38095Y19659I54J141*
G01*
X-38095Y19246D01*
G75*
D01*
G02X-38246Y19095I-151J0*
G01*
X-38483Y19095D01*
X-38738Y18840D01*
G74*
D01*
G02X-38736Y18808I233J32*
G01*
X-22808Y10136D02*
G75*
D01*
G02X-23043Y10371I0J235*
G01*
X-23043Y10479D01*
G75*
D01*
G02X-22808Y10714I235J0*
G01*
X-22392Y10714D01*
G74*
D01*
G02X-22157Y10479I0J235*
G01*
X-22157Y10371D01*
G75*
D01*
G02X-22392Y10136I-235J0*
G01*
X-22399Y10136D01*
X-22399Y7064D01*
G75*
D01*
G02X-22801Y7064I-201J-714*
G01*
X-22801Y10136D01*
X-22808Y10136D01*
X-26370Y24350D02*
G74*
D01*
G02X-26219Y24200I0J150*
G01*
X-26219Y23806D01*
G75*
D01*
G02X-26370Y23655I-151J0*
G01*
X-26447Y23655D01*
X-26419Y23627D01*
X-25385Y23627D01*
G75*
D01*
G02X-25256Y23666I129J-195*
G01*
X-25112Y23666D01*
X-25002Y23776D01*
G75*
D01*
G02X-24825Y23850I177J-176*
G01*
X-22701Y23850D01*
G75*
D01*
G02X-22006Y23075I501J-250*
G01*
X-22200Y22881D01*
X-22394Y23075D01*
G74*
D01*
G02X-22701Y23350I194J525*
G01*
X-24604Y23350D01*
X-24604Y23324D01*
G75*
D01*
G02X-24839Y23089I-235J0*
G01*
X-25256Y23089D01*
G75*
D01*
G02X-25385Y23128I0J235*
G01*
X-26522Y23128D01*
G75*
D01*
G02X-26699Y23202I0J250*
G01*
X-26898Y23401D01*
X-27153Y23655D01*
X-27925Y23655D01*
G75*
D01*
G02X-28076Y23806I0J151*
G01*
X-28076Y24200D01*
G75*
D01*
G02X-27925Y24350I151J0*
G01*
X-26370Y24350D01*
X-26370Y22350D02*
G74*
D01*
G02X-26228Y22252I0J150*
G01*
X-25776Y22252D01*
X-25488Y22540D01*
G75*
D01*
G02X-25490Y22574I232J34*
G01*
X-25490Y22682D01*
G75*
D01*
G02X-25256Y22916I234J0*
G01*
X-24839Y22916D01*
G74*
D01*
G02X-24604Y22682I0J234*
G01*
X-24604Y22574D01*
G75*
D01*
G02X-24839Y22339I-235J0*
G01*
X-24983Y22339D01*
X-25496Y21826D01*
G74*
D01*
G02X-25670Y21753I176J177*
G01*
X-25672Y21753D01*
X-26228Y21753D01*
G74*
D01*
G02X-26370Y21655I142J53*
G01*
X-27043Y21655D01*
X-27043Y20583D01*
G74*
D01*
G02X-27004Y20454I195J129*
G01*
X-27004Y20037D01*
G75*
D01*
G02X-27238Y19803I-234J0*
G01*
X-27347Y19803D01*
G75*
D01*
G02X-27581Y20037I0J234*
G01*
X-27581Y20099D01*
X-27917Y20099D01*
G75*
D01*
G02X-27917Y20501I-283J201*
G01*
X-27577Y20501D01*
G74*
D01*
G02X-27542Y20583I230J47*
G01*
X-27542Y21655D01*
X-27925Y21655D01*
G75*
D01*
G02X-28076Y21806I0J151*
G01*
X-28076Y22200D01*
G75*
D01*
G02X-27925Y22350I151J0*
G01*
X-26370Y22350D01*
X-45796Y1985D02*
G75*
D01*
G02X-45796Y1985I371J857*
G01*
X-55245Y1911D02*
G75*
D01*
G02X-55245Y1911I70J931*
G01*
X-19344Y28196D02*
G75*
D01*
G02X-19344Y28196I644J404*
G01*
X-60840Y28196D02*
G75*
D01*
G02X-60840Y28196I-760J4*
G01*
X-36347Y25413D02*
G75*
D01*
G02X-36347Y25413I922J145*
G01*
X-57842Y18747D02*
G75*
D01*
G02X-57842Y18747I-558J253*
G01*
X-45796Y25114D02*
G75*
D01*
G02X-45796Y25114I821J444*
G01*
X-56179Y7777D02*
G74*
D01*
G02X-56157Y7679I213J98*
G01*
X-56157Y7571D01*
G75*
D01*
G02X-56179Y7473I-235J0*
G01*
X-56413Y7625D01*
X-56179Y7777D01*
X-56850Y7910D02*
G75*
D01*
G02X-56808Y7914I42J-231*
G01*
X-56392Y7914D01*
G74*
D01*
G02X-56350Y7910I0J235*
G01*
X-56600Y7747D01*
X-56850Y7910D01*
X-37482Y18000D02*
G75*
D01*
G02X-37482Y18000I-118J0*
G01*
X-37924Y17877D02*
X-37723Y17877D01*
X-37723Y17676D01*
G74*
D01*
G02X-37924Y17877I123J324*
G01*
X-38250Y17525D02*
G75*
D01*
G02X-38250Y17277I-124J-124*
G01*
X-38276Y17251D01*
G75*
D01*
G02X-38524Y17251I-124J124*
G01*
G75*
D01*
G02X-38524Y17499I124J124*
G01*
X-38498Y17525D01*
G75*
D01*
G02X-38250Y17525I124J-124*
G01*
X-52621Y7777D02*
X-52387Y7625D01*
X-52621Y7473D01*
G75*
D01*
G02X-52643Y7571I213J98*
G01*
X-52643Y7679D01*
G74*
D01*
G02X-52621Y7777I235J0*
G01*
X-47733Y5600D02*
G75*
D01*
G02X-47733Y5600I-467J0*
G01*
X-47058Y6642D02*
G75*
D01*
G02X-46999Y6500I-142J-142*
G01*
X-46999Y6021D01*
G75*
D01*
G02X-47401Y6021I-201J-421*
G01*
X-47401Y6417D01*
X-47542Y6558D01*
G75*
D01*
G02X-47601Y6700I142J142*
G01*
X-47601Y7336D01*
X-47608Y7336D01*
G75*
D01*
G02X-47843Y7571I0J235*
G01*
X-47843Y7679D01*
G75*
D01*
G02X-47608Y7914I235J0*
G01*
X-47192Y7914D01*
G74*
D01*
G02X-46957Y7679I0J235*
G01*
X-46957Y7571D01*
G75*
D01*
G02X-47192Y7336I-235J0*
G01*
X-47199Y7336D01*
X-47199Y6783D01*
X-47058Y6642D01*
X-57031Y17140D02*
X-57260Y17140D01*
X-57260Y17369D01*
G74*
D01*
G02X-57031Y17140I140J369*
G01*
X-57225Y17000D02*
G75*
D01*
G02X-57225Y17000I-175J0*
G01*
X-57260Y16631D02*
X-57260Y16860D01*
X-57031Y16860D01*
G74*
D01*
G02X-57260Y16631I369J140*
G01*
X-57540Y17369D02*
X-57540Y17140D01*
X-57769Y17140D01*
G74*
D01*
G02X-57540Y17369I369J140*
G01*
X-57769Y16860D02*
X-57540Y16860D01*
X-57540Y16631D01*
G74*
D01*
G02X-57769Y16860I140J369*
G01*
X-39728Y20695D02*
G75*
D01*
G02X-39879Y20846I0J151*
G01*
X-39879Y20954D01*
X-39699Y20954D01*
X-39699Y20695D01*
X-39728Y20695D01*
X-39728Y21410D02*
X-39699Y21410D01*
X-39699Y21152D01*
X-39879Y21152D01*
X-39879Y21259D01*
G75*
D01*
G02X-39728Y21410I151J0*
G01*
X-39472Y21410D02*
G74*
D01*
G02X-39321Y21259I0J151*
G01*
X-39321Y21152D01*
X-39501Y21152D01*
X-39501Y21410D01*
X-39472Y21410D01*
X-39321Y20846D02*
G75*
D01*
G02X-39472Y20695I-151J0*
G01*
X-39501Y20695D01*
X-39501Y20954D01*
X-39321Y20954D01*
X-39321Y20846D01*
X-38128Y21410D02*
X-37872Y21410D01*
G74*
D01*
G02X-37721Y21259I0J151*
G01*
X-37721Y20846D01*
G75*
D01*
G02X-37872Y20695I-151J0*
G01*
X-38128Y20695D01*
G75*
D01*
G02X-38279Y20846I0J151*
G01*
X-38279Y21259D01*
G75*
D01*
G02X-38128Y21410I151J0*
G01*
X-37905Y19659D02*
G74*
D01*
G02X-37808Y19800I151J0*
G01*
G75*
D01*
G02X-37905Y19941I54J141*
G01*
X-37905Y20048D01*
X-37725Y20048D01*
X-37725Y19552D01*
X-37905Y19552D01*
X-37905Y19659D01*
X-37905Y20354D02*
G75*
D01*
G02X-37754Y20505I151J0*
G01*
X-37725Y20505D01*
X-37725Y20246D01*
X-37905Y20246D01*
X-37905Y20354D01*
X-37754Y19095D02*
G75*
D01*
G02X-37905Y19246I0J151*
G01*
X-37905Y19354D01*
X-37725Y19354D01*
X-37725Y19095D01*
X-37754Y19095D01*
X-44737Y13548D02*
X-44760Y13548D01*
X-44760Y13908D01*
X-44624Y13908D01*
X-44624Y14099D01*
X-44760Y14099D01*
X-44760Y14460D01*
X-44737Y14460D01*
G74*
D01*
G02X-44605Y14382I0J151*
G01*
G75*
D01*
G02X-44473Y14460I132J-73*
G01*
X-44237Y14460D01*
G74*
D01*
G02X-44086Y14309I0J151*
G01*
X-44086Y13699D01*
G75*
D01*
G02X-44237Y13548I-151J0*
G01*
X-44473Y13548D01*
G75*
D01*
G02X-44605Y13626I0J151*
G01*
G74*
D01*
G02X-44737Y13548I132J73*
G01*
X-44237Y16586D02*
G74*
D01*
G02X-44086Y16435I0J151*
G01*
X-44086Y16225D01*
X-44260Y16225D01*
X-44260Y16586D01*
X-44237Y16586D01*
X-44086Y15825D02*
G75*
D01*
G02X-44237Y15674I-151J0*
G01*
X-44260Y15674D01*
X-44260Y16034D01*
X-44086Y16034D01*
X-44086Y15825D01*
X-27520Y13382D02*
G74*
D01*
G02X-27618Y13360I98J212*
G01*
X-27726Y13360D01*
G75*
D01*
G02X-27825Y13382I0J234*
G01*
X-27672Y13615D01*
X-27520Y13382D01*
X-36038Y14594D02*
X-35804Y14442D01*
X-36038Y14289D01*
G75*
D01*
G02X-36059Y14387I213J98*
G01*
X-36059Y14496D01*
G74*
D01*
G02X-36038Y14594I234J0*
G01*
X-35195Y14594D02*
G74*
D01*
G02X-35174Y14496I213J98*
G01*
X-35174Y14387D01*
G75*
D01*
G02X-35195Y14289I-234J0*
G01*
X-35429Y14442D01*
X-35195Y14594D01*
X-27520Y14224D02*
X-27672Y13990D01*
X-27825Y14224D01*
G75*
D01*
G02X-27726Y14246I99J-213*
G01*
X-27618Y14246D01*
G74*
D01*
G02X-27520Y14224I0J235*
G01*
X-27387Y14053D02*
G74*
D01*
G02X-27384Y14011I231J42*
G01*
X-27384Y13594D01*
G75*
D01*
G02X-27387Y13553I-234J0*
G01*
X-27550Y13803D01*
X-27387Y14053D01*
X-27957Y13553D02*
G75*
D01*
G02X-27961Y13594I231J41*
G01*
X-27961Y14011D01*
G74*
D01*
G02X-27957Y14053I235J0*
G01*
X-27794Y13803D01*
X-27957Y13553D01*
X-35367Y14157D02*
G74*
D01*
G02X-35408Y14153I41J230*
G01*
X-35825Y14153D01*
G75*
D01*
G02X-35866Y14157I0J234*
G01*
X-35617Y14319D01*
X-35367Y14157D01*
X-60740Y1400D02*
G75*
D01*
G02X-60740Y1400I-760J0*
G01*
X-51933Y5600D02*
G75*
D01*
G02X-51933Y5600I-467J0*
G01*
X-50692Y2842D02*
G75*
D01*
G02X-50692Y2842I-933J0*
G01*
X-48042Y2842D02*
G75*
D01*
G02X-48042Y2842I-933J0*
G01*
X-17940Y1600D02*
G75*
D01*
G02X-17940Y1600I-760J0*
G01*
X-21858Y3200D02*
G75*
D01*
G02X-21858Y3200I-742J0*
G01*
X-53787Y15000D02*
G75*
D01*
G02X-53787Y15000I-613J0*
G01*
X-49464Y12992D02*
X-49464Y12999D01*
X-50336Y12999D01*
X-50336Y12992D01*
G75*
D01*
G02X-50571Y12757I-235J0*
G01*
X-50679Y12757D01*
G75*
D01*
G02X-50914Y12992I0J235*
G01*
X-50914Y13408D01*
G75*
D01*
G02X-50679Y13643I235J0*
G01*
X-50571Y13643D01*
G74*
D01*
G02X-50336Y13408I0J235*
G01*
X-50336Y13401D01*
X-49464Y13401D01*
X-49464Y13408D01*
G75*
D01*
G02X-49229Y13643I235J0*
G01*
X-49121Y13643D01*
G74*
D01*
G02X-48886Y13408I0J235*
G01*
X-48886Y12992D01*
G75*
D01*
G02X-48974Y12809I-235J0*
G01*
X-48974Y12226D01*
G75*
D01*
G02X-49033Y12083I-201J-1*
G01*
X-49599Y11517D01*
X-49599Y11264D01*
X-49592Y11264D01*
G74*
D01*
G02X-49357Y11029I0J235*
G01*
X-49357Y10921D01*
G75*
D01*
G02X-49592Y10686I-235J0*
G01*
X-50008Y10686D01*
G75*
D01*
G02X-50243Y10921I0J235*
G01*
X-50243Y11029D01*
G75*
D01*
G02X-50008Y11264I235J0*
G01*
X-50001Y11264D01*
X-50001Y11600D01*
G74*
D01*
G02X-49942Y11742I201J0*
G01*
X-49376Y12308D01*
X-49376Y12809D01*
G75*
D01*
G02X-49464Y12992I147J183*
G01*
X-29058Y3200D02*
G75*
D01*
G02X-29058Y3200I-742J0*
G01*
X-32658Y3200D02*
G75*
D01*
G02X-32658Y3200I-742J0*
G01*
X-37258Y3200D02*
G75*
D01*
G02X-37258Y3200I-742J0*
G01*
X-41258Y3200D02*
G75*
D01*
G02X-41258Y3200I-742J0*
G01*
X-37258Y4775D02*
G75*
D01*
G02X-37258Y4775I-742J0*
G01*
X-25523Y18324D02*
X-25523Y18123D01*
X-25724Y18123D01*
G74*
D01*
G02X-25523Y18324I324J123*
G01*
X-22006Y16325D02*
G75*
D01*
G02X-21948Y15300I-194J-525*
G01*
G75*
D01*
G02X-22452Y15300I-252J-500*
G01*
G74*
D01*
G02X-22701Y15550I252J500*
G01*
X-23559Y15550D01*
G75*
D01*
G02X-23559Y16050I-241J250*
G01*
X-22701Y16050D01*
G74*
D01*
G02X-22394Y16325I501J250*
G01*
X-22200Y16519D01*
X-22006Y16325D01*
X-21970Y17310D02*
X-22200Y17081D01*
X-22430Y17310D01*
G75*
D01*
G02X-21970Y17310I230J-510*
G01*
X-21967Y16800D02*
G75*
D01*
G02X-21967Y16800I-233J0*
G01*
X-21690Y17030D02*
G75*
D01*
G02X-21690Y16570I-510J-230*
G01*
X-21919Y16800D01*
X-21690Y17030D01*
X-22710Y17030D02*
X-22481Y16800D01*
X-22710Y16570D01*
G75*
D01*
G02X-22710Y17030I510J230*
G01*
X-25277Y17676D02*
X-25277Y17877D01*
X-25076Y17877D01*
G74*
D01*
G02X-25277Y17676I324J123*
G01*
X-25282Y18000D02*
G75*
D01*
G02X-25282Y18000I-118J0*
G01*
X-25724Y17877D02*
X-25523Y17877D01*
X-25523Y17676D01*
G74*
D01*
G02X-25724Y17877I123J324*
G01*
X-25076Y18123D02*
X-25277Y18123D01*
X-25277Y18324D01*
G74*
D01*
G02X-25076Y18123I123J324*
G01*
X-26828Y19996D02*
G75*
D01*
G02X-26831Y20037I231J41*
G01*
X-26831Y20454D01*
G74*
D01*
G02X-26828Y20495I234J0*
G01*
X-26665Y20245D01*
X-26828Y19996D01*
X-26258Y20495D02*
G74*
D01*
G02X-26254Y20454I230J41*
G01*
X-26254Y20037D01*
G75*
D01*
G02X-26258Y19996I-234J0*
G01*
X-26421Y20245D01*
X-26258Y20495D01*
X-26390Y20667D02*
X-26543Y20433D01*
X-26695Y20667D01*
G75*
D01*
G02X-26597Y20688I98J-213*
G01*
X-26488Y20688D01*
G74*
D01*
G02X-26390Y20667I0J234*
G01*
X-26390Y19824D02*
G74*
D01*
G02X-26488Y19803I98J213*
G01*
X-26597Y19803D01*
G75*
D01*
G02X-26695Y19824I0J234*
G01*
X-26543Y20058D01*
X-26390Y19824D01*
X-22006Y22125D02*
G75*
D01*
G02X-22394Y22125I-194J-525*
G01*
X-22200Y22319D01*
X-22006Y22125D01*
X-21967Y22600D02*
G75*
D01*
G02X-21967Y22600I-233J0*
G01*
X-21690Y22830D02*
G75*
D01*
G02X-21690Y22370I-510J-230*
G01*
X-21919Y22600D01*
X-21690Y22830D01*
X-22710Y22830D02*
X-22481Y22600D01*
X-22710Y22370D01*
G75*
D01*
G02X-22710Y22830I510J230*
G01*
X-22426Y27342D02*
X-22658Y27342D01*
X-22658Y27574D01*
G74*
D01*
G02X-22426Y27342I142J374*
G01*
X-22625Y27200D02*
G75*
D01*
G02X-22625Y27200I-175J0*
G01*
X-22658Y26826D02*
X-22658Y27058D01*
X-22426Y27058D01*
G74*
D01*
G02X-22658Y26826I374J142*
G01*
X-22942Y27574D02*
X-22942Y27342D01*
X-23174Y27342D01*
G74*
D01*
G02X-22942Y27574I374J142*
G01*
X-23400Y27200D02*
G75*
D01*
G02X-23400Y27200I-400J0*
G01*
X-23174Y27058D02*
X-22942Y27058D01*
X-22942Y26826D01*
G74*
D01*
G02X-23174Y27058I142J374*
G01*
X-40492Y25558D02*
G75*
D01*
G02X-40492Y25558I-933J0*
G01*
X-38042Y25558D02*
G75*
D01*
G02X-38042Y25558I-933J0*
G01*
X-17751Y151D02*
X-17751Y29649D01*
X-62841Y29649D01*
X-62841Y151D01*
X-17751Y151D01*
X-49626Y8233D02*
X-51083Y6776D01*
X-51469Y6776D01*
X-48947Y9298D01*
X-48947Y9298D01*
X-48619Y9626D01*
X-48619Y9232D01*
G75*
D01*
G03X-48468Y9081I151J0*
G01*
X-48403Y9081D01*
G75*
D01*
G03X-48465Y8576I203J-281*
G01*
X-48809Y8576D01*
G74*
D01*
G03X-48992Y8664I183J147*
G01*
X-49408Y8664D01*
G75*
D01*
G03X-49643Y8429I0J-235*
G01*
X-49643Y8321D01*
G75*
D01*
G03X-49626Y8233I235J0*
G01*
X-52451Y9106D02*
X-52451Y8660D01*
G74*
D01*
G03X-52487Y8650I43J231*
G01*
G75*
D01*
G03X-52599Y9083I-313J150*
G01*
X-52599Y9085D01*
G74*
D01*
G03X-52500Y9159I33J147*
G01*
G74*
D01*
G03X-52451Y9106I132J73*
G01*
X-56851Y9106D02*
X-56851Y8660D01*
G74*
D01*
G03X-56999Y8566I43J231*
G01*
X-56999Y9085D01*
G74*
D01*
G03X-56900Y9159I33J147*
G01*
G74*
D01*
G03X-56851Y9106I132J73*
G01*
X-47601Y11083D02*
G74*
D01*
G03X-47649Y11041I201J283*
G01*
X-47649Y11232D01*
G74*
D01*
G03X-47601Y11283I83J126*
G01*
X-47601Y11083D01*
X-51938Y10722D02*
G75*
D01*
G02X-51801Y11083I338J78*
G01*
X-51801Y11206D01*
X-51807Y11207D01*
X-51868Y11207D01*
G75*
D01*
G02X-52000Y11285I0J151*
G01*
G74*
D01*
G02X-52049Y11232I132J73*
G01*
X-52049Y10833D01*
X-51938Y10722D01*
X-45497Y13313D02*
G75*
D01*
G02X-45556Y13455I142J142*
G01*
X-45556Y13573D01*
G74*
D01*
G02X-45599Y13615I83J126*
G01*
X-45599Y12683D01*
X-45517Y12601D01*
X-43073Y12601D01*
G75*
D01*
G02X-43080Y12658I227J57*
G01*
X-43080Y12666D01*
X-44766Y12666D01*
G75*
D01*
G02X-44807Y12670I-1J201*
G01*
G74*
D01*
G02X-44909Y12725I40J197*
G01*
X-45497Y13313D01*
X-37396Y13580D02*
G74*
D01*
G02X-37333Y13457I88J123*
G01*
X-37333Y13097D01*
G74*
D01*
G02X-37201Y13283I333J97*
G01*
X-37201Y13417D01*
X-37396Y13612D01*
X-37396Y13580D01*
X-38999Y14683D02*
G75*
D01*
G02X-39077Y14076I-201J-283*
G01*
X-37860Y14076D01*
X-38226Y14442D01*
G74*
D01*
G02X-38260Y14488I142J142*
G01*
X-38429Y14488D01*
G75*
D01*
G02X-38579Y14638I0J150*
G01*
X-38579Y14799D01*
X-38999Y14799D01*
X-38999Y14683D01*
X-39401Y14683D02*
X-39401Y15000D01*
G75*
D01*
G02X-39200Y15201I201J0*
G01*
X-38579Y15201D01*
G74*
D01*
G02X-38516Y15312I150J12*
G01*
X-38516Y16235D01*
G75*
D01*
G02X-38680Y16458I70J223*
G01*
X-38680Y16491D01*
X-39171Y16491D01*
G74*
D01*
G02X-39392Y16336I221J80*
G01*
X-39808Y16336D01*
G75*
D01*
G02X-40024Y16479I0J235*
G01*
X-40024Y14673D01*
X-39427Y14076D01*
X-39323Y14076D01*
G75*
D01*
G02X-39401Y14683I123J324*
G01*
X-37444Y19800D02*
G74*
D01*
G02X-37401Y19775I54J141*
G01*
X-37401Y19825D01*
G74*
D01*
G02X-37444Y19800I97J116*
G01*
X-40742Y22942D02*
G75*
D01*
G02X-40600Y23001I142J-142*
G01*
X-38621Y23001D01*
G74*
D01*
G02X-38442Y23199I421J201*
G01*
X-41958Y23199D01*
G75*
D01*
G02X-42442Y23199I-242J-399*
G01*
X-42958Y23199D01*
G75*
D01*
G02X-42760Y22644I-242J-399*
G01*
X-42217Y22101D01*
X-41583Y22101D01*
X-40742Y22942D01*
X-44599Y23042D02*
G74*
D01*
G02X-44442Y23199I399J242*
G01*
X-44517Y23199D01*
X-44599Y23117D01*
X-44599Y23042D01*
X-37572Y14914D02*
X-34414Y14914D01*
X-32300Y12800D01*
X-31275Y12800D01*
X-30272Y13803D01*
X-38084Y14914D02*
X-38084Y14584D01*
X-37000Y13500D01*
X-37000Y13000D01*
X-33400Y6350D02*
X-33400Y10425D01*
X-22600Y4775D02*
X-33400Y4775D01*
X-29800Y6350D02*
X-29800Y10425D01*
X-26200Y6350D02*
X-26200Y10425D01*
X-22600Y6350D02*
X-22600Y10425D01*
X-22600Y11175D02*
X-34275Y11175D01*
X-34400Y11300D01*
X-39200Y14400D02*
X-39200Y15000D01*
X-38426Y15000D01*
X-38340Y14914D01*
X-34100Y11175D02*
X-34100Y10250D01*
X-38000Y6350D01*
X-38340Y13182D02*
X-38618Y13182D01*
X-39000Y12800D01*
X-28200Y20300D02*
X-27347Y20300D01*
X-27293Y20245D01*
X-38392Y11267D02*
X-38392Y9958D01*
X-42000Y6350D01*
X-42000Y4775D02*
X-48375Y4775D01*
X-49200Y5600D01*
X-49200Y7625D01*
X-37200Y22800D02*
X-37200Y17108D01*
X-37642Y16667D01*
X-38200Y22800D02*
X-40600Y22800D01*
X-41500Y21900D01*
X-42300Y21900D01*
X-43200Y22800D01*
X-44200Y22800D02*
X-44200Y19375D01*
X-44000Y19175D01*
X-44000Y18425D02*
X-44375Y18425D01*
X-45355Y17445D01*
X-42792Y12867D02*
X-42792Y14667D01*
X-42817Y14692D01*
X-45355Y14004D02*
X-45355Y13455D01*
X-44767Y12867D01*
X-42792Y12867D01*
X-45355Y15755D02*
X-45355Y17445D01*
X-45355Y15755D02*
X-45042Y15442D01*
X-42817Y15442D01*
X-44855Y16130D02*
X-44855Y16945D01*
X-44800Y17000D01*
X-55625Y13200D02*
X-54375Y13200D01*
X-54200Y13025D01*
X-54200Y10975D01*
X-56650Y8425D02*
X-56600Y8375D01*
X-56650Y9537D02*
X-56650Y8425D01*
X-56650Y12350D02*
X-56400Y12600D01*
X-56400Y13175D01*
X-56375Y13200D01*
X-56650Y10750D02*
X-56650Y12350D01*
X-56650Y10750D02*
X-56150Y10250D01*
X-56150Y9537D01*
X-54200Y10225D02*
X-54200Y9400D01*
X-55225Y8375D01*
X-56600Y8375D01*
X-53625Y13200D02*
X-51375Y13200D01*
X-50625Y13200D02*
X-49175Y13200D01*
X-49800Y10975D02*
X-49800Y11600D01*
X-49175Y12225D01*
X-49175Y13200D01*
X-52250Y10750D02*
X-51750Y10250D01*
X-51750Y9537D01*
X-52250Y10750D02*
X-52250Y11950D01*
X-51375Y12825D01*
X-51375Y13200D01*
X-52250Y9537D02*
X-52250Y8425D01*
X-52200Y8375D01*
X-49800Y10225D02*
X-49800Y9300D01*
X-50725Y8375D01*
X-52200Y8375D01*
X-47850Y12625D02*
X-48425Y13200D01*
X-47350Y9537D02*
X-47350Y8425D01*
X-47400Y8375D01*
X-49200Y8375D01*
X-47200Y5600D02*
X-47200Y6500D01*
X-47400Y6700D01*
X-47400Y7625D01*
X-49200Y8375D02*
X-51000Y6575D01*
X-52425Y6575D01*
X-53400Y5600D01*
X-54400Y5600D02*
X-53100Y6900D01*
X-51629Y6900D02*
X-47850Y10679D01*
X-53100Y6900D02*
X-51629Y6900D01*
X-47850Y10679D02*
X-47850Y12625D01*
X-43600Y15442D02*
X-43600Y15400D01*
X-52575Y7625D02*
X-52200Y7625D01*
X-52600Y7600D02*
X-52575Y7625D01*
X-56200Y7600D02*
X-52600Y7600D01*
X-56225Y7625D02*
X-56200Y7600D01*
X-56600Y7625D02*
X-56225Y7625D01*
X-52800Y9537D02*
X-52750Y9537D01*
X-52800Y8200D02*
X-52800Y9537D01*
X-52600Y8000D02*
X-52800Y8200D01*
X-51800Y8000D02*
X-52600Y8000D01*
X-51600Y7800D02*
X-51800Y8000D01*
X-51600Y7500D02*
X-51600Y7800D01*
X-51900Y7200D02*
X-51600Y7500D01*
X-57000Y7200D02*
X-51900Y7200D01*
X-57200Y7400D02*
X-57000Y7200D01*
X-57200Y9537D02*
X-57200Y7400D01*
X-57150Y9537D02*
X-57200Y9537D01*
X-24900Y16800D02*
X-22200Y16800D01*
X-57200Y9537D02*
X-57150Y9537D01*
X-57200Y10000D02*
X-57200Y9537D01*
X-57800Y10000D02*
X-57200Y10000D01*
X-58000Y10200D02*
X-57800Y10000D01*
X-58000Y18200D02*
X-58000Y10200D01*
X-57800Y18400D02*
X-58000Y18200D01*
X-45000Y18400D02*
X-57800Y18400D01*
X-44800Y18600D02*
X-45000Y18400D01*
X-44800Y23200D02*
X-44800Y18600D01*
X-44600Y23400D02*
X-44800Y23200D01*
X-33800Y23400D02*
X-44600Y23400D01*
X-33600Y23200D02*
X-33800Y23400D01*
X-33600Y19600D02*
X-33600Y23200D01*
X-33400Y19400D02*
X-33600Y19600D01*
X-32800Y19400D02*
X-33400Y19400D01*
X-32700Y19300D02*
X-32800Y19400D01*
X-32600Y19300D02*
X-32700Y19300D01*
X-55600Y13800D02*
X-54000Y13800D01*
X-55800Y14000D02*
X-55600Y13800D01*
X-55800Y17400D02*
X-55800Y14000D01*
X-56000Y17600D02*
X-55800Y17400D01*
X-57200Y17600D02*
X-56000Y17600D01*
X-57400Y17400D02*
X-57200Y17600D01*
X-57400Y17000D02*
X-57400Y17400D01*
X-51750Y11400D02*
X-51750Y11663D01*
X-51600Y11400D02*
X-51750Y11400D01*
X-51600Y10800D02*
X-51600Y11400D01*
X-56000Y10800D02*
X-55600Y10800D01*
X-56200Y11000D02*
X-56000Y10800D01*
X-56200Y11663D02*
X-56200Y11000D01*
X-56150Y11663D02*
X-56200Y11663D01*
X-33200Y21200D02*
X-33200Y20800D01*
X-32985Y21200D02*
X-33200Y21200D01*
X-31183Y23003D02*
X-32985Y21200D01*
X-44355Y15955D02*
X-44355Y16130D01*
X-44200Y15800D02*
X-44355Y15955D01*
X-42400Y15800D02*
X-44200Y15800D01*
X-42200Y15600D02*
X-42400Y15800D01*
X-42200Y15200D02*
X-42200Y15600D01*
X-42400Y15000D02*
X-42200Y15200D01*
X-44600Y15000D02*
X-42400Y15000D01*
X-44800Y14800D02*
X-44600Y15000D01*
X-44800Y14004D02*
X-44800Y14800D01*
X-44855Y14004D02*
X-44800Y14004D01*
X-46400Y13800D02*
X-46400Y10600D01*
X-54000Y13800D02*
X-46400Y13800D01*
X-54000Y11600D02*
X-54000Y13800D01*
X-47800Y9537D02*
X-47850Y9537D01*
X-47800Y10200D02*
X-47800Y9537D01*
X-47600Y10400D02*
X-47800Y10200D01*
X-46600Y10400D02*
X-47600Y10400D01*
X-46400Y10600D02*
X-46600Y10400D01*
X-53600Y11200D02*
X-54000Y11600D01*
X-53600Y7600D02*
X-53600Y11200D01*
X-48350Y9350D02*
X-48350Y9537D01*
X-48200Y9200D02*
X-48350Y9350D01*
X-48200Y8800D02*
X-48200Y9200D01*
X-37600Y19453D02*
X-37626Y19453D01*
X-37600Y18000D02*
X-37600Y19453D01*
X-24900Y18000D02*
X-25400Y18000D01*
X-32400Y15400D02*
X-32564Y15400D01*
X-39226Y20000D02*
X-39226Y20147D01*
X-39974Y20000D02*
X-39226Y20000D01*
X-39974Y20147D02*
X-39974Y20000D01*
X-56400Y13600D02*
X-56400Y17000D01*
X-56375Y13575D02*
X-56400Y13600D01*
X-56375Y13200D02*
X-56375Y13575D01*
X-47400Y11663D02*
X-47350Y11663D01*
X-47400Y10800D02*
X-47400Y11663D01*
X-35400Y14225D02*
X-35617Y14442D01*
X-35400Y14200D02*
X-35400Y14225D01*
X-34200Y14200D02*
X-35400Y14200D01*
X-34000Y14000D02*
X-34200Y14200D01*
X-34000Y12800D02*
X-34000Y14000D01*
X-33800Y12600D02*
X-34000Y12800D01*
X-27400Y12600D02*
X-33800Y12600D01*
X-27200Y12800D02*
X-27400Y12600D01*
X-27200Y13803D02*
X-27200Y12800D01*
X-22200Y22400D02*
X-22200Y22600D01*
X-22400Y22200D02*
X-22200Y22400D01*
X-24800Y22200D02*
X-22400Y22200D01*
X-25000Y22000D02*
X-24800Y22200D01*
X-25000Y20800D02*
X-25000Y22000D01*
X-25200Y20600D02*
X-25000Y20800D01*
X-26400Y20600D02*
X-25200Y20600D01*
X-26543Y20457D02*
X-26400Y20600D01*
X-26543Y20245D02*
X-26543Y20457D01*
X-42042Y12800D02*
X-42042Y12867D01*
X-41400Y12800D02*
X-42042Y12800D01*
X-37800Y20321D02*
X-37626Y20147D01*
X-37800Y20400D02*
X-37800Y20321D01*
X-38000Y20600D02*
X-37800Y20400D01*
X-39200Y20600D02*
X-38000Y20600D01*
X-39400Y20800D02*
X-39200Y20600D01*
X-39400Y20853D02*
X-39400Y20800D01*
X-39600Y21053D02*
X-39400Y20853D01*
X-46200Y14600D02*
X-44800Y14600D01*
X-46400Y14400D02*
X-46200Y14600D01*
X-46400Y13800D02*
X-46400Y14400D01*
X-45800Y14004D02*
X-45855Y14004D01*
X-45800Y12600D02*
X-45800Y14004D01*
X-45600Y12400D02*
X-45800Y12600D01*
X-40800Y12400D02*
X-45600Y12400D01*
X-40600Y12600D02*
X-40800Y12400D01*
X-40600Y15200D02*
X-40600Y12600D01*
X-37000Y14914D02*
X-37000Y15200D01*
G54D12*
X-27293Y20245D02*
X-27293Y21857D01*
X-27147Y22003D01*
X-25672Y22003D01*
X-25047Y22628D01*
X-25047Y23378D02*
X-26522Y23378D01*
X-27147Y24003D01*
X-26543Y20245D02*
X-26145Y20245D01*
X-24900Y19000D01*
X-24900Y14800D01*
X-25897Y13803D01*
X-27672Y13803D01*
X-28422Y13803D02*
X-28422Y16897D01*
X-28528Y17003D01*
X-28422Y13803D02*
X-30272Y13803D01*
X-31022Y13803D02*
X-32103Y13803D01*
X-32564Y14264D01*
X-32564Y16003D01*
X-22200Y15800D02*
X-23800Y15800D01*
X-22200Y23600D02*
X-24825Y23600D01*
X-25047Y23378D01*
X-21800Y27200D02*
X-21800Y26100D01*
X-22300Y25600D01*
X-28585Y25600D01*
X-31183Y23003D01*
X-32600Y19300D02*
X-32600Y18039D01*
X-32564Y18003D01*
G54D13*
X-37642Y11267D02*
X-37642Y12242D01*
X-37828Y12428D01*
X-37828Y13182D01*
X-38084Y13182D02*
X-38084Y12416D01*
X-38400Y12100D01*
X-38400Y11275D01*
X-35617Y13692D02*
X-35617Y12883D01*
X-36258Y12242D01*
X-37642Y12242D01*
X-38392Y16667D02*
X-39558Y16667D01*
X-39600Y16625D01*
X-38374Y17401D02*
X-38400Y17375D01*
X-37626Y19453D02*
X-37626Y20147D01*
X-40025Y20096D02*
X-39974Y20147D01*
X-38340Y14914D02*
X-38340Y16615D01*
X-38392Y16667D01*
X-38084Y16224D02*
X-37642Y16667D01*
X-39775Y18600D02*
X-39775Y19948D01*
X-39974Y20147D01*
X-39025Y18802D02*
X-38374Y19453D01*
X-38374Y20147D01*
X-39025Y17950D02*
X-39025Y18802D01*
X-37572Y13182D02*
X-37572Y13672D01*
X-40200Y14600D02*
X-40200Y16775D01*
X-39025Y17950D01*
X-37800Y13900D02*
X-39500Y13900D01*
X-40200Y14600D01*
X-37572Y13672D02*
X-37800Y13900D01*
X-38084Y14914D02*
X-38084Y16224D01*
X-17500Y-100D02*
X-17500Y2900D01*
X-17500Y-100D02*
X-22059Y-100D01*
X-63092Y-100D02*
X-58533Y-100D01*
X-63092Y-100D02*
X-63092Y2900D01*
X-63092Y29900D02*
X-63092Y26900D01*
X-63092Y29900D02*
X-58533Y29900D01*
X-17500Y29900D02*
X-22059Y29900D01*
X-17500Y29900D02*
X-17500Y26900D01*
X-15531Y-100D02*
X-11594Y-100D01*
X-13563Y-2069D02*
X-13563Y1869D01*
X-12087Y-100D02*
G75*
D01*
G02X-12087Y-100I-1476J0*
G01*
X-65061Y-100D02*
X-68998Y-100D01*
X-67029Y-2069D02*
X-67029Y1869D01*
X-65553Y-100D02*
G75*
D01*
G02X-65553Y-100I-1476J0*
G01*
X-66537Y-100D02*
G75*
D01*
G02X-66537Y-100I-492J0*
G01*
X-15531Y29900D02*
X-11594Y29900D01*
X-13563Y27931D02*
X-13563Y31869D01*
X-12087Y29900D02*
G75*
D01*
G02X-12087Y29900I-1476J0*
G01*
X-12579Y29900D02*
G75*
D01*
G02X-12579Y29900I-984J0*
G01*
X-13071Y29900D02*
G75*
D01*
G02X-13071Y29900I-492J0*
G01*
G54D14*
X-42000Y6350D03*
X-42000Y3200D03*
X-42000Y4775D03*
X-38000Y6350D03*
X-38000Y3200D03*
X-38000Y4775D03*
X-33400Y6350D03*
X-33400Y3200D03*
X-33400Y4775D03*
X-22600Y6350D03*
X-22600Y3200D03*
X-22600Y4775D03*
X-26200Y6350D03*
X-26200Y3200D03*
X-26200Y4775D03*
X-29800Y6350D03*
X-29800Y3200D03*
X-29800Y4775D03*
G54D15*
X-55625Y13200D03*
X-56375Y13200D03*
X-49175Y13200D03*
X-48425Y13200D03*
X-50625Y13200D03*
X-51375Y13200D03*
X-53625Y13200D03*
X-54375Y13200D03*
X-38392Y11267D03*
X-37642Y11267D03*
X-27293Y20245D03*
X-26543Y20245D03*
X-27672Y13803D03*
X-28422Y13803D03*
X-31022Y13803D03*
X-30272Y13803D03*
X-37642Y16667D03*
X-38392Y16667D03*
X-42042Y12867D03*
X-42792Y12867D03*
X-39025Y18600D03*
X-39775Y18600D03*
G54D16*
X-55571Y12992D02*
X-55679Y12992D01*
X-55679Y13408D01*
X-55571Y13408D01*
X-55571Y12992D01*D02*
X-56321Y12992D02*
X-56429Y12992D01*
X-56429Y13408D01*
X-56321Y13408D01*
X-56321Y12992D01*D02*
X-56392Y7571D02*
X-56808Y7571D01*
X-56808Y7679D01*
X-56392Y7679D01*
X-56392Y7571D01*D02*
X-56392Y8321D02*
X-56808Y8321D01*
X-56808Y8429D01*
X-56392Y8429D01*
X-56392Y8321D01*D02*
X-33192Y10371D02*
X-33608Y10371D01*
X-33608Y10479D01*
X-33192Y10479D01*
X-33192Y10371D01*D02*
X-33192Y11121D02*
X-33608Y11121D01*
X-33608Y11229D01*
X-33192Y11229D01*
X-33192Y11121D01*D02*
X-29592Y11121D02*
X-30008Y11121D01*
X-30008Y11229D01*
X-29592Y11229D01*
X-29592Y11121D01*D02*
X-29592Y10371D02*
X-30008Y10371D01*
X-30008Y10479D01*
X-29592Y10479D01*
X-29592Y10371D01*D02*
X-22392Y10371D02*
X-22808Y10371D01*
X-22808Y10479D01*
X-22392Y10479D01*
X-22392Y10371D01*D02*
X-22392Y11121D02*
X-22808Y11121D01*
X-22808Y11229D01*
X-22392Y11229D01*
X-22392Y11121D01*D02*
X-25992Y10371D02*
X-26408Y10371D01*
X-26408Y10479D01*
X-25992Y10479D01*
X-25992Y10371D01*D02*
X-25992Y11121D02*
X-26408Y11121D01*
X-26408Y11229D01*
X-25992Y11229D01*
X-25992Y11121D01*D02*
X-53992Y10171D02*
X-54408Y10171D01*
X-54408Y10279D01*
X-53992Y10279D01*
X-53992Y10171D01*D02*
X-53992Y10921D02*
X-54408Y10921D01*
X-54408Y11029D01*
X-53992Y11029D01*
X-53992Y10921D01*D02*
X-49592Y10921D02*
X-50008Y10921D01*
X-50008Y11029D01*
X-49592Y11029D01*
X-49592Y10921D01*D02*
X-49592Y10171D02*
X-50008Y10171D01*
X-50008Y10279D01*
X-49592Y10279D01*
X-49592Y10171D01*D02*
X-49121Y12992D02*
X-49229Y12992D01*
X-49229Y13408D01*
X-49121Y13408D01*
X-49121Y12992D01*D02*
X-48371Y12992D02*
X-48479Y12992D01*
X-48479Y13408D01*
X-48371Y13408D01*
X-48371Y12992D01*D02*
X-51992Y8321D02*
X-52408Y8321D01*
X-52408Y8429D01*
X-51992Y8429D01*
X-51992Y8321D01*D02*
X-51992Y7571D02*
X-52408Y7571D01*
X-52408Y7679D01*
X-51992Y7679D01*
X-51992Y7571D01*D02*
X-50571Y12992D02*
X-50679Y12992D01*
X-50679Y13408D01*
X-50571Y13408D01*
X-50571Y12992D01*D02*
X-51321Y12992D02*
X-51429Y12992D01*
X-51429Y13408D01*
X-51321Y13408D01*
X-51321Y12992D01*D02*
X-48992Y7571D02*
X-49408Y7571D01*
X-49408Y7679D01*
X-48992Y7679D01*
X-48992Y7571D01*D02*
X-48992Y8321D02*
X-49408Y8321D01*
X-49408Y8429D01*
X-48992Y8429D01*
X-48992Y8321D01*D02*
X-47192Y7571D02*
X-47608Y7571D01*
X-47608Y7679D01*
X-47192Y7679D01*
X-47192Y7571D01*D02*
X-47192Y8321D02*
X-47608Y8321D01*
X-47608Y8429D01*
X-47192Y8429D01*
X-47192Y8321D01*D02*
X-53571Y12992D02*
X-53679Y12992D01*
X-53679Y13408D01*
X-53571Y13408D01*
X-53571Y12992D01*D02*
X-54321Y12992D02*
X-54429Y12992D01*
X-54429Y13408D01*
X-54321Y13408D01*
X-54321Y12992D01*D02*
X-38338Y11059D02*
X-38446Y11059D01*
X-38446Y11475D01*
X-38338Y11475D01*
X-38338Y11059D01*D02*
X-37588Y11059D02*
X-37696Y11059D01*
X-37696Y11475D01*
X-37588Y11475D01*
X-37588Y11059D01*D02*
X-27239Y20037D02*
X-27347Y20037D01*
X-27347Y20453D01*
X-27239Y20453D01*
X-27239Y20037D01*D02*
X-26489Y20037D02*
X-26597Y20037D01*
X-26597Y20453D01*
X-26489Y20453D01*
X-26489Y20037D01*D02*
X-27618Y13595D02*
X-27726Y13595D01*
X-27726Y14011D01*
X-27618Y14011D01*
X-27618Y13595D01*D02*
X-28368Y13595D02*
X-28476Y13595D01*
X-28476Y14011D01*
X-28368Y14011D01*
X-28368Y13595D01*D02*
X-30968Y13595D02*
X-31076Y13595D01*
X-31076Y14011D01*
X-30968Y14011D01*
X-30968Y13595D01*D02*
X-30218Y13595D02*
X-30326Y13595D01*
X-30326Y14011D01*
X-30218Y14011D01*
X-30218Y13595D01*D02*
X-24839Y22574D02*
X-25255Y22574D01*
X-25255Y22682D01*
X-24839Y22682D01*
X-24839Y22574D01*D02*
X-24839Y23324D02*
X-25255Y23324D01*
X-25255Y23432D01*
X-24839Y23432D01*
X-24839Y23324D01*D02*
X-37588Y16459D02*
X-37696Y16459D01*
X-37696Y16875D01*
X-37588Y16875D01*
X-37588Y16459D01*D02*
X-38338Y16459D02*
X-38446Y16459D01*
X-38446Y16875D01*
X-38338Y16875D01*
X-38338Y16459D01*D02*
X-39392Y16571D02*
X-39808Y16571D01*
X-39808Y16679D01*
X-39392Y16679D01*
X-39392Y16571D01*D02*
X-39392Y17321D02*
X-39808Y17321D01*
X-39808Y17429D01*
X-39392Y17429D01*
X-39392Y17321D01*D02*
X-35409Y13638D02*
X-35825Y13638D01*
X-35825Y13746D01*
X-35409Y13746D01*
X-35409Y13638D01*D02*
X-35409Y14388D02*
X-35825Y14388D01*
X-35825Y14496D01*
X-35409Y14496D01*
X-35409Y14388D01*D02*
X-43792Y19121D02*
X-44208Y19121D01*
X-44208Y19229D01*
X-43792Y19229D01*
X-43792Y19121D01*D02*
X-43792Y18371D02*
X-44208Y18371D01*
X-44208Y18479D01*
X-43792Y18479D01*
X-43792Y18371D01*D02*
X-41988Y12659D02*
X-42096Y12659D01*
X-42096Y13075D01*
X-41988Y13075D01*
X-41988Y12659D01*D02*
X-42738Y12659D02*
X-42846Y12659D01*
X-42846Y13075D01*
X-42738Y13075D01*
X-42738Y12659D01*D02*
X-42609Y14638D02*
X-43025Y14638D01*
X-43025Y14746D01*
X-42609Y14746D01*
X-42609Y14638D01*D02*
X-42609Y15388D02*
X-43025Y15388D01*
X-43025Y15496D01*
X-42609Y15496D01*
X-42609Y15388D01*D02*
X-38971Y18392D02*
X-39079Y18392D01*
X-39079Y18808D01*
X-38971Y18808D01*
X-38971Y18392D01*D02*
X-39721Y18392D02*
X-39829Y18392D01*
X-39829Y18808D01*
X-39721Y18808D01*
X-39721Y18392D01*D02*
G54D17*
X-56600Y7625D03*
X-56600Y8375D03*
X-33400Y10425D03*
X-33400Y11175D03*
X-29800Y11175D03*
X-29800Y10425D03*
X-22600Y10425D03*
X-22600Y11175D03*
X-26200Y10425D03*
X-26200Y11175D03*
X-54200Y10225D03*
X-54200Y10975D03*
X-49800Y10975D03*
X-49800Y10225D03*
X-52200Y8375D03*
X-52200Y7625D03*
X-49200Y7625D03*
X-49200Y8375D03*
X-47400Y7625D03*
X-47400Y8375D03*
X-25047Y22628D03*
X-25047Y23378D03*
X-39600Y16625D03*
X-39600Y17375D03*
X-35617Y13692D03*
X-35617Y14442D03*
X-44000Y19175D03*
X-44000Y18425D03*
X-42817Y14692D03*
X-42817Y15442D03*
G54D18*
X-21800Y27200D03*
X-23800Y27200D03*
X-22800Y27200D03*
G54D19*
X-55650Y9537D03*
X-56650Y9537D03*
X-56150Y9537D03*
X-57150Y9537D03*
X-55650Y11663D03*
X-56650Y11663D03*
X-56150Y11663D03*
X-57150Y11663D03*
X-46850Y9537D03*
X-47350Y9537D03*
X-47850Y9537D03*
X-48350Y9537D03*
X-46850Y11663D03*
X-47350Y11663D03*
X-47850Y11663D03*
X-48350Y11663D03*
X-51250Y9537D03*
X-51750Y9537D03*
X-52250Y9537D03*
X-52750Y9537D03*
X-51250Y11663D03*
X-51750Y11663D03*
X-52250Y11663D03*
X-52750Y11663D03*
X-44355Y14004D03*
X-44855Y14004D03*
X-45355Y14004D03*
X-45855Y14004D03*
X-44855Y16130D03*
X-44355Y16130D03*
X-45355Y16130D03*
X-45855Y16130D03*
G54D20*
X-23800Y15800D03*
X-32600Y19300D03*
X-37000Y13000D03*
X-34400Y11300D03*
X-39200Y14400D03*
X-28200Y20300D03*
X-44800Y17000D03*
X-39000Y12800D03*
X-43600Y15400D03*
X-32400Y15400D03*
X-40600Y15200D03*
X-37000Y15200D03*
X-41400Y12800D03*
X-51600Y10800D03*
X-55600Y10800D03*
X-47400Y10800D03*
X-33200Y20800D03*
X-37600Y18000D03*
X-25400Y18000D03*
X-48200Y8800D03*
X-52800Y8800D03*
G54D21*
X-22200Y16800D03*
X-22200Y15800D03*
X-22200Y14800D03*
X-22200Y22600D03*
X-22200Y23600D03*
X-22200Y21600D03*
G54D22*
X-28528Y17003D03*
X-31183Y23003D03*
G54D23*
X-32564Y16003D03*
X-32564Y18003D03*
X-27147Y22003D03*
X-27147Y24003D03*
G54D24*
X-37828Y13182D03*
X-37572Y13182D03*
X-38084Y13182D03*
X-38340Y13182D03*
X-37828Y14914D03*
X-37572Y14914D03*
X-38084Y14914D03*
X-38340Y14914D03*
G54D25*
X-35425Y25558D03*
X-38975Y25558D03*
X-41425Y25558D03*
X-44975Y25558D03*
X-55175Y2842D03*
X-51625Y2842D03*
X-48975Y2842D03*
X-45425Y2842D03*
G54D26*
X-37200Y22800D03*
X-38200Y22800D03*
X-36200Y22800D03*
X-44200Y22800D03*
X-43200Y22800D03*
X-42200Y22800D03*
X-53400Y5600D03*
X-54400Y5600D03*
X-52400Y5600D03*
X-48200Y5600D03*
X-46200Y5600D03*
X-47200Y5600D03*
G54D27*
X-57400Y17000D03*
X-56400Y17000D03*
G54D28*
X-54400Y15000D03*
X-58400Y19000D03*
G54D29*
X-38000Y18547D03*
X-37626Y19453D03*
X-38374Y19453D03*
X-37626Y20147D03*
X-38374Y20147D03*
X-38000Y21053D03*
X-39226Y20147D03*
X-39974Y20147D03*
X-39600Y21053D03*

M02*
